SplineFontDB: 3.0
FontName: Untitled1
FullName: Untitled1
FamilyName: Untitled1
Weight: Regular
Copyright: Copyright (c) 2017, ウルヰ,,,
UComments: "2017-10-21: Created with FontForge (http://fontforge.org)"
Version: 001.000
ItalicAngle: 0
UnderlinePosition: -100
UnderlineWidth: 50
Ascent: 800
Descent: 200
InvalidEm: 0
LayerCount: 2
Layer: 0 0 "Back" 1
Layer: 1 0 "Fore" 0
XUID: [1021 881 2055310830 19285]
OS2Version: 0
OS2_WeightWidthSlopeOnly: 0
OS2_UseTypoMetrics: 1
CreationTime: 1508636382
ModificationTime: 1508645762
OS2TypoAscent: 0
OS2TypoAOffset: 1
OS2TypoDescent: 0
OS2TypoDOffset: 1
OS2TypoLinegap: 0
OS2WinAscent: 0
OS2WinAOffset: 1
OS2WinDescent: 0
OS2WinDOffset: 1
HheadAscent: 0
HheadAOffset: 1
HheadDescent: 0
HheadDOffset: 1
OS2Vendor: 'PfEd'
DEI: 91125
Encoding: ISO8859-1
UnicodeInterp: none
NameList: AGL For New Fonts
DisplaySize: -48
AntiAlias: 1
FitToEm: 0
BeginChars: 306 75

StartChar: W
Encoding: 87 87 0
Width: 1000
VWidth: 0
Flags: H
LayerCount: 2
Fore
SplineSet
543.48046875 -1.791015625 m 5
 522.823242188 -36.4814453125 l 5
 500.9765625 -2.52734375 l 5
 103.9765625 614.47265625 l 5
 79.224609375 652.940429688 l 5
 124.967773438 653 l 5
 889.967773438 654 l 5
 934.017578125 654.057617188 l 5
 911.48046875 616.208984375 l 5
 543.48046875 -1.791015625 l 5
521.176757812 58.4814453125 m 5
 845.982421875 603.942382812 l 5
 170.775390625 603.059570312 l 5
 521.176757812 58.4814453125 l 5
471.51953125 786.791015625 m 5
 492.176757812 821.481445312 l 5
 514.0234375 787.52734375 l 5
 911.0234375 170.52734375 l 5
 935.775390625 132.059570312 l 5
 890.032226562 132 l 5
 125.032226562 131 l 5
 80.982421875 130.942382812 l 5
 103.51953125 168.791015625 l 5
 471.51953125 786.791015625 l 5
493.823242188 726.518554688 m 5
 169.017578125 181.057617188 l 5
 844.224609375 181.940429688 l 5
 493.823242188 726.518554688 l 5
EndSplineSet
EndChar

StartChar: T
Encoding: 84 84 1
Width: 1000
VWidth: 0
Flags: H
LayerCount: 2
Fore
SplineSet
495.618164062 -9.9970703125 m 5
 470.62109375 -9.615234375 l 5
 471.002929688 15.3818359375 l 5
 481.002929688 670.381835938 l 5
 481.384765625 695.37890625 l 5
 506.381835938 694.997070312 l 5
 531.37890625 694.615234375 l 5
 530.997070312 669.618164062 l 5
 520.997070312 14.6181640625 l 5
 520.615234375 -10.37890625 l 5
 495.618164062 -9.9970703125 l 5
226.38671875 581.861328125 m 5
 204.248046875 593.474609375 l 5
 215.861328125 615.61328125 l 5
 247.861328125 676.61328125 l 5
 254.8125 689.864257812 l 5
 269.774414062 689.999023438 l 5
 712.774414062 693.999023438 l 5
 725.374023438 694.112304688 l 5
 732.9609375 684.052734375 l 5
 778.9609375 623.052734375 l 5
 794.012695312 603.091796875 l 5
 774.052734375 588.0390625 l 5
 754.091796875 572.987304688 l 5
 739.0390625 592.947265625 l 5
 700.625976562 643.887695312 l 5
 285.1875 640.135742188 l 5
 260.138671875 592.38671875 l 5
 248.525390625 570.248046875 l 5
 226.38671875 581.861328125 l 5
504.374023438 714.330078125 m 5
 531.73046875 760.407226562 l 5
 473.158203125 759.626953125 l 5
 504.374023438 714.330078125 l 5
485.35546875 653.813476562 m 5
 405.415039062 769.813476562 l 5
 378.841796875 808.373046875 l 5
 425.666992188 808.998046875 l 5
 575.666992188 810.998046875 l 5
 620.26953125 811.592773438 l 5
 597.497070312 773.237304688 l 5
 527.4375 655.237304688 l 5
 507.506835938 621.669921875 l 5
 485.35546875 653.813476562 l 5
EndSplineSet
EndChar

StartChar: P
Encoding: 80 80 2
Width: 1000
VWidth: 0
Flags: H
LayerCount: 2
Fore
SplineSet
255.1015625 414.249023438 m 5
 257.350585938 439.147460938 l 5
 282.249023438 436.8984375 l 5
 281.252929688 436.98828125 283.249023438 436.8984375 282.249023438 436.8984375 c 5
 747.249023438 394.8984375 l 5
 772.147460938 392.649414062 l 5
 769.8984375 367.750976562 l 5
 767.649414062 342.852539062 l 5
 742.750976562 345.1015625 l 5
 277.750976562 387.1015625 l 5
 276.750976562 387.1015625 276.754882812 387.19140625 277.750976562 387.1015625 c 5
 252.852539062 389.350585938 l 5
 255.1015625 414.249023438 l 5
232.974609375 636.676757812 m 5
 215.651367188 654.702148438 l 5
 233.676757812 672.025390625 l 5
 232.956054688 671.33203125 234.676757812 672.025390625 233.676757812 672.025390625 c 5
 313.90625 749.12890625 416.341796875 802.947265625 543.516601562 779.588867188 c 4
 579.225585938 773.030273438 618.431640625 758.799804688 654.083007812 739.06640625 c 4
 720.927734375 702.068359375 793.965820312 632.434570312 749.865234375 552.87890625 c 4
 692.852539062 450.033203125 589.559570312 429.810546875 501.263671875 368.46875 c 4
 385.387695312 287.96484375 274.7734375 261.3203125 279.970703125 153.200195312 c 4
 280.08203125 150.896484375 280.274414062 148.650390625 280.54296875 146.458984375 c 4
 289.4921875 73.552734375 400.016601562 34.453125 497.897460938 46.806640625 c 4
 598.612304688 59.28515625 663.442382812 136.229492188 725.268554688 227.971679688 c 6
 739.239257812 248.703125 l 5
 759.971679688 234.731445312 l 5
 780.703125 220.760742188 l 5
 766.731445312 200.028320312 l 6
 704.553710938 107.764648438 629.4140625 12.71875 504.07421875 -2.810546875 c 4
 401.776367188 -15.7216796875 245.915039062 18.1591796875 230.916015625 140.3671875 c 4
 230.494140625 143.798828125 230.198242188 147.27734375 230.029296875 150.799804688 c 4
 222.82421875 300.661132812 376.772460938 342.861328125 472.736328125 409.53125 c 4
 574.440429688 480.189453125 661.147460938 495.966796875 706.134765625 577.12109375 c 4
 726.3125 613.520507812 696.693359375 658.333984375 629.870117188 695.3203125 c 4
 598.96484375 712.426757812 563.926757812 725.002929688 534.483398438 730.411132812 c 4
 427.474609375 750.06640625 342.09375 706.87109375 268.323242188 635.974609375 c 6
 250.297851562 618.651367188 l 5
 232.974609375 636.676757812 l 5
EndSplineSet
EndChar

StartChar: K
Encoding: 75 75 3
Width: 1000
VWidth: 0
Flags: H
LayerCount: 2
Fore
SplineSet
678.854492188 315.600585938 m 1
 697.700195312 351.578125 l 1
 721.33203125 318.546875 l 1
 897.33203125 72.546875 l 1
 924.9609375 33.9296875 l 1
 877.487304688 33.0048828125 l 1
 569.487304688 27.0048828125 l 1
 527.25390625 26.181640625 l 1
 546.854492188 63.6005859375 l 1
 678.854492188 315.600585938 l 1
704.299804688 256.421875 m 1
 610.74609375 77.818359375 l 1
 829.0390625 82.0703125 l 1
 704.299804688 256.421875 l 1
808.014648438 536.193359375 m 1
 783.603515625 541.588867188 l 1
 759.193359375 546.985351562 l 1
 764.588867188 571.396484375 l 1
 790.688476562 689.46484375 l 1
 106.456054688 22.103515625 l 1
 88.55859375 4.6474609375 l 1
 71.103515625 22.5439453125 l 1
 53.6474609375 40.44140625 l 1
 71.5439453125 57.896484375 l 1
 735.037109375 705.029296875 l 1
 611.116210938 673.759765625 l 1
 598.78515625 722.21484375 l 1
 629.82421875 730.180664062 l 1
 873 792 l 1
 808.014648438 536.193359375 l 1
EndSplineSet
EndChar

StartChar: S
Encoding: 83 83 4
Width: 1000
VWidth: 0
Flags: H
LayerCount: 2
Fore
SplineSet
804.748737342 371.535533906 m 0
 808.041073291 348.489182258 820.326179217 339.372707172 828.304613334 339.942595323 c 0
 843.632701791 340.931504256 855.497737841 355.607641813 853.205761346 372.797465528 c 0
 850.531302162 394.193138995 834.741068961 407.691549412 816.9919597 406.077994025 c 0
 811.367129338 405.690074689 801.251497718 396.016211268 804.748737342 371.535533906 c 0
755.251262658 364.464466094 m 0
 750.748502282 395.983788732 760.632870662 452.309925311 813.0080403 455.922005975 c 0
 861.258931039 460.308450588 897.468697838 421.806861005 902.794238654 379.202534472 c 0
 908.502262159 336.392358187 878.367298209 293.068495744 831.695386666 290.057404677 c 0
 783.673820783 286.627292828 759.958926709 331.510817742 755.251262658 364.464466094 c 0
143.007604789 349.383411302 m 1
 142.391016091 374.375806513 l 1
 167.383411302 374.992395211 l 1
 166.383715494 374.967731663 167.383411302 373.992395211 167.383411302 374.992395211 c 1
 775.383411302 389.992395211 l 1
 800.375806513 390.608983909 l 1
 800.992395211 365.616588698 l 1
 801.608983909 340.624193487 l 1
 776.616588698 340.007604789 l 1
 168.616588698 325.007604789 l 1
 168.616588698 326.007604789 167.616892889 324.982941241 168.616588698 325.007604789 c 1
 143.624193487 324.391016091 l 1
 143.007604789 349.383411302 l 1
505.266296476 -7.99858168351 m 1
 480.267714792 -8.26487815949 l 1
 480.001418316 16.733703524 l 1
 480.012070176 15.7337602567 480.001418316 17.733703524 480.001418316 16.733703524 c 1
 472.001418316 767.733703524 l 1
 471.392302311 824.914468529 l 1
 513.780473221 786.531479123 l 1
 767.780473221 556.531479123 l 1
 786.311952344 539.751005901 l 1
 769.531479123 521.219526779 l 1
 752.751005901 502.688047656 l 1
 734.219526779 519.468520877 l 1
 522.607697689 711.085531471 l 1
 529.998581684 17.266296476 l 1
 529.998581684 16.266296476 530.009233543 16.2663532086 529.998581684 17.266296476 c 1
 530.264878159 -7.73228520752 l 1
 505.266296476 -7.99858168351 l 1
EndSplineSet
EndChar

StartChar: X
Encoding: 88 88 5
Width: 1000
VWidth: 0
Flags: HW
LayerCount: 2
Fore
SplineSet
836.645927868 770.997492533 m 1
 861.643420401 771.351564665 l 1
 861.997492533 746.354072132 l 1
 871.997492533 40.3540721322 l 1
 872.351564665 15.3565795994 l 1
 847.354072132 15.0025074672 l 1
 822.356579599 14.6484353351 l 1
 822.002507467 39.6459278678 l 1
 812.002507467 745.645927868 l 1
 811.648435335 770.643420401 l 1
 836.645927868 770.997492533 l 1
344.107711737 117.015928641 m 1
 319.123640379 117.908216904 l 1
 320.015928641 142.892288263 l 2
 322.673725584 217.310602646 289.578801211 282.510236006 330.368086682 368.620949779 c 0
 398.208828091 514.542544506 561.795421492 496.069961556 536.723940244 598.027318631 c 0
 511.187093716 701.822243228 393.140828341 694.49618116 254.734153871 719.366130479 c 0
 250.249959359 720.113496231 244.597697405 720.06459834 239.165458753 719.07954735 c 0
 212.947257572 714.325289173 196.526930228 693.356132342 199.596747752 676.472135955 c 2
 204.068883707 651.875388203 l 1
 179.472135955 647.403252248 l 1
 154.875388203 642.931116293 l 1
 150.403252248 667.527864045 l 2
 140.505749511 721.964129096 187.311702657 760.492088759 230.244233682 768.277227613 c 0
 240.98434369 770.224777541 251.828472013 770.540098541 263.265846129 768.633869521 c 0
 380.859171659 747.50381884 548.812906284 758.177756772 585.276059756 609.972681369 c 0
 620.204578508 467.930038444 413.791171909 429.457455494 375.631913318 347.379050221 c 0
 344.421198789 281.489763994 373.326274416 234.689397354 369.984071359 141.107711737 c 2
 369.091783096 116.123640379 l 1
 344.107711737 117.015928641 l 1
344.053710938 81.478515625 m 4
 347.345703125 58.431640625 359.630859375 49.3154296875 367.609375 49.884765625 c 4
 382.9375 50.8740234375 394.802734375 65.5498046875 392.510742188 82.740234375 c 4
 389.8359375 104.135742188 374.045898438 117.633789062 356.296875 116.020507812 c 4
 350.671875 115.6328125 340.555664062 105.958984375 344.053710938 81.478515625 c 4
294.555664062 74.4072265625 m 4
 290.052734375 105.926757812 299.9375 162.252929688 352.3125 165.864257812 c 4
 400.563476562 170.250976562 436.7734375 131.749023438 442.098632812 89.1455078125 c 4
 447.806640625 46.3349609375 417.671875 3.0107421875 371 0 c 4
 322.978515625 -3.4296875 299.263671875 41.453125 294.555664062 74.4072265625 c 4
EndSplineSet
EndChar

StartChar: F
Encoding: 70 70 6
Width: 1000
VWidth: 0
Flags: HW
LayerCount: 2
Fore
SplineSet
908.788766729 661.755738524 m 1
 932.544505254 653.966971795 l 1
 924.755738524 630.211233271 l 2
 885.164700695 509.458567893 864.908182999 438.061615008 763.68120804 347.379116607 c 0
 651.92392528 247.263217468 513.179576851 349.578681362 426.672137264 293.069814558 c 0
 305.747998043 214.079046196 265.19299113 155.192415696 170.288484158 40.0954604313 c 2
 154.383944589 20.8069762734 l 1
 135.095460431 36.7115158422 l 1
 115.806976273 52.6160554109 l 1
 131.711515842 71.9045395687 l 2
 224.80700887 184.807584304 272.252001957 251.920953804 399.327862736 334.930185442 c 0
 529.234485649 419.788506138 650.07607472 312.736782532 730.31879196 384.620883393 c 0
 823.19551463 467.822947451 836.835299305 522.541432107 877.244261476 645.788766729 c 2
 885.033028205 669.544505254 l 1
 908.788766729 661.755738524 l 1
787.409781006 780.996641365 m 1
 812.406422371 780.586860359 l 1
 811.996641365 755.590218994 l 2
 809.980498448 632.605501041 798.638235997 551.611648399 695.68120804 459.379116607 c 0
 583.923918764 359.263211631 445.179573401 461.578704293 358.672137264 405.069814558 c 0
 237.747998043 326.079046196 197.19299113 267.192415696 102.288484158 152.095460431 c 2
 86.3839445891 132.806976273 l 1
 67.0954604313 148.711515842 l 1
 47.8069762734 164.616055411 l 1
 63.7115158422 183.904539569 l 2
 156.80700887 296.807584304 204.252001957 363.920953804 331.327862736 446.930185442 c 0
 461.234460252 531.788527368 582.076081236 424.736788369 662.31879196 496.620883393 c 0
 753.465279628 578.273117226 760.019501552 635.394498959 762.003358635 756.409781006 c 2
 762.413139641 781.406422371 l 1
 787.409781006 780.996641365 l 1
281.762968797 521.892411665 m 1
 263.655380462 539.129442869 l 1
 280.892411665 557.237031203 l 1
 280.202930417 556.51272767 279.892411665 557.237031203 280.892411665 557.237031203 c 1
 478.892411665 765.237031203 l 1
 497.91058469 785.215718017 l 1
 515.928918229 764.330831414 l 1
 691.928918229 560.330831414 l 1
 708.259749643 541.401913184 l 1
 689.330831414 525.071081771 l 1
 670.401913184 508.740250357 l 1
 654.071081771 527.669168586 l 1
 496.08941531 710.784281983 l 1
 317.107588335 522.762968797 l 1
 316.107588335 522.762968797 316.418107087 522.038665263 317.107588335 522.762968797 c 1
 299.870557131 504.655380462 l 1
 281.762968797 521.892411665 l 1
494.860351562 746 m 1
 519.860351562 746.138671875 l 1
 520 739.139648438 l 1
 523.999612054 42.1392736048 l 1
 524.138885659 17.1396615505 l 1
 499.139273605 17.0003879457 l 1
 474.139661551 16.861114341 l 1
 474.000387946 41.8607263952 l 1
 470 738.860351562 l 1
 469.861328125 745.860351562 l 1
 494.860351562 746 l 1
EndSplineSet
EndChar

StartChar: N
Encoding: 78 78 7
Width: 1000
VWidth: 0
Flags: H
LayerCount: 2
Fore
SplineSet
493.575789167 441.280206992 m 1
 801.785321115 769.123827642 l 1
 843.95887637 813.983994565 l 1
 844.996450068 752.421288484 l 1
 856.659371417 60.4212884843 l 1
 856.835124055 49.9932986111 l 1
 858 15 l 1
 832.319815655 15.0018397156 l 1
 807.32158535 14.682437117 l 1
 145.218332285 9.00095339791 l 1
 86.7046950641 8.48991726498 l 1
 126.785321115 51.1238276424 l 1
 459.248831555 404.766495044 l 1
 152.678329803 734.990696629 l 1
 152.678329803 735.990696629 151.997957668 735.723563436 152.678329803 734.990696629 c 1
 135.669026431 753.312366826 l 1
 153.990696629 770.321670197 l 1
 172.312366826 787.330973569 l 1
 189.321670197 769.009303371 l 1
 188.641298062 769.742170179 189.321670197 768.009303371 189.321670197 769.009303371 c 1
 493.575789167 441.280206992 l 1
527.673167863 404.55201693 m 1
 805.903392658 104.854709737 l 1
 796.04112363 690.016005435 l 1
 527.673167863 404.55201693 l 1
493.346210251 368.038304981 m 1
 203.295304936 59.510082735 l 1
 775.138271919 64.5043444554 l 1
 493.346210251 368.038304981 l 1
EndSplineSet
EndChar

StartChar: M
Encoding: 77 77 8
Width: 1000
VWidth: 0
Flags: H
LayerCount: 2
Fore
SplineSet
198.01171875 527.243164062 m 1
 197.25390625 552.231445312 l 1
 222.243164062 552.98828125 l 2
 318.9609375 555.918945312 429.801757812 563.872070312 509.845703125 471.427734375 c 0
 516.032226562 464.376953125 520.73046875 455.422851562 522.30078125 445.893554688 c 0
 531.796875 388.247070312 439.221679688 339.361328125 429.717773438 325.698242188 c 1
 529.807617188 250.299804688 594.573242188 273.266601562 757.579101562 262.950195312 c 2
 782.529296875 261.37109375 l 1
 780.950195312 236.420898438 l 1
 779.37109375 211.470703125 l 1
 754.420898438 213.049804688 l 2
 602.274414062 222.6796875 514.98046875 197.921875 397.854492188 287.110351562 c 0
 388.091796875 294.543945312 379.837890625 305.65625 378.34765625 319.232421875 c 0
 376.517578125 335.905273438 384.294921875 348.758789062 391.377929688 357.950195312 c 0
 418.931640625 393.705078125 468.7265625 424.326171875 472.82421875 437.739257812 c 0
 472.766601562 437.8203125 472.560546875 438.110351562 472.154296875 438.572265625 c 0
 410.198242188 510.127929688 325.0390625 506.081054688 223.756835938 503.01171875 c 2
 198.768554688 502.25390625 l 1
 198.01171875 527.243164062 l 1
214.068359375 791 m 1
 239.068359375 790.931640625 l 1
 239 765.931640625 l 1
 239.002929688 766.931640625 240 765.931640625 239 765.931640625 c 1
 237.069335938 60.1748046875 l 1
 787.826171875 63.9990234375 l 1
 812.826171875 64.1728515625 l 1
 812.999023438 39.173828125 l 1
 813.172851562 14.173828125 l 1
 788.173828125 14.0009765625 l 1
 212.173828125 10.0009765625 l 1
 186.930664062 9.8251953125 l 1
 187 35.068359375 l 1
 189 766.068359375 l 1
 188 766.068359375 189.002929688 767.068359375 189 766.068359375 c 1
 189.068359375 791.068359375 l 1
 214.068359375 791 l 1
EndSplineSet
EndChar

StartChar: H
Encoding: 72 72 9
Width: 1000
VWidth: 0
Flags: HW
LayerCount: 2
Fore
SplineSet
786.160699907 760.319448839 m 1
 797.480148746 738.02886612 l 1
 775.189566027 726.709417281 l 2
 627.274223817 651.596075931 495.352982552 587.823793113 514.950478043 505.488860759 c 0
 530.675759389 439.420402314 799.318703957 499.698037455 811.449751673 361.534752423 c 0
 826.252606766 200.130087296 671.081202604 130.063136982 543.356813461 45.0861594293 c 2
 522.542582265 31.2381350312 l 1
 508.694557867 52.0523662269 l 1
 494.846533469 72.8665974226 l 1
 515.660764664 86.7146218207 l 2
 655.771758615 179.932595832 772.761030789 235.912879178 761.654286241 357.016569864 c 0
 754.336232403 440.363563624 502.430765653 342.150151463 466.309287582 493.911529866 c 0
 433.570845573 631.455503762 623.985541808 706.003533444 752.550668348 771.290582719 c 2
 774.841251068 782.610031559 l 1
 786.160699907 760.319448839 l 1
486.281793657 718.019644152 m 1
 497.601242496 695.729061432 l 1
 475.310659777 684.409612593 l 2
 327.395305075 609.2962649 195.474036024 545.524157637 215.071620919 463.188849669 c 0
 230.796349846 397.120222954 499.438795038 457.398530101 511.569861367 319.235033078 c 0
 526.373826907 157.830423185 371.202233891 87.7632907366 243.477907211 2.78635474177 c 1
 244.477907211 2.78635474177 244.310476458 3.3402757177 243.477907211 2.78635474177 c 1
 222.663676015 -11.0616696563 l 1
 208.815651617 9.75256153938 l 1
 194.967627219 30.5667927351 l 1
 215.781858414 44.4148171332 l 2
 355.892903601 137.632825233 472.881990898 193.61300972 461.774419077 314.716594552 c 0
 454.456366803 398.063570506 202.550421546 299.850670039 166.430332206 451.611931581 c 0
 133.691979601 589.155529863 324.10664805 663.7037351 452.671762098 728.990778032 c 2
 474.962344818 740.310226871 l 1
 486.281793657 718.019644152 l 1
EndSplineSet
EndChar

StartChar: Z
Encoding: 90 90 10
Width: 1000
VWidth: 0
Flags: H
LayerCount: 2
Fore
SplineSet
669.722912083 758.204847433 m 1
 689.927759516 743.48193535 l 1
 675.204847433 723.277087917 l 2
 580.911974879 593.875167072 530.117761117 520.910063772 534.985935934 375.838454226 c 0
 539.671404226 236.21149914 605.8 172.6 700 47 c 2
 715 27 l 1
 695 12 l 1
 675 -3 l 1
 660 17 l 2
 568.32 139.24 490.189803983 215.7839043 485.014064066 374.161545774 c 0
 479.755103937 535.085725723 541.088025121 624.124832928 634.795152567 752.722912083 c 2
 649.51806465 772.927759516 l 1
 669.722912083 758.204847433 l 1
855.765625 395.525390625 m 5
 141.234146483 2.0201809144 l 1
 133.162824627 16.6020717818 125.091502771 31.1839626493 117.020180914 45.7658535167 c 1
 329.424876799 163.335425245 541.829572684 280.904996973 754.234268568 398.474568701 c 1
 137.843548784 754.871098624 l 1
 146.186065397 769.299549488 154.528582011 783.728000352 162.871098624 798.156451216 c 1
 162.871098624 798.156451216 632.014648438 524.897460938 855.765625 395.525390625 c 5
EndSplineSet
EndChar

StartChar: Y
Encoding: 89 89 11
Width: 1000
VWidth: 0
Flags: H
LayerCount: 2
Fore
SplineSet
312.860351562 574.19921875 m 1
 295.719726562 592.3984375 l 1
 313.918945312 609.5390625 l 1
 490.859876199 792.199344935 l 1
 506.60711361 807.030076466 l 1
 523.54705359 793.577771187 l 1
 712.516601562 613.702148438 l 1
 732.09375 598.155273438 l 1
 716.546875 578.578125 l 1
 701 559 l 1
 681.421875 574.546875 l 1
 509.39288639 740.969923534 l 1
 348.19921875 573.139648438 l 1
 330 556 l 1
 312.860351562 574.19921875 l 1
507.576338353 633.003590042 m 0
 362.406299412 635.464025471 245.745945798 490.340588989 241.992475828 337.38668771 c 0
 238.414590536 191.572090508 356.766236563 49.6881055001 499.471614174 46.9955512056 c 0
 662.407854969 43.9209771912 792.381731453 171.866330363 797.009968818 335.705933084 c 0
 801.604439318 498.350188797 671.195135166 630.230390096 507.576338353 633.003590042 c 0
508.423661528 682.99640996 m 0
 698.804866502 679.769609876 852.395560682 525.649811203 846.990031182 334.294066916 c 0
 841.618268547 144.133669637 689.580426281 -6.60066469118 498.528385826 -2.99555120559 c 0
 323.233763437 0.311894499868 187.831503214 168.422050117 192.007524172 338.61331229 c 0
 196.254054202 511.659411011 327.585886364 686.061365183 508.423661528 682.99640996 c 0
EndSplineSet
EndChar

StartChar: C
Encoding: 67 67 12
Width: 1000
VWidth: 0
Flags: H
LayerCount: 2
Fore
SplineSet
480.741210938 719.614257812 m 0
 484.033203125 696.567382812 496.318359375 687.451171875 504.296875 688.020507812 c 0
 519.625 689.009765625 531.490234375 703.685546875 529.198242188 720.875976562 c 0
 526.5234375 742.271484375 510.733398438 755.76953125 492.984375 754.15625 c 0
 487.359375 753.768554688 477.243164062 744.094726562 480.741210938 719.614257812 c 0
431.243164062 712.54296875 m 0
 426.740234375 744.0625 436.625 800.388671875 489 804 c 0
 537.250976562 808.38671875 573.4609375 769.884765625 578.786132812 727.28125 c 0
 584.494140625 684.470703125 554.359375 641.146484375 507.6875 638.135742188 c 0
 459.666015625 634.706054688 435.951171875 679.588867188 431.243164062 712.54296875 c 0
476.8984375 640.405273438 m 1
 498.1328125 673.831054688 l 1
 519.177734375 640.286132812 l 1
 886.177556009 41.2857488122 l 1
 910.23460379 2.93868354817 l 1
 864.966124692 3.00002295074 l 1
 126.966124692 4.00002295074 l 1
 81.5391472489 4.06157712072 l 1
 105.898054216 42.4055169281 l 1
 476.8984375 640.405273438 l 1
497.8671875 580.168945312 m 1
 172.460852751 53.9384228793 l 1
 819.76539621 53.0613164518 l 1
 497.8671875 580.168945312 l 1
EndSplineSet
EndChar

StartChar: L
Encoding: 76 76 13
Width: 1000
VWidth: 0
Flags: H
LayerCount: 2
Fore
SplineSet
466.963684808 396.544991826 m 1
 465.742896198 312.015699148 468.227283993 229.082755091 482.704067296 135.835239108 c 0
 494.386282333 60.5861559835 590.733950838 47.1008328009 705.458726136 44.9957910523 c 0
 801.659843792 43.2302951365 825.202019131 62.3768267963 906.353285532 127.498213414 c 2
 925.851498946 143.144927883 l 1
 941.498213414 123.646714468 l 1
 957.144927883 104.148501054 l 1
 937.646714468 88.5017865857 l 2
 856.797980869 23.6231732037 812.463203083 -6.97638888646 704.541273864 -4.99579105233 c 0
 601.266049162 -3.10083280092 452.760202042 2.78884401649 433.295932704 128.164760892 c 0
 418.920510294 220.759393474 415.969313645 303.474844937 416.822306921 385.572212014 c 1
 122.220384642 542.949134665 l 1
 83.9517742607 563.392301123 l 1
 120.829450738 586.249391336 l 1
 433.829450738 780.249391336 l 1
 470.581393365 803.028550664 l 1
 471.986790832 759.812578564 l 2
 476.29060865 627.47018066 469.43338498 519.290884233 467.294368433 415.297055875 c 1
 467 409 l 1
 466.963684808 396.544991826 l 1
417.905164118 441.680865346 m 1
 420.185851928 527.373681089 424.594487762 612.515112708 423.05166536 714.744016086 c 1
 184.048225739 566.607698877 l 1
 417.905164118 441.680865346 l 1
EndSplineSet
EndChar

StartChar: G
Encoding: 71 71 14
Width: 1000
VWidth: 0
Flags: H
LayerCount: 2
Fore
SplineSet
96.5952005218 288.408771837 m 2
 215.278569945 314.688660781 331.116954281 353.556603914 440.403164902 381.135172625 c 0
 445.35707824 382.385301425 463.014648438 388.873046875 466 393 c 0
 470.387695312 399.065429688 495.482421875 414.309570312 500 420 c 0
 504.517578125 425.690429688 497.176757812 422.325195312 502 428 c 1
 489.801757812 423.499023438 459.611275006 419.719139715 447 418 c 0
 252.866210937 391.536132812 211.512559357 638.166244015 156.725670038 777.87281178 c 2
 147.598481817 801.147141742 l 1
 170.87281178 810.274329962 l 1
 194.147141742 819.401518183 l 1
 203.274329962 796.12718822 l 2
 268.487440643 629.833755985 300.391117983 440.927369232 438.623278917 459.770905408 c 0
 504.116237325 468.698776626 589.115234375 531.583984375 645 613 c 0
 692.172851562 681.723632812 713.85319147 763.087204974 724.474089873 785.846246366 c 1
 724.474089873 785.846246366 775.617854323 808.038118537 775.715920624 783.337916478 c 0
 775.793845864 763.710693191 773.353597102 772.375367599 769.920658312 764.997419894 c 0
 768.431365187 761.583951245 766.424724243 756.927492887 764.02078008 751.250964944 c 0
 722.366847654 652.891895317 680.950615635 583.487966413 641.981077194 529.967026814 c 0
 601.781611168 474.756899133 564.359616814 436.571809037 533.337355454 401.557797366 c 1
 642.358341847 421.06015815 746.217916383 421.108359185 835.664383188 368.55489268 c 0
 911.441928609 324.032477908 893.863336169 224.78736009 851.008539842 152.035839717 c 0
 822.676198139 103.938051109 780.078010681 59.3805399063 728.788877264 31.9540848943 c 0
 627.57730493 -22.1679961471 443.670903386 -17.298878445 389.759192083 84.4060656616 c 0
 379.398359784 103.951872026 374.775052932 126.80479801 377.112421594 151.368214751 c 0
 384.163202097 225.464895596 398.591677301 279.721115383 419.268040749 323.952618208 c 1
 321.820156603 297.772088364 216.551872501 263.759508618 107.404799478 239.591228163 c 2
 82.996027641 234.186428685 l 1
 77.5912281628 258.595200522 l 1
 72.1864286846 283.003972359 l 1
 96.5952005218 288.408771837 l 2
96.5952005218 288.408771837 m 1
 97.5715513953 288.624963816 95.5952005218 288.408771837 96.5952005218 288.408771837 c 1
485.600851881 340.63786838 m 0
 483.445370905 337.302851408 481.260390632 333.801778744 479.27673356 330.480994922 c 0
 453.857581705 287.92751658 435.28793533 234.911170175 426.887578406 146.631785249 c 0
 425.402096664 131.020851612 428.199134762 118.646862945 433.936382827 107.823491181 c 0
 466.09574121 47.1545628943 616.329481786 28.5171665287 705.211122736 76.0459151057 c 0
 746.750382789 98.2587031014 783.809402558 136.46990002 807.927308624 177.413142898 c 0
 848.558409634 246.389654893 845.535257149 304.763875455 810.335616812 325.44510732 c 0
 727.677749501 374.009993292 625.669239108 370.904834311 505.837256629 345.153679783 c 0
 499.303555433 343.749627662 492.391664354 342.204136791 485.600851881 340.63786838 c 0
EndSplineSet
EndChar

StartChar: Q
Encoding: 81 81 15
Width: 1000
VWidth: 0
Flags: H
LayerCount: 2
Fore
SplineSet
522.402063832 509.564994874 m 1
 516.967058706 485.162931041 l 1
 492.564994874 490.597936168 l 1
 302.60981353 532.906135649 l 1
 295.998011762 8.68470976156 l 1
 295.682721524 -16.3133020007 l 1
 270.684709762 -15.9980117622 l 1
 245.686697999 -15.6827215238 l 1
 246.001988238 9.31529023844 l 1
 246.014599847 10.3152107089 245.001988238 9.31529023844 246.001988238 9.31529023844 c 1
 253.001988238 564.315290238 l 1
 253.39018647 595.093864351 l 1
 283.435005126 588.402063832 l 1
 503.435005126 539.402063832 l 1
 527.837068959 533.967058706 l 1
 522.402063832 509.564994874 l 1
746.697265625 806.998046875 m 1
 771.6953125 807.30078125 l 1
 771.998046875 782.302734375 l 1
 776.998168098 343.30264126 l 1
 777.330919705 315.817358573 l 1
 749.937339853 318.085236643 l 1
 290.937339853 356.085236643 l 1
 266.022576496 358.147896791 l 1
 268.085236643 383.062660147 l 1
 270.147896791 407.977423504 l 1
 295.062660147 405.914763357 l 1
 726.669080295 370.182641427 l 1
 722.001953125 781.697265625 l 1
 721.69921875 806.6953125 l 1
 746.697265625 806.998046875 l 1
EndSplineSet
EndChar

StartChar: D
Encoding: 68 68 16
Width: 1000
VWidth: 0
Flags: HW
LayerCount: 2
Fore
SplineSet
815.75789351 778.408472174 m 1
 835.166365684 762.650578663 l 1
 819.408472174 743.24210649 l 1
 219.408472174 4.2421064896 l 1
 203.650578663 -15.166365684 l 1
 184.24210649 0.59152782636 l 1
 164.833634316 16.3494213368 l 1
 180.591527826 35.7578935104 l 1
 780.591527826 774.75789351 l 1
 796.349421337 794.166365684 l 1
 815.75789351 778.408472174 l 1
184.24210649 778.408472174 m 1
 203.650578663 794.166365684 l 1
 219.408472174 774.75789351 l 1
 819.408472174 35.7578935104 l 1
 835.166365684 16.3494213368 l 1
 815.75789351 0.59152782636 l 1
 796.349421337 -15.166365684 l 1
 780.591527826 4.2421064896 l 1
 180.591527826 743.24210649 l 1
 164.833634316 762.650578663 l 1
 184.24210649 778.408472174 l 1
EndSplineSet
EndChar

StartChar: B
Encoding: 66 66 17
Width: 1000
VWidth: 0
Flags: HW
LayerCount: 2
Fore
SplineSet
384.622169882 586.770754201 m 1
 409.392924083 590.148584319 l 1
 412.770754201 565.377830118 l 2
 423.678351539 485.388782977 429.151061435 436.283897583 462.36267807 439.860533221 c 0
 500.980038322 443.895182799 501.563369818 519.422021092 499.219302483 580.304093002 c 2
 499 586 l 1
 548.544496265 581.750547664 l 2
 555.415400342 581.161227324 559.727011741 519.06175758 563.335429208 503.725983343 c 0
 586.332776236 405.987258475 584.549087107 338.297580805 523.273731281 253.372087642 c 0
 511.28615672 236.757764326 492.07099051 231.323261987 476.019358153 232.459393744 c 0
 435.672273676 235.315153393 380.968302082 275.408226357 385.096753749 322.197345257 c 2
 387.294099007 347.100591508 l 1
 412.197345257 344.903246251 l 1
 437.100591508 342.705900993 l 1
 434.910061756 317.879897135 l 2
 435.49318251 309.662940936 466.64767477 281.04251909 481.576218742 282.331973935 c 0
 482.151530293 282.381666542 482.457322264 282.458877331 482.641990435 282.515740671 c 0
 482.66151041 282.541287966 482.69229825 282.580830479 482.726268719 282.627912358 c 0
 521.652538983 336.57835711 533.583007812 404.440429688 529 457 c 1
 517.467773438 438.364257812 494.214323815 393.001732493 467.597800541 390.135337679 c 0
 370.881762201 379.719764319 370.321622959 506.611404038 363.229245799 558.622169882 c 2
 359.851415681 583.392924083 l 1
 384.622169882 586.770754201 l 1
776.336558609 662.519201987 m 1
 755.855760596 648.182643378 l 1
 741.519201987 668.663441391 l 2
 720.229859647 699.076787591 686.465662326 744.059424837 669.405273438 743.025390625 c 0
 471 731 360.47265625 747.2265625 251 635 c 0
 167.681640625 549.584960938 185.1171875 512.987304688 185.999023438 397.190429688 c 0
 186.909179688 277.70703125 174.245117188 191.046875 259.7734375 104.581054688 c 0
 367.806640625 -4.6357421875 509.822397913 63.2839512396 752.705150356 75.7236170519 c 1
 759.521126798 88.5279725082 764.13719703 125.696602044 767.36970613 144.283529369 c 2
 771.653235498 168.913823239 l 1
 796.283529369 164.63029387 l 1
 820.913823239 160.346764502 l 1
 816.63029387 135.716470631 l 2
 815.395021288 128.613653281 817.855543991 28.7161252655 760.163990534 26.0271121807 c 0
 534.076842802 15.489151905 360.739257812 -68.58984375 224.2265625 69.4189453125 c 0
 121.827148438 172.939453125 136.854492188 284.740234375 136.000976562 396.809570312 c 0
 135.141601562 509.581054688 115.609375 567.80859375 215.208007812 669.913085938 c 0
 350.64453125 808.756835938 485 785 671 793 c 0
 721.890985446 795.188859589 761.770140353 726.923212409 782.480798013 697.336558609 c 2
 796.817356622 676.855760596 l 1
 776.336558609 662.519201987 l 1
EndSplineSet
EndChar

StartChar: A
Encoding: 65 65 18
Width: 1000
VWidth: 0
Flags: H
LayerCount: 2
Fore
SplineSet
481.444927254 495.575594047 m 1
 500.809541367 519.887760667 l 1
 520.405441785 495.761625205 l 1
 892.405441785 37.7616252055 l 1
 925.571172046 -3.07145129855 l 1
 872.96603264 -2.99997692436 l 1
 136.96603264 -1.99997692436 l 1
 85.1825694124 -1.92961895802 l 1
 117.444927254 38.5755940469 l 1
 481.444927254 495.575594047 l 1
501.190458633 440.112239333 m 1
 188.817430588 47.929618958 l 1
 820.428827954 47.0714512986 l 1
 501.190458633 440.112239333 l 1
168.181472024 579.536418273 m 1
 146.717890298 592.354946249 l 1
 159.536418273 613.818527976 l 2
 199.053285102 679.986304992 236.541969613 776.252292159 341.537510129 773.994220989 c 0
 464.683988158 771.345909634 449.846821869 616.147204274 496.617095869 614.992382693 c 0
 532.117507737 614.115829314 567.616075461 773.499924562 661.208392986 768.97077865 c 0
 756.527590159 764.358065089 800.257907082 680.614796922 849.068596199 614.908100033 c 2
 863.976696232 594.839503835 l 1
 843.908100033 579.931403801 l 1
 823.839503835 565.023303768 l 1
 808.931403801 585.091899967 l 2
 753.742092918 659.385203078 721.402097341 715.999356786 658.791607014 719.02922135 c 0
 628.383955585 720.500717022 593.901333512 562.575063495 495.382904131 565.007617307 c 0
 380.153178131 567.852795726 403.316011842 722.654090366 340.462489871 724.005779011 c 0
 273.452171012 725.446926591 248.946714898 666.013695008 202.463581727 588.181472024 c 2
 189.645053751 566.717890298 l 1
 168.181472024 579.536418273 l 1
EndSplineSet
EndChar

StartChar: E
Encoding: 69 69 19
Width: 1000
VWidth: 0
Flags: H
LayerCount: 2
Fore
SplineSet
644.433112953 191.602202568 m 1
 647.142988335 185.68974719 l 1
 642.591710439 183.603744821 l 2
 641.384238524 178.816772221 640.019638495 174.08981707 638.586724767 169.598002979 c 0
 626.964040129 133.163891408 610.003307046 104.30547431 600.19043181 66.6894525713 c 2
 593.879884381 42.4990207614 l 1
 569.689452571 48.8095681901 l 1
 545.499020761 55.1201156188 l 1
 551.80956819 79.3105474287 l 2
 558.948709876 106.677257224 568.712966633 129.136623144 577.123908061 149.030103397 c 1
 549.994621793 133.769261659 504.129454618 112.130991645 470.501903981 153.351860167 c 0
 420.949042042 216.118818624 499.58650611 276.267628494 535.753903842 299.203051446 c 0
 544.859154326 304.806282513 554.171389252 307.786717832 563.73681278 309.126013579 c 0
 596.153885582 313.664866212 641.011586803 297.572423358 646.791375453 254.224008482 c 0
 649.734914538 231.002755701 648.366801777 210.439680052 644.433112953 191.602202568 c 1
597.894841194 218.022987747 m 0
 598.649603738 227.146184675 598.544739985 237.235525284 597.208624547 247.775991518 c 0
 596.676486592 251.767026183 586.666752412 261.848811088 570.669897803 259.609023242 c 0
 567.287410512 259.135426769 564.113322738 257.946011065 562.246096158 256.796948554 c 0
 516.767675946 227.956974761 499.052040044 198.346788294 509.502585827 184.64121877 c 0
 519.675438335 172.588640988 533.21431142 183.235894073 587.430627103 212.601808245 c 0
 590.681430349 214.362584644 594.332857604 216.261692184 597.894841194 218.022987747 c 0
250.774181267 411.381980331 m 1
 249.376649922 287.942491363 284.785958716 176.55242266 289.986760119 16.8135224225 c 1
 288.986760119 16.8135224225 290.019301016 15.8140520177 289.986760119 16.8135224225 c 1
 290.800282542 -8.17323769698 l 1
 265.813522422 -8.98676011947 l 1
 240.826762303 -9.80028254197 l 1
 240.013239881 15.1864775775 l 2
 234.733176874 177.359841346 194.186726071 292.505637443 201.60072464 438.239786968 c 0
 203.763973825 480.761953276 210.149116714 525.544432601 222.80825147 574.305544252 c 0
 251.684891915 684.655563095 333.589976687 803.399359976 462.355435732 780.617680223 c 0
 478.155592989 777.822267786 494.857482672 774.074410231 512.050509501 769.412970007 c 0
 635.679311269 735.894249005 820.255522089 644.950533223 780.123188064 497.43708924 c 0
 724.785082425 294.03168299 416.355998177 395.307579766 250.774181267 411.381980331 c 1
253.384789604 461.358759714 m 1
 453.689386307 442.576052013 692.918614252 367.364875063 731.876811936 510.56291076 c 0
 757.206016373 603.664851392 628.492286365 686.037703658 498.96667302 721.155191122 c 0
 483.139558748 725.446299828 467.844407011 728.870039907 453.644564268 731.382319777 c 0
 366.446568571 746.809724205 298.320217536 665.363962304 271.185624091 561.67105164 c 0
 262.010761613 526.330840616 256.368311407 492.920659299 253.384789604 461.358759714 c 1
172.002743033 10.3703297328 m 1
 172.373072766 35.3675867001 l 1
 197.370329733 34.9972569673 l 1
 332.370329733 32.9972569673 l 1
 357.3675867 32.6269272344 l 1
 356.997256967 7.62967026715 l 1
 356.626927234 -17.3675867001 l 1
 331.629670267 -16.9972569673 l 1
 196.629670267 -14.9972569673 l 1
 171.6324133 -14.6269272344 l 1
 172.002743033 10.3703297328 l 1
EndSplineSet
EndChar

StartChar: I
Encoding: 73 73 20
Width: 1000
VWidth: 0
Flags: HW
LayerCount: 2
Fore
SplineSet
862.649515013 620.05505455 m 1
 841.704569562 606.405539537 l 1
 828.05505455 627.350484987 l 2
 826.332463386 629.993771428 824.562820995 632.621946231 822.74873255 635.230759859 c 0
 765.09453304 718.142407175 677.264628571 765.085473169 616.31771097 722.506021553 c 0
 482.31608079 628.888444304 417.832352395 377.086700914 457.315800191 211.80877449 c 0
 467.615206367 168.694981195 488.890392371 131.770928923 517.246360828 103.426157571 c 0
 595.491677375 25.2117382603 729.138078574 9.81174468853 842.269324323 123.624503966 c 2
 859.893828289 141.355179643 l 1
 877.624503966 123.730675677 l 1
 895.355179643 106.106171711 l 1
 877.730675677 88.375496034 l 2
 746.604778568 -43.5403161171 579.701383849 -29.7009219338 481.898004333 68.0638373267 c 0
 447.013179058 102.934887404 421.113365062 148.162161662 408.684199809 200.19122551 c 0
 365.26725698 381.934783461 429.68391921 653.111555696 587.68228903 763.493978447 c 0
 687.424989687 833.177395818 803.355958332 750.699024621 863.79943896 663.776153589 c 0
 865.898225459 660.757919922 867.947419996 657.714683383 869.94494545 654.649515013 c 2
 883.594460463 633.704569562 l 1
 862.649515013 620.05505455 l 1
120.60029067 578.265751698 m 1
 97.8660423683 588.665461028 l 1
 108.265751698 611.39970933 l 2
 122.903775996 643.399111284 146.355059661 678.475814703 175.097887709 710.089851058 c 0
 235.58591081 776.620206323 337.224991742 842.995467328 418.870242375 768.449803706 c 0
 602.307268221 600.470954195 668.963654232 406.927065703 597.981377489 165.936464501 c 0
 578.270402628 99.0158227249 544.803317037 50.7141417156 501.832032935 21.769074919 c 0
 386.110568474 -56.1798528038 227.197884874 15.0161952713 132.261485703 156.038838703 c 2
 118.300324406 176.777353 l 1
 139.038838703 190.738514297 l 1
 159.777353 204.699675594 l 1
 173.738514297 183.961161297 l 2
 261.971105471 52.8966449172 392.879196312 8.66468719495 473.898546789 63.2385860297 c 0
 505.196027673 84.3202849752 532.733549941 121.379063639 550.018622511 180.063535499 c 0
 615.712868257 403.100841489 557.704597054 573.518180412 385.116267413 731.56254969 c 0
 339.738620477 772.994314284 272.364190575 742.745993637 212.093263354 676.454420619 c 0
 186.702763468 648.527586657 165.715271623 616.791364907 153.734248302 590.60029067 c 2
 143.334538972 567.866042368 l 1
 120.60029067 578.265751698 l 1
EndSplineSet
EndChar

StartChar: U
Encoding: 85 85 21
Width: 1000
VWidth: 0
Flags: H
LayerCount: 2
Fore
SplineSet
147.137363677 778.617119613 m 1
 149.75448329 803.479755936 l 1
 174.617119613 800.862636323 l 2
 309.684668799 786.644999567 381.081269068 766.956795339 512.400190859 764.996811432 c 0
 626.303315382 763.049749474 690.522149132 780.708425738 809.871009993 790.909183077 c 2
 872.025576602 796.221539197 l 1
 830.742173824 749.455184487 l 2
 710.99469754 613.803746509 602.892896047 561.64773578 528.892550401 428.425455441 c 1
 583.962983623 421.057264988 642.681895506 415.475783498 710.97670488 412.980995941 c 0
 776.22019549 410.262517166 806.679011544 430.997428653 879.715233091 460.211917272 c 2
 902.927150363 469.496684181 l 1
 912.211917272 446.284766909 l 1
 921.496684181 423.072849637 l 1
 898.284766909 413.788082728 l 2
 831.320988456 387.002571347 787.77980451 359.737482834 709.02329512 363.019004059 c 0
 632.264872271 365.822964711 566.804652415 372.478688081 505.679542069 381.15971793 c 1
 454.062926266 260.703736167 501.489257812 188.133789062 511.938476562 39.755859375 c 2
 517.865234375 -44.412109375 l 1
 457 19 l 1
 134.04362544 449.942008287 l 1
 97.7733499283 498.011048122 l 1
 157.423658301 489.764461711 l 2
 284.311194952 472.222405953 378.345518469 451.650192344 476.357339011 436.132043832 c 1
 547.715187984 575.185436019 646.518280904 634.085412907 747.492744793 734.130007665 c 1
 670.57326269 724.816784033 606.330050143 713.383868209 511.572711996 715.003651767 c 0
 374.954409255 717.042730913 300.297777247 737.356848218 169.382880387 751.137363677 c 2
 144.520244064 753.75448329 l 1
 147.137363677 778.617119613 l 1
454.849486088 388.946859449 m 1
 376.37003369 401.765007721 302.328892072 416.972982027 210.704245566 431.355993994 c 1
 460 94 l 1
 445.404296875 181.920898438 415.350862089 287.332807922 454.849486088 388.946859449 c 1
EndSplineSet
EndChar

StartChar: R
Encoding: 82 82 22
Width: 1000
VWidth: 0
Flags: H
LayerCount: 2
Fore
SplineSet
583.432952358 781.342317749 m 1
 591.775270107 804.909365392 l 1
 615.342317749 796.567047642 l 2
 720.457441126 759.358154412 884.626933667 725.515929485 886.996409851 577.423667964 c 0
 889.143713811 450.732734339 644.400697361 419.867660337 637.09988058 408.10198076 c 1
 647.227369802 389.065933018 886 333.966120306 886 202 c 0
 886 67.9926628624 711.37445674 34.5470405602 617.836885028 7.95302507357 c 2
 593.789910102 1.11614004546 l 1
 586.953025074 25.1631149719 l 1
 580.116140045 49.2100898983 l 1
 604.163114972 56.0469749264 l 1
 605.124993969 56.3204503276 603.163114972 56.0469749264 604.163114972 56.0469749264 c 1
 714.62554326 87.4529594398 836 120.007337138 836 202 c 0
 836 297.495064043 587 304.861795928 587 408 c 0
 587 517.211062284 838.517256093 487.270041336 837.003590149 576.576332036 c 0
 835.373066333 678.484070515 719.542558874 706.641845588 598.657682251 749.432952358 c 2
 575.090634608 757.775270107 l 1
 583.432952358 781.342317749 l 1
415.243932565 785.410848524 m 1
 426.654781089 763.166915958 l 1
 404.410848524 751.756067435 l 2
 250.728526497 672.91903211 125.264283996 580.439835465 127.996884239 417.394687646 c 0
 130.781624255 241.027819958 246.407057615 138.343799788 416.493087005 59.6913006482 c 2
 439.184387653 49.1982136432 l 1
 428.691300648 26.5069129951 l 1
 418.198213643 3.81561234686 l 1
 395.506912995 14.3086993518 l 2
 219.592942385 95.6562002117 81.2183757448 212.972180042 78.0031157609 416.605312354 c 0
 74.7357160037 611.560164535 227.271473503 717.080967891 381.589151476 796.243932565 c 2
 403.833084042 807.654781089 l 1
 415.243932565 785.410848524 l 1
EndSplineSet
EndChar

StartChar: O
Encoding: 79 79 23
Width: 1000
VWidth: 0
Flags: H
LayerCount: 2
Fore
SplineSet
468.955078125 245.333007812 m 0
 472.247070312 222.286132812 484.532226562 213.169921875 492.510742188 213.739257812 c 0
 507.838867188 214.728515625 519.704101562 229.404296875 517.412109375 246.594726562 c 0
 514.737304688 267.990234375 498.947265625 281.48828125 481.198242188 279.875 c 0
 475.573242188 279.487304688 465.45703125 269.813476562 468.955078125 245.333007812 c 0
419.45703125 238.26171875 m 0
 414.954101562 269.78125 424.838867188 326.107421875 477.213867188 329.71875 c 0
 525.46484375 334.10546875 561.674804688 295.603515625 567 253 c 0
 572.708007812 210.189453125 542.573242188 166.865234375 495.901367188 163.854492188 c 0
 447.879882812 160.424804688 424.165039062 205.307617188 419.45703125 238.26171875 c 0
188.554749223 -1.14707838489 m 1
 165.407670838 8.2981723923 l 1
 174.852921615 31.4452507772 l 1
 478.852921615 776.445250777 l 1
 502.371425217 834.0810573 l 1
 525.250251914 776.188350556 l 1
 821.250251914 27.1883505561 l 1
 830.43860247 3.93809864221 l 1
 807.188350556 -5.25025191387 l 1
 783.938098642 -14.43860247 l 1
 774.749748086 8.81164944392 l 1
 501.628574783 699.9189427 l 1
 221.147078385 12.5547492228 l 1
 211.701827608 -10.5923291621 l 1
 188.554749223 -1.14707838489 l 1
EndSplineSet
EndChar

StartChar: ltd01
Encoding: 256 -1 24
Width: 1000
VWidth: 0
Flags: HW
LayerCount: 2
Fore
SplineSet
808.014648438 536.193359375 m 5
 783.603515625 541.588867188 l 5
 759.193359375 546.985351562 l 5
 764.588867188 571.396484375 l 5
 790.688476562 689.46484375 l 5
 106.456054688 22.103515625 l 5
 88.55859375 4.6474609375 l 5
 71.103515625 22.5439453125 l 5
 53.6474609375 40.44140625 l 5
 71.5439453125 57.896484375 l 5
 735.037109375 705.029296875 l 5
 611.116210938 673.759765625 l 5
 598.78515625 722.21484375 l 5
 629.82421875 730.180664062 l 5
 873 792 l 5
 808.014648438 536.193359375 l 5
EndSplineSet
EndChar

StartChar: V
Encoding: 86 86 25
Width: 1000
VWidth: 0
Flags: HW
LayerCount: 2
Fore
SplineSet
683.429251381 783 m 1
 673.663596276 770.561639287 l 2
 579.24225005 650.298661463 484.556385082 488.631649813 486.982440393 423.936841515 c 0
 489.712428749 351.141893115 544.168452701 160.620331267 685.982728727 29.346305486 c 2
 694 21.9249124833 l 1
 675 -16.6841030461 l 1
 662.184935689 -13.0531681579 l 2
 413.93623747 57.283963004 285.089510534 223.567951864 277.020440006 422.989266359 c 0
 269.305492947 613.658672229 432.383748348 742.873759313 646.536686695 809.859986474 c 2
 658 813.445667412 l 1
 683.429251381 783 l 1
583.968817784 733.993798645 m 1
 419.522458842 664.85618449 321.514171742 560.083900445 326.979559994 425.010733641 c 0
 333.108090801 273.548472275 415.10747103 144.635225369 582.157699773 68.9478242481 c 1
 479.872091207 200.417364613 439.760692925 348.917700622 437.017559607 422.063158485 c 0
 434.031180782 501.69992716 507.282037273 626.009398839 583.968817784 733.993798645 c 1
EndSplineSet
EndChar

StartChar: ltd02
Encoding: 257 -1 26
Width: 1000
VWidth: 0
Flags: HW
LayerCount: 2
Fore
SplineSet
226.38671875 581.861328125 m 1
 204.248046875 593.474609375 l 1
 215.861328125 615.61328125 l 1
 247.861328125 676.61328125 l 1
 254.8125 689.864257812 l 1
 269.774414062 689.999023438 l 1
 712.774414062 693.999023438 l 1
 725.374023438 694.112304688 l 1
 732.9609375 684.052734375 l 1
 778.9609375 623.052734375 l 1
 794.012695312 603.091796875 l 1
 774.052734375 588.0390625 l 1
 754.091796875 572.987304688 l 1
 739.0390625 592.947265625 l 1
 700.625976562 643.887695312 l 1
 285.1875 640.135742188 l 1
 260.138671875 592.38671875 l 1
 248.525390625 570.248046875 l 1
 226.38671875 581.861328125 l 1
504.374023438 714.330078125 m 1
 531.73046875 760.407226562 l 1
 473.158203125 759.626953125 l 1
 504.374023438 714.330078125 l 1
485.35546875 653.813476562 m 1
 405.415039062 769.813476562 l 1
 378.841796875 808.373046875 l 1
 425.666992188 808.998046875 l 1
 575.666992188 810.998046875 l 1
 620.26953125 811.592773438 l 1
 597.497070312 773.237304688 l 1
 527.4375 655.237304688 l 1
 506 653 l 1
 485.35546875 653.813476562 l 1
EndSplineSet
EndChar

StartChar: lt-KP
Encoding: 258 -1 27
Width: 950
VWidth: 0
Flags: HW
LayerCount: 2
Fore
SplineSet
661.777953365 162.310169238 m 1
 660.426058332 147.371214399 l 1
 642.995699305 148.945227602 l 1
 646.145357304 183.803378815 l 1
 663.116574951 182.270677163 l 1
 663.116575826 182.270683925 l 1
 867.004300695 163.854577085 l 1
 863.854577085 128.995699305 l 1
 661.42592082 147.280905287 l 1
 661.777953365 162.310169238 l 1
625.823056275 262.251407565 m 0
 638.273544185 274.217906578 l 1
 648.672311792 263.40746745 l 1024
625.656604273 262.091426065 m 1
 625.656604273 262.091426066 l 1
 624.844142172 261.310546875 l 1
 625.656604273 262.091426065 l 1
625.656604273 262.091426065 m 1
 638.27384808 274.218198643 l 2
 671.350283599 306.005275209 714.843362167 329.115235542 768.761335526 319.21250467 c 0
 783.967754832 316.419064548 800.307928202 310.467279935 815.264854038 302.188833516 c 0
 841.978612044 287.402602596 877.742491678 255.826449072 856.505756526 217.514969712 c 0
 831.982820227 173.279595603 787.971879023 164.283599798 754.785104637 141.228307357 c 0
 705.456099744 106.956897283 667.708623844 98.4796277197 669.479392711 61.6453064113 c 0
 669.515755738 60.8990738684 669.577034576 60.1818320828 669.66091458 59.4978287813 c 0
 672.320173686 37.8356752913 709.704739737 21.3026002269 748.237024998 26.1657490701 c 0
 784.809797429 30.6968968628 809.216044342 58.7705263018 833.887628522 95.3794395356 c 2
 843.666821532 109.892705359 l 1
 872.692510046 90.3331784683 l 1
 862.911920812 75.8203768319 l 2
 837.994520097 38.8454118632 806.364002789 -1.89969135488 752.569125673 -8.56497921274 c 0
 711.029169117 -13.8084061053 641.823936843 -0.997611840887 634.922348734 55.230561074 c 0
 634.730258301 56.7917122201 634.596297057 58.3723163446 634.520370848 59.9601644516 c 0
 631.343062197 126.050553117 699.436021288 145.39249258 734.815477948 169.971885626 c 0
 777.383393751 199.546051913 809.799423215 205.450412338 825.894604195 234.484976346 c 0
 830.366716572 242.552093517 825.092538643 256.746176286 798.316135218 271.566085514 c 0
 786.685696896 278.00375684 773.253987364 282.80095547 762.437985992 284.787476452 c 0
 722.632307222 292.099261069 691.083999571 276.426713539 662.525879748 248.981922808 c 2
 649.908573934 236.856799585 l 1
 625.656604273 262.091426065 l 1
808.014648438 536.193359375 m 5
 783.603515625 541.588867188 l 5
 759.193359375 546.985351562 l 5
 764.588867188 571.396484375 l 5
 790.688476562 689.46484375 l 5
 106.456054688 22.103515625 l 5
 88.55859375 4.6474609375 l 5
 71.103515625 22.5439453125 l 5
 53.6474609375 40.44140625 l 5
 71.5439453125 57.896484375 l 5
 735.037109375 705.029296875 l 5
 611.116210938 673.759765625 l 5
 598.78515625 722.21484375 l 5
 629.82421875 730.180664062 l 5
 873 792 l 5
 808.014648438 536.193359375 l 5
EndSplineSet
EndChar

StartChar: lt-TP
Encoding: 259 -1 28
Width: 900
VWidth: 0
Flags: HW
LayerCount: 2
Fore
SplineSet
296.611468138 332.074156095 m 1
 298.411289236 351.993283029 l 1
 299.086215856 359.462885991 l 1
 306.555815852 358.787926548 l 1
 326.473638923 356.988135024 l 1
 698.473751779 323.388515452 l 1
 718.392697091 321.588710764 l 1
 725.861936798 320.913816967 l 1
 725.187373427 313.444547412 l 1
 723.388515452 293.526248221 l 1
 721.588710764 273.607302909 l 1
 720.913816967 266.138063202 l 1
 713.444547412 266.812626573 l 1
 693.526487307 268.611462949 l 1
 321.526549385 302.21204328 l 1
 301.607666155 304.010865798 l 1
 294.138063203 304.685426206 l 1
 294.812623611 312.155029158 l 1
 296.611468138 332.074156095 l 1
268.313547218 530.119779145 m 0
 281.744437678 543.027659851 l 1
 292.143014917 532.217037762 l 1024
268.313547218 530.119948166 m 1
 281.744508432 543.027727849 l 2
 346.912567675 605.656449868 431.380215875 650.293832592 536.168362965 631.047502184 c 0
 565.657917101 625.631053465 597.680302686 613.9876407 626.898602144 597.814832748 c 0
 680.349670341 568.229770457 745.31719819 508.77788021 706.452096905 438.666429469 c 0
 659.124303115 353.291973744 573.795317633 336.208511476 505.28997409 288.615993388 c 0
 409.613130392 222.144651117 327.617994656 203.004004505 331.467865806 122.921621346 c 0
 331.547883687 121.261470146 331.686744454 119.64692174 331.87870124 118.080728878 c 0
 338.117334948 67.2551391561 419.808782027 35.0961186387 497.396193678 44.8884039563 c 0
 574.254074893 54.4107512295 624.592987694 113.261723927 673.995220106 186.568167951 c 2
 689.363362452 209.373980937 l 1
 734.973475936 178.636467831 l 1
 719.604252225 155.83104275 l 2
 669.816020167 81.9521720985 608.129041221 3.18711417039 504.198910055 -9.68901507411 c 0
 421.739490988 -20.0964381433 290.187944987 6.28393056096 277.288278531 111.38030979 c 0
 276.928698607 114.310104475 276.675475829 117.281896923 276.532089458 120.279503316 c 0
 270.472847664 246.317276499 400.144491189 282.536666407 473.910254372 333.784420267 c 0
 557.158015144 391.620011712 624.260889747 403.841608722 658.348612475 465.333440883 c 0
 670.891440526 487.960462894 653.680176276 520.128510552 600.264377406 549.694015201 c 0
 576.272051781 562.974228935 548.824296625 572.802151888 526.232042611 576.95249507 c 0
 443.621876691 592.125617762 377.920631416 559.175434899 319.855171697 503.371754211 c 2
 300.027524199 484.316211366 l 1
 261.916973139 523.972292841 l 1
 268.313547218 530.119948166 l 1
226.38671875 581.861328125 m 1
 204.248046875 593.474609375 l 1
 215.861328125 615.61328125 l 1
 247.861328125 676.61328125 l 1
 254.8125 689.864257812 l 1
 269.774414062 689.999023438 l 1
 712.774414062 693.999023438 l 1
 725.374023438 694.112304688 l 1
 732.9609375 684.052734375 l 1
 778.9609375 623.052734375 l 1
 794.012695312 603.091796875 l 1
 774.052734375 588.0390625 l 1
 754.091796875 572.987304688 l 1
 739.0390625 592.947265625 l 1
 700.625976562 643.887695312 l 1
 285.1875 640.135742188 l 1
 260.138671875 592.38671875 l 1
 248.525390625 570.248046875 l 1
 226.38671875 581.861328125 l 1
504.374023438 714.330078125 m 1
 531.73046875 760.407226562 l 1
 473.158203125 759.626953125 l 1
 504.374023438 714.330078125 l 1
485.35546875 653.813476562 m 1
 405.415039062 769.813476562 l 1
 378.841796875 808.373046875 l 1
 425.666992188 808.998046875 l 1
 575.666992188 810.998046875 l 1
 620.26953125 811.592773438 l 1
 597.497070312 773.237304688 l 1
 527.4375 655.237304688 l 1
 506 653 l 1
 485.35546875 653.813476562 l 1
EndSplineSet
EndChar

StartChar: lt-KT
Encoding: 260 -1 29
Width: 950
VWidth: 0
Flags: HW
LayerCount: 2
Fore
SplineSet
748.132448483 -11.4981475177 m 1
 738.133058927 -11.3448215913 l 1
 730.633929232 -11.2298334712 l 1
 730.748928581 -3.73070394819 l 1
 730.90224111 6.26683422447 l 1
 734.902237529 268.266599461 l 1
 735.054581279 278.265622899 l 1
 735.16883699 285.764752557 l 1
 742.667966649 285.650496846 l 1
 752.667722323 285.498141904 l 1
 762.66674576 285.344821591 l 1
 770.165875456 285.229833471 l 1
 770.050876107 277.730703948 l 1
 769.897563578 267.733165776 l 1
 765.897567158 5.73340053883 l 1
 765.745223408 -4.26562289867 l 1
 765.630967697 -11.764752557 l 1
 758.131838039 -11.6504968458 l 1
 748.132448483 -11.4981475177 l 1
637.070845046 226.102390715 m 1
 628.215089103 230.748049187 l 1
 621.573489853 234.232178833 l 1
 625.057619499 240.873778084 l 1
 629.703077557 249.729151988 l 1
 642.50295182 274.129675242 l 1
 645.283225257 279.429479929 l 1
 647.368251649 283.403992829 l 1
 651.856280871 283.444999459 l 1
 657.842455153 283.499694431 l 1
 835.042530145 285.099311487 l 1
 840.082569207 285.144233362 l 1
 843.861162461 285.177911969 l 1
 846.136834562 282.161255258 l 1
 849.172873569 278.136647327 l 1
 867.572010594 253.736624072 l 1
 873.593494969 245.752249072 l 1
 878.109768038 239.763755947 l 1
 872.120922795 235.247949816 l 1
 864.136547795 229.227442004 l 1
 856.152172795 223.206934191 l 1
 850.164613482 218.692097699 l 1
 845.648958092 224.679039446 l 1
 839.62699881 232.663067593 l 1
 826.537724726 250.020872586 l 1
 668.631510318 248.595510167 l 1
 660.697263313 233.470948478 l 1
 656.051755501 224.615479728 l 1
 652.567927159 217.974454839 l 1
 645.926601002 221.457708831 l 1
 637.070845046 226.102390715 l 1
737.966978018 257.269575389 m 1
 705.990382554 303.670013848 l 1
 695.361476304 319.093841973 l 1
 687.389983014 330.661442583 l 1
 701.437008797 330.848941337 l 1
 720.166634858 331.098943123 l 1
 780.166851231 331.898750691 l 1
 798.007671544 332.136055379 l 1
 811.387630945 332.314025171 l 1
 804.556478868 320.807924697 l 1
 795.447976115 305.465952124 l 1
 767.423616472 258.265848467 l 1
 759.451936784 244.839090655 l 1
 753.472927514 234.768602054 l 1
 746.827299642 244.412196959 l 1
 737.966978018 257.269575389 l 1
808.014648438 536.193359375 m 5
 783.603515625 541.588867188 l 5
 759.193359375 546.985351562 l 5
 764.588867188 571.396484375 l 5
 790.688476562 689.46484375 l 5
 106.456054688 22.103515625 l 5
 88.55859375 4.6474609375 l 5
 71.103515625 22.5439453125 l 5
 53.6474609375 40.44140625 l 5
 71.5439453125 57.896484375 l 5
 735.037109375 705.029296875 l 5
 611.116210938 673.759765625 l 5
 598.78515625 722.21484375 l 5
 629.82421875 730.180664062 l 5
 873 792 l 5
 808.014648438 536.193359375 l 5
EndSplineSet
EndChar

StartChar: lt-TK
Encoding: 261 -1 30
Width: 900
VWidth: 0
Flags: HW
LayerCount: 2
Fore
SplineSet
636.440242188 255.960510382 m 1
 651.516397675 284.742705657 l 1
 657.170096072 295.536296333 l 1
 664.259835117 285.626629057 l 1
 683.165089263 259.201851334 l 1
 823.964807222 62.4011913039 l 1
 846.068322847 31.5076366164 l 1
 854.357386293 19.9222110565 l 1
 840.114711037 19.6449751303 l 1
 802.136334091 18.9057200185 l 1
 555.735922745 14.1049383648 l 1
 521.94881337 13.4467352398 l 1
 509.278947908 13.199914923 l 1
 515.159010587 24.4253892557 l 1
 530.839672631 54.3609322785 l 1
 636.440242188 255.960510382 l 1
664.429545058 190.864234196 m 1
 601.120339427 70.000228999 l 1
 748.843196017 72.8774320316 l 1
 664.429545058 190.864234196 l 1
744.793507206 421.631818808 m 1
 725.264133159 425.948242116 l 1
 705.735812846 430.264648366 l 1
 698.412647758 431.883310649 l 1
 700.031232871 439.206492794 l 1
 704.34769178 458.736027904 l 1
 719.805920596 528.664974519 l 1
 190.401644201 12.3134490376 l 1
 176.083284826 -1.65139471237 l 1
 170.714112042 -6.88800437058 l 1
 165.477507018 -1.51882706723 l 1
 151.51364435 12.7985511113 l 1
 137.5488006 27.1169104863 l 1
 132.312190942 32.4860832701 l 1
 137.681368245 37.7226882944 l 1
 151.998657058 51.6864638018 l 1
 662.84045147 549.932331694 l 1
 590.727569653 531.735755976 l 1
 583.470101872 529.904445693 l 1
 581.624221201 537.158221295 l 1
 571.759963389 575.92189317 l 1
 569.914161194 583.175360384 l 1
 577.163828035 585.036033125 l 1
 602.011542161 591.413335402 l 1
 796.552557786 640.868413527 l 1
 808.774508766 643.975406356 l 1
 805.669493692 631.752952773 l 1
 753.681212442 427.108421523 l 1
 751.89138801 420.063030272 l 1
 744.793507206 421.631818808 l 1
226.38671875 581.861328125 m 1
 204.248046875 593.474609375 l 1
 215.861328125 615.61328125 l 1
 247.861328125 676.61328125 l 1
 254.8125 689.864257812 l 1
 269.774414062 689.999023438 l 1
 712.774414062 693.999023438 l 1
 725.374023438 694.112304688 l 1
 732.9609375 684.052734375 l 1
 778.9609375 623.052734375 l 1
 794.012695312 603.091796875 l 1
 774.052734375 588.0390625 l 1
 754.091796875 572.987304688 l 1
 739.0390625 592.947265625 l 1
 700.625976562 643.887695312 l 1
 285.1875 640.135742188 l 1
 260.138671875 592.38671875 l 1
 248.525390625 570.248046875 l 1
 226.38671875 581.861328125 l 1
504.374023438 714.330078125 m 1
 531.73046875 760.407226562 l 1
 473.158203125 759.626953125 l 1
 504.374023438 714.330078125 l 1
485.35546875 653.813476562 m 1
 405.415039062 769.813476562 l 1
 378.841796875 808.373046875 l 1
 425.666992188 808.998046875 l 1
 575.666992188 810.998046875 l 1
 620.26953125 811.592773438 l 1
 597.497070312 773.237304688 l 1
 527.4375 655.237304688 l 1
 506 653 l 1
 485.35546875 653.813476562 l 1
EndSplineSet
EndChar

StartChar: lt-KS
Encoding: 262 -1 31
Width: 950
VWidth: 0
Flags: HW
LayerCount: 2
Fore
SplineSet
879.324033891 149.674927652 m 0
 879.848945684 146.001712438 881.080284446 144.263740692 881.602971881 143.624180861 c 0
 882.983999945 144.212166269 884.16624172 145.741737956 883.843940101 148.15848524 c 0
 883.295428922 152.548578365 880.782064941 154.309736905 879.335767024 154.77719242 c 1
 879.0310566 153.095701457 878.98734501 152.032455173 879.324033891 149.674927652 c 0
844.675942254 144.72563002 m 0
 842.736162422 158.306192729 846.617512833 187.914902198 874.605589991 189.845744233 c 0
 898.522560428 192.01913418 916.027272134 172.868928388 918.556418181 152.641555484 c 0
 921.35124927 131.680322319 906.576407459 110.049260212 883.186294754 108.540654836 c 0
 857.97386563 106.739675482 846.761543888 130.124255091 844.675942254 144.72563002 c 0
617.252808752 122.495894795 m 2
 609.946289062 122.315614814 l 1
 609.946289488 122.316033229 l 1
 600.136076638 122.074539272 l 1
 599.273043664 157.06241011 l 1
 877.463532737 163.925460728 l 1
 878.326565711 128.93758989 l 1
 617.63085702 122.505222702 l 1
 617.630857551 122.505201067 l 2
 617.504841284 122.505201067 617.378825018 122.495894795 617.252808752 122.495894795 c 2
769.499023411 6.94617221006 m 1
 769.684881063 -10.5125112353 l 1
 734.687684077 -10.8850763756 l 1
 734.501401882 6.61348690094 l 1
 730.873951148 347.040874231 l 1
 875.118006053 216.425565586 l 1
 851.62645529 190.481637769 l 1
 766.725260339 267.360119879 l 1
 769.499023438 6.9461914758 l 1
 769.499023411 6.94617221006 l 1
808.014648438 536.193359375 m 5
 783.603515625 541.588867188 l 5
 759.193359375 546.985351562 l 5
 764.588867188 571.396484375 l 5
 790.688476562 689.46484375 l 5
 106.456054688 22.103515625 l 5
 88.55859375 4.6474609375 l 5
 71.103515625 22.5439453125 l 5
 53.6474609375 40.44140625 l 5
 71.5439453125 57.896484375 l 5
 735.037109375 705.029296875 l 5
 611.116210938 673.759765625 l 5
 598.78515625 722.21484375 l 5
 629.82421875 730.180664062 l 5
 873 792 l 5
 808.014648438 536.193359375 l 5
EndSplineSet
EndChar

StartChar: lt-TS
Encoding: 263 -1 32
Width: 900
VWidth: 0
Flags: HW
LayerCount: 2
Fore
SplineSet
751.223449558 298.289174186 m 0
 753.622342567 281.496033656 761.806013639 279.413378888 762.134895586 279.436877644 c 0
 769.730035635 279.926808634 776.44530799 287.386173169 775.126197991 297.277390954 c 0
 773.354719455 311.44841072 763.61148093 317.93825865 754.60510029 317.422248721 c 0
 753.433539681 316.565777695 749.290619913 311.818307064 751.223449558 298.289174186 c 0
696.776548172 290.510646393 m 0
 693.035357874 316.696950184 700.81328078 368.834954108 749.808605334 372.213902632 c 0
 793.025138076 376.143374098 825.0164582 341.577179812 829.673617915 304.323104354 c 0
 834.751528083 266.238778095 807.937014569 227.277830112 765.865102644 224.563122746 c 0
 721.443424126 221.390065052 700.744270543 262.733502873 696.776548172 290.510646393 c 0
227.393554692 252.318587564 m 1
 207.586628933 251.830041237 l 1
 206.230432085 306.813752665 l 1
 747.61356638 320.169958763 l 1
 748.969763451 265.186238308 l 1
 227.393554688 252.318544121 l 1
 227.393554692 252.318587564 l 1
531.498598211 13.8933403211 m 1
 531.711489159 -6.10571351541 l 1
 531.791322519 -13.6052886124 l 1
 524.291747422 -13.6851219719 l 1
 504.292907068 -13.898010648 l 1
 484.294066713 -14.1118758776 l 1
 476.794129348 -14.1920793194 l 1
 476.714292091 -6.69213804709 l 1
 476.501401723 13.3068612393 l 1
 470.101988006 614.106633429 l 1
 469.614683319 659.851750616 l 1
 469.431946013 677.005986325 l 1
 482.148400472 665.491083735 l 1
 516.05855337 634.785032082 l 1
 719.258836898 450.784952201 l 1
 734.08403221 437.360147513 l 1
 739.643398474 432.325919991 l 1
 734.609170951 426.766553727 l 1
 721.184548471 411.941559636 l 1
 707.760720346 397.116364324 l 1
 702.726511837 391.556614625 l 1
 697.166944352 396.591024362 l 1
 682.341855548 410.015732604 l 1
 525.768257921 551.793900658 l 1
 531.498598211 13.8933403211 l 1
484.010003963 13.3674654811 m 1
 486.507064456 13.3841861637 489.004079221 13.4009183998 491.500750161 13.4279250533 c 1
 489.003803652 13.4146273281 486.506904498 13.391052479 484.010003963 13.3674654811 c 1
226.38671875 581.861328125 m 1
 204.248046875 593.474609375 l 1
 215.861328125 615.61328125 l 1
 247.861328125 676.61328125 l 1
 254.8125 689.864257812 l 1
 269.774414062 689.999023438 l 1
 712.774414062 693.999023438 l 1
 725.374023438 694.112304688 l 1
 732.9609375 684.052734375 l 1
 778.9609375 623.052734375 l 1
 794.012695312 603.091796875 l 1
 774.052734375 588.0390625 l 1
 754.091796875 572.987304688 l 1
 739.0390625 592.947265625 l 1
 700.625976562 643.887695312 l 1
 285.1875 640.135742188 l 1
 260.138671875 592.38671875 l 1
 248.525390625 570.248046875 l 1
 226.38671875 581.861328125 l 1
504.374023438 714.330078125 m 1
 531.73046875 760.407226562 l 1
 473.158203125 759.626953125 l 1
 504.374023438 714.330078125 l 1
485.35546875 653.813476562 m 1
 405.415039062 769.813476562 l 1
 378.841796875 808.373046875 l 1
 425.666992188 808.998046875 l 1
 575.666992188 810.998046875 l 1
 620.26953125 811.592773438 l 1
 597.497070312 773.237304688 l 1
 527.4375 655.237304688 l 1
 506 653 l 1
 485.35546875 653.813476562 l 1
EndSplineSet
EndChar

StartChar: lt-KF
Encoding: 264 -1 33
Width: 950
VWidth: 0
Flags: HW
LayerCount: 2
Fore
SplineSet
915.852146599 271.828905541 m 1
 925.354099724 268.713671166 l 1
 932.480856828 266.377149567 l 1
 930.144335229 259.250392463 l 1
 927.029053419 249.748294661 l 2
 911.294586263 201.758994541 902.264138554 170.80016761 860.476973526 133.364866424 c 0
 811.951059589 89.8944419036 751.907374255 128.675124968 724.770504085 110.9484296 c 0
 677.307908224 79.9455258334 662.148794769 57.651548548 623.901792237 11.2667393659 c 2
 617.540464112 3.55189561595 l 1
 612.76941396 -2.23430275728 l 1
 606.982919188 2.53638790788 l 1
 599.266303382 8.89837197161 l 1
 591.551459632 15.2606766591 l 1
 585.765697245 20.0320996906 l 1
 590.536684325 25.8182215716 l 1
 596.898034763 33.5330923814 l 2
 633.878836304 78.381963861 653.859208346 106.433896896 705.62976211 140.250707869 c 0
 763.193526925 177.853394209 810.701248444 135.76510485 837.123591037 159.434919116 c 0
 873.071123642 191.637641467 877.462465135 210.910394435 893.770920687 260.652612621 c 2
 896.887131625 270.154565746 l 1
 899.224097684 277.280444703 l 1
 906.350193474 274.944139916 l 1
 915.852146599 271.828905541 l 1
865.086909519 319.897428138 m 1
 875.085932956 319.733365638 l 1
 882.584935609 319.61032311 l 1
 882.461881066 312.111320654 l 1
 882.297820094 302.113366986 l 2
 881.484605579 252.518111293 876.309279391 216.715405315 833.276845917 178.165708324 c 0
 784.751143284 134.694413026 724.707628874 173.475699847 697.570455672 155.749306809 c 0
 650.108718196 124.745379572 634.948534308 102.451274226 596.701596925 56.0665440534 c 2
 590.3402688 48.3517003034 l 1
 585.569218648 42.5655019302 l 1
 579.782723875 47.3361925954 l 1
 572.066108069 53.6981766591 l 1
 564.351264319 60.0604813466 l 1
 558.565501933 64.8319043781 l 1
 563.336489013 70.6180262591 l 1
 569.69783945 78.3328970689 l 2
 606.678771445 123.181926758 626.659753678 151.233517632 678.429620827 185.051524413 c 0
 735.994376373 222.654151236 783.50120115 180.565042135 809.923301057 204.234638997 c 0
 844.705446349 235.394439958 846.511661897 254.454394804 847.302755197 302.685786694 c 2
 847.465841134 312.684810132 l 1
 847.588163209 320.184544983 l 1
 855.087886081 320.061490638 l 1
 865.086909519 319.897428138 l 1
680.058108622 201.605468751 m 1
 670.209719429 191.258926469 l 1
 644.858151591 215.390255704 l 1
 655.54625834 226.617233152 l 1
 749.437351744 325.250454373 l 1
 843.881281512 215.780915669 l 1
 817.381814124 192.918160947 l 1
 748.162380402 273.148815351 l 1
 680.058108622 201.605468751 l 1
747.902588538 305.90027447 m 1
 757.903320926 305.954965975 l 1
 765.29585468 305.995393894 l 1
 765.442853079 298.604211229 l 1
 765.499572151 295.752336496 l 1
 767.099493184 16.8972161501 l 1
 767.155157247 6.89721615011 l 1
 767.196904647 -0.60266765929 l 1
 759.697020838 -0.644415059406 l 1
 749.697024915 -0.700079099209 l 1
 739.698001477 -0.755743161709 l 1
 732.198113613 -0.797494661684 l 1
 732.156366191 6.70239322489 l 1
 732.10070953 16.7010839352 l 1
 730.500427963 295.447871613 l 1
 730.445817762 298.194668892 l 1
 730.294602292 305.800541736 l 1
 737.90185615 305.843629697 l 1
 747.902588538 305.90027447 l 1
808.014648438 536.193359375 m 5
 783.603515625 541.588867188 l 5
 759.193359375 546.985351562 l 5
 764.588867188 571.396484375 l 5
 790.688476562 689.46484375 l 5
 106.456054688 22.103515625 l 5
 88.55859375 4.6474609375 l 5
 71.103515625 22.5439453125 l 5
 53.6474609375 40.44140625 l 5
 71.5439453125 57.896484375 l 5
 735.037109375 705.029296875 l 5
 611.116210938 673.759765625 l 5
 598.78515625 722.21484375 l 5
 629.82421875 730.180664062 l 5
 873 792 l 5
 808.014648438 536.193359375 l 5
EndSplineSet
EndChar

StartChar: lt-TF
Encoding: 265 -1 34
Width: 900
VWidth: 0
Flags: HW
LayerCount: 2
Fore
SplineSet
829.367882726 536.531017546 m 1
 848.371677849 530.300585229 l 1
 855.498326544 527.964099172 l 1
 853.161948895 520.837414936 l 1
 846.931411505 501.832322759 l 2
 815.3607787 405.541552009 798.228756651 346.025420023 715.949663628 272.317045186 c 0
 622.716731285 188.796216082 507.185804662 268.511124433 445.439522847 228.176993204 c 0
 349.608464744 165.57786803 318.225126235 119.727706188 242.016995076 27.3047870574 c 2
 229.293362264 11.8741229949 l 1
 224.521977446 6.08759666883 l 1
 218.73545112 10.8589814864 l 1
 203.304787057 23.5826142989 l 1
 187.874122995 36.3062471114 l 1
 182.087596669 41.077631929 l 1
 186.858981486 46.8641582551 l 1
 199.582605075 62.2948111314 l 2
 273.800154525 152.302955847 312.763498658 207.204340234 415.36028489 274.223399413 c 0
 524.887911803 345.769373031 620.731626692 260.85991631 679.250499186 313.282535075 c 0
 752.348847367 378.766972377 762.196273816 419.928260702 794.668237641 518.967603227 c 2
 800.899682953 537.972486039 l 1
 803.236426805 545.099170273 l 1
 810.363111039 542.762426422 l 1
 829.367882726 536.531017546 l 1
730.050599653 632.295868543 m 1
 750.047486909 631.9687231 l 1
 757.546483446 631.846040879 l 1
 757.423801225 624.347044341 l 1
 757.096648219 604.349695111 l 2
 755.476742616 505.557025897 745.769263007 437.364353036 661.549273003 361.916654561 c 0
 568.31634066 278.395825457 452.785414037 358.110733808 391.039132222 317.776602579 c 0
 295.208177558 255.177544974 263.824561646 209.327105365 187.617729223 116.905552742 c 2
 174.89409641 101.473912117 l 1
 170.122743131 95.6870578295 l 1
 164.336037057 100.458590861 l 1
 148.905552742 113.182075465 l 1
 133.473912117 125.905708277 l 1
 127.687237582 130.676913347 l 1
 132.458442652 136.463587883 l 1
 145.18221445 151.895397069 l 2
 219.399760978 241.903538241 258.363229043 296.804034532 360.960843812 363.822991141 c 0
 470.48761873 435.369080516 566.331988589 350.459411319 624.851114121 402.88314699 c 0
 696.086303561 466.697825315 700.519524491 508.614789454 702.103548523 605.250978026 c 2
 702.431673523 625.248048338 l 1
 702.554721862 632.747038877 l 1
 710.053712401 632.623990539 l 1
 730.050599653 632.295868543 l 1
319.866207372 450.404915971 m 2
 319.771279594 451.159088923 319.733252187 451.622276785 319.733252187 451.622276785 c 1
 374.030385636 508.661348189 424.782076946 561.789278494 477.681794839 617.360366588 c 2
 498.601048031 639.337734647 l 1
 677.185173554 432.341618794 l 1
 635.541632978 396.41427956 l 1
 496.597960381 557.462246899 l 1
 359.118564152 413.038603887 l 1
 356.901888134 410.709960938 l 1
 356.901698714 410.709961089 l 1
 340.157586611 393.121588111 l 1
 300.320440665 431.042608701 l 1
 319.281622339 450.961181674 l 1
 319.866207372 450.404915971 l 2
495.846924475 604.299688497 m 1
 515.846924475 604.411016622 l 1
 523.240227532 604.45217075 l 1
 523.38719005 597.06021392 l 1
 523.499572299 591.407583966 l 1
 526.699100501 33.7530531502 l 1
 526.811405188 13.7540297127 l 1
 526.853522906 6.25377970309 l 1
 519.353270838 6.21203025309 l 1
 499.353270838 6.10070212809 l 1
 479.353270838 5.98937400309 l 1
 471.853389067 5.94762661433 l 1
 471.811639639 13.4475083739 l 1
 471.70031883 33.4452376948 l 1
 468.500427758 590.991836487 l 1
 468.390153183 596.539421439 l 1
 468.238949828 604.146011294 l 1
 475.846924475 604.188360372 l 1
 495.846924475 604.299688497 l 1
226.38671875 581.861328125 m 1
 204.248046875 593.474609375 l 1
 215.861328125 615.61328125 l 1
 247.861328125 676.61328125 l 1
 254.8125 689.864257812 l 1
 269.774414062 689.999023438 l 1
 712.774414062 693.999023438 l 1
 725.374023438 694.112304688 l 1
 732.9609375 684.052734375 l 1
 778.9609375 623.052734375 l 1
 794.012695312 603.091796875 l 1
 774.052734375 588.0390625 l 1
 754.091796875 572.987304688 l 1
 739.0390625 592.947265625 l 1
 700.625976562 643.887695312 l 1
 285.1875 640.135742188 l 1
 260.138671875 592.38671875 l 1
 248.525390625 570.248046875 l 1
 226.38671875 581.861328125 l 1
504.374023438 714.330078125 m 1
 531.73046875 760.407226562 l 1
 473.158203125 759.626953125 l 1
 504.374023438 714.330078125 l 1
485.35546875 653.813476562 m 1
 405.415039062 769.813476562 l 1
 378.841796875 808.373046875 l 1
 425.666992188 808.998046875 l 1
 575.666992188 810.998046875 l 1
 620.26953125 811.592773438 l 1
 597.497070312 773.237304688 l 1
 527.4375 655.237304688 l 1
 506 653 l 1
 485.35546875 653.813476562 l 1
EndSplineSet
EndChar

StartChar: lt-KN
Encoding: 266 -1 35
Width: 950
VWidth: 0
Flags: HW
LayerCount: 2
Fore
SplineSet
618.228515625 324.520350266 m 0
 619.318496372 325.532262569 l 1
 631.225171067 312.706140337 l 1
 620.236478189 302.495920809 l 1024
618.228515625 324.520350266 m 1
 618.228515625 326.705522746 l 1
 747.465074251 187.498015649 l 1
 894.77164504 344.188593349 l 1
 900.232272665 20.1850066058 l 1
 900.953970828 -1.50073715486 l 1
 882.975354247 -1.49902799842 l 1
 872.993061919 -1.62667704999 l 1
 567.192698582 -4.25801902896 l 1
 723.435576908 161.938430138 l 1
 593.668297971 301.719226042 l 1
 618.228515625 324.520350266 l 1
771.33295492 161.78910561 m 1
 864.532310541 61.3979848249 l 1
 861.228383857 257.411613401 l 1
 771.33295492 161.78910561 l 1
747.304434065 136.228577142 m 1
 648.807006231 31.4567624233 l 1
 842.997124738 33.1530356218 l 1
 747.304434065 136.228577142 l 1
808.014648438 536.193359375 m 5
 783.603515625 541.588867188 l 5
 759.193359375 546.985351562 l 5
 764.588867188 571.396484375 l 5
 790.688476562 689.46484375 l 5
 106.456054688 22.103515625 l 5
 88.55859375 4.6474609375 l 5
 71.103515625 22.5439453125 l 5
 53.6474609375 40.44140625 l 5
 71.5439453125 57.896484375 l 5
 735.037109375 705.029296875 l 5
 611.116210938 673.759765625 l 5
 598.78515625 722.21484375 l 5
 629.82421875 730.180664062 l 5
 873 792 l 5
 808.014648438 536.193359375 l 5
EndSplineSet
EndChar

StartChar: lt-TN
Encoding: 267 -1 36
Width: 900
VWidth: 0
Flags: HW
LayerCount: 2
Fore
SplineSet
216.646090011 582.889382544 m 1
 197.936045604 603.042896001 l 1
 238.243470591 640.464697133 l 1
 494.894794356 364.010677532 l 1
 782.354639953 669.7831087 l 1
 792.965668481 40.1831945769 l 1
 794.154427501 4.49926282029 l 1
 765.903088622 4.50194856408 l 1
 745.921772975 4.24636982602 l 1
 151.874320136 -0.861165395605 l 1
 457.135753804 323.845637111 l 1
 216.646090011 582.889382544 l 1
532.402321242 323.60942721 m 1
 736.893680878 103.34020524 l 1
 729.645338457 533.41749401 l 1
 532.402321242 323.60942721 l 1
494.642325136 283.444373313 m 1
 280.125279372 55.261412025 l 1
 703.051825248 58.9548295059 l 1
 494.642325136 283.444373313 l 1
226.38671875 581.861328125 m 1
 204.248046875 593.474609375 l 1
 215.861328125 615.61328125 l 1
 247.861328125 676.61328125 l 1
 254.8125 689.864257812 l 1
 269.774414062 689.999023438 l 1
 712.774414062 693.999023438 l 1
 725.374023438 694.112304688 l 1
 732.9609375 684.052734375 l 1
 778.9609375 623.052734375 l 1
 794.012695312 603.091796875 l 1
 774.052734375 588.0390625 l 1
 754.091796875 572.987304688 l 1
 739.0390625 592.947265625 l 1
 700.625976562 643.887695312 l 1
 285.1875 640.135742188 l 1
 260.138671875 592.38671875 l 1
 248.525390625 570.248046875 l 1
 226.38671875 581.861328125 l 1
504.374023438 714.330078125 m 1
 531.73046875 760.407226562 l 1
 473.158203125 759.626953125 l 1
 504.374023438 714.330078125 l 1
485.35546875 653.813476562 m 1
 405.415039062 769.813476562 l 1
 378.841796875 808.373046875 l 1
 425.666992188 808.998046875 l 1
 575.666992188 810.998046875 l 1
 620.26953125 811.592773438 l 1
 597.497070312 773.237304688 l 1
 527.4375 655.237304688 l 1
 506 653 l 1
 485.35546875 653.813476562 l 1
EndSplineSet
EndChar

StartChar: lt-KM
Encoding: 268 -1 37
Width: 950
VWidth: 0
Flags: HW
LayerCount: 2
Fore
SplineSet
621.708526668 210.670048558 m 1
 621.404827185 220.664788781 l 1
 621.17701493 228.162082751 l 1
 628.674331774 228.389140999 l 1
 638.670378425 228.691873947 l 2
 676.67100205 229.842971975 724.866842867 233.604164295 759.592269383 193.499294075 c 0
 762.848543589 189.788118105 765.426938031 184.998476432 766.320167378 179.576588189 c 0
 770.230042237 155.843949327 744.14334046 138.235388077 734.213255708 130.780795165 c 1
 767.458085662 109.242476594 791.329644406 116.600082968 853.504376222 112.664749395 c 2
 863.484844972 112.03389002 l 1
 870.970636377 111.560717687 l 1
 870.4967345 104.074972431 l 1
 869.864898563 94.0945036812 l 1
 869.233062625 84.1140349312 l 1
 868.759204008 76.6289729959 l 1
 861.274144996 77.1028777987 l 1
 851.294728175 77.7347089649 l 2
 792.171860996 81.4773831256 753.891401391 71.3417913445 704.598030964 108.876676495 c 0
 699.533532246 112.732990222 694.768851226 118.818350815 693.883575043 126.875668086 c 0
 692.833899081 136.44607816 697.401376072 143.594444998 700.609993866 147.75757405 c 0
 709.49475088 159.287447452 723.576434755 169.712424361 729.178239956 174.782326778 c 1
 707.139189179 195.997290432 678.414812838 194.880670361 639.730719032 193.708538122 c 2
 629.735601844 193.404827185 l 1
 622.238307874 193.17701493 l 1
 622.011249626 200.674331774 l 1
 621.708526668 210.670048558 l 1
633.099519707 306.391059997 m 1
 618.099637413 306.448242111 l 1
 618.147488899 323.948214073 l 1
 653.147432823 323.852511101 l 1
 652.348792371 31.6227001515 l 1
 882.579405796 33.2207707855 l 1
 882.822084084 -1.77789206991 l 1
 617.251981649 -3.6228663974 l 1
 618.094159318 304.445506695 l 1
 633.099519707 306.391059997 l 1
808.014648438 536.193359375 m 5
 783.603515625 541.588867188 l 5
 759.193359375 546.985351562 l 5
 764.588867188 571.396484375 l 5
 790.688476562 689.46484375 l 5
 106.456054688 22.103515625 l 5
 88.55859375 4.6474609375 l 5
 71.103515625 22.5439453125 l 5
 53.6474609375 40.44140625 l 5
 71.5439453125 57.896484375 l 5
 735.037109375 705.029296875 l 5
 611.116210938 673.759765625 l 5
 598.78515625 722.21484375 l 5
 629.82421875 730.180664062 l 5
 873 792 l 5
 808.014648438 536.193359375 l 5
EndSplineSet
EndChar

StartChar: lt-TM
Encoding: 269 -1 38
Width: 900
VWidth: 0
Flags: HW
LayerCount: 2
Fore
SplineSet
250.91262269 421.567692437 m 1
 250.306183263 441.557732789 l 1
 250.07874803 449.054671958 l 1
 257.575698962 449.281719124 l 1
 277.567747696 449.88718367 l 2
 354.256206463 452.211135021 446.787534246 459.153231555 513.530745946 382.070583137 c 0
 519.261469831 375.539276673 523.718567022 367.168373246 525.241090948 357.933857499 c 0
 532.847724991 311.756240062 473.134652649 274.964064043 455.575978487 261.223399256 c 1
 529.199356826 209.192750704 578.553396851 225.945058315 706.537355348 217.845365851 c 2
 726.497316285 216.581693976 l 1
 733.982330573 216.107815191 l 1
 733.508451788 208.622800902 l 1
 732.244802997 188.663204717 l 1
 730.982107685 168.703243779 l 1
 730.508593651 161.218206407 l 1
 723.023556279 161.69172044 l 1
 703.063346463 162.954431502 l 2
 583.089668972 170.548140868 509.871606519 150.519835414 413.739745205 223.721317261 c 0
 404.771649878 230.549719468 396.703192805 241.081214237 395.222494911 254.567570729 c 0
 393.440128516 270.808626494 401.119362163 283.097605165 407.161902812 290.938434234 c 0
 427.01503774 316.700365921 459.792927433 339.273129959 468.910223099 349.465864837 c 1
 422.367321033 399.887995781 359.123130468 397.334262501 279.233271736 394.912628239 c 2
 259.242060799 394.306182927 l 1
 251.745132393 394.07875913 l 1
 251.518085564 401.575698962 l 1
 250.91262269 421.567692437 l 1
298.700167235 612.724595122 m 1
 297.175967051 55.6920530556 l 1
 757.708558672 58.8897110369 l 1
 758.089908889 3.89068449213 l 1
 242.024441602 0.307800208454 l 1
 243.775418586 640.374971885 l 1
 298.77536251 640.224581414 l 1
 298.700167275 612.724609452 l 1
 298.699952164 612.724610008 l 1
 298.700167235 612.724595122 l 1
226.38671875 581.861328125 m 1
 204.248046875 593.474609375 l 1
 215.861328125 615.61328125 l 1
 247.861328125 676.61328125 l 1
 254.8125 689.864257812 l 1
 269.774414062 689.999023438 l 1
 712.774414062 693.999023438 l 1
 725.374023438 694.112304688 l 1
 732.9609375 684.052734375 l 1
 778.9609375 623.052734375 l 1
 794.012695312 603.091796875 l 1
 774.052734375 588.0390625 l 1
 754.091796875 572.987304688 l 1
 739.0390625 592.947265625 l 1
 700.625976562 643.887695312 l 1
 285.1875 640.135742188 l 1
 260.138671875 592.38671875 l 1
 248.525390625 570.248046875 l 1
 226.38671875 581.861328125 l 1
504.374023438 714.330078125 m 1
 531.73046875 760.407226562 l 1
 473.158203125 759.626953125 l 1
 504.374023438 714.330078125 l 1
485.35546875 653.813476562 m 1
 405.415039062 769.813476562 l 1
 378.841796875 808.373046875 l 1
 425.666992188 808.998046875 l 1
 575.666992188 810.998046875 l 1
 620.26953125 811.592773438 l 1
 597.497070312 773.237304688 l 1
 527.4375 655.237304688 l 1
 506 653 l 1
 485.35546875 653.813476562 l 1
EndSplineSet
EndChar

StartChar: lt-KH
Encoding: 270 -1 39
Width: 950
VWidth: 0
Flags: HW
LayerCount: 2
Fore
SplineSet
871.150992681 307.523861481 m 1
 875.679165133 298.608136985 l 1
 879.075388055 291.921159352 l 1
 872.388410423 288.52493643 l 1
 863.471974801 283.996402823 l 2
 801.423938212 252.487970286 757.4614696 228.3640622 763.276642629 203.93193184 c 0
 765.941885462 192.734270559 876.707360672 206.131115226 882.048736834 145.299193645 c 0
 888.519323507 74.7427981036 820.70510555 44.5290386779 771.496938389 11.7897490847 c 2
 763.170766514 6.2506865847 l 1
 756.926335912 2.09652163289 l 1
 752.77217096 8.3409522357 l 1
 747.233333182 16.6667863345 l 1
 741.694270682 24.991981647 l 1
 737.539543216 31.2365253071 l 1
 743.784311611 35.3909149778 l 1
 752.110224075 40.9298048949 l 2
 810.000701505 79.4454474258 851.075587789 99.7900385174 847.190862817 142.150534788 c 0
 845.169568979 165.167529568 746.305806222 124.077408904 729.227250568 195.827888629 c 0
 714.204490766 258.946110844 799.149239941 290.587266335 847.624867161 315.203874891 c 2
 856.540882786 319.731218641 l 1
 863.228156114 323.126859292 l 1
 866.623796766 316.439585964 l 1
 871.150992681 307.523861481 l 1
631.713186585 -6.91373526465 m 1
 617.588596079 14.3162656529 l 1
 632.158125816 24.0099164043 l 2
 690.049498581 62.5254834871 731.123443551 82.8700708572 727.23871438 125.230612913 c 0
 725.217453312 148.24723452 626.353351162 107.158028672 609.276107865 178.90784419 c 0
 594.252201526 242.026176432 679.197887957 273.667281433 727.673014384 298.284103137 c 2
 743.277134364 306.206641766 l 1
 759.122657385 275.000941769 l 1
 743.519826363 267.076480948 l 2
 681.47178695 235.568046977 637.509310728 211.444184166 643.324508646 187.011949233 c 0
 645.989902165 175.813241052 756.755204512 189.21127632 762.096578121 128.379383797 c 0
 768.528196306 58.2594726112 701.467564407 27.8283601208 652.338326324 -4.60291507951 c 2
 636.975164037 -14.8234002421 l 1
 631.713186585 -6.91373526465 l 1
808.014648438 536.193359375 m 5
 783.603515625 541.588867188 l 5
 759.193359375 546.985351562 l 5
 764.588867188 571.396484375 l 5
 790.688476562 689.46484375 l 5
 106.456054688 22.103515625 l 5
 88.55859375 4.6474609375 l 5
 71.103515625 22.5439453125 l 5
 53.6474609375 40.44140625 l 5
 71.5439453125 57.896484375 l 5
 735.037109375 705.029296875 l 5
 611.116210938 673.759765625 l 5
 598.78515625 722.21484375 l 5
 629.82421875 730.180664062 l 5
 873 792 l 5
 808.014648438 536.193359375 l 5
EndSplineSet
EndChar

StartChar: lt-TH
Encoding: 271 -1 40
Width: 900
VWidth: 0
Flags: HW
LayerCount: 2
Fore
SplineSet
735.615873961 611.65171725 m 1
 744.67157556 593.818635517 l 1
 748.067359515 587.131434957 l 1
 741.380158955 583.735651002 l 1
 723.547170113 574.679996573 l 2
 602.334722123 513.127456797 505.60761525 463.469900139 519.256111677 406.127341553 c 0
 528.268754178 368.264169151 746.404017682 406.362812022 756.628814016 289.912485169 c 0
 769.020637433 154.791944526 639.146404061 96.5602230798 538.840134553 29.8251865775 c 2
 522.188767365 18.746085015 l 1
 515.94436416 14.5913284402 l 1
 511.789861439 20.8359005404 l 1
 500.711905328 37.487013885 l 1
 489.632803765 54.1383810725 l 1
 485.478216088 60.3825304325 l 1
 491.722365447 64.53711811 l 1
 508.37392104 75.6163450248 l 2
 622.309535789 151.419229565 710.180061445 194.154811267 701.851986095 284.957283999 c 0
 696.907987854 341.265259291 497.260813674 261.005997162 465.751693803 393.39221919 c 0
 437.631493916 511.530610035 598.730378279 572.981719505 698.645083828 623.719352046 c 2
 716.477115078 632.775016108 l 1
 723.164240562 636.170947905 l 1
 726.560172358 629.483822422 l 1
 735.615873961 611.65171725 l 1
297.271677521 -5.12256732874 m 1
 276.041043848 -19.2485153098 l 1
 245.574895775 26.5426866825 l 1
 268.470600727 41.7765012748 l 2
 382.406215476 117.579385815 470.276741133 160.314967517 461.948665782 251.117440249 c 0
 457.004675756 307.425321989 257.356419034 227.167258064 225.84837349 359.55237544 c 0
 197.728173603 477.690766285 358.827057967 539.141875755 458.741763516 589.879508296 c 2
 483.260920249 602.331104155 l 1
 508.164039202 553.291591207 l 1
 483.643849801 540.840152823 l 2
 362.431318642 479.287570814 265.704342026 429.630389569 279.353828659 372.287242643 c 0
 288.365108819 334.423915562 506.49968701 372.5233507 516.724512004 256.072697433 c 0
 529.021415784 121.998218042 401.232605238 63.6445012361 301.330834387 -2.42666905744 c 2
 297.271677521 -5.12256732874 l 1
226.38671875 581.861328125 m 1
 204.248046875 593.474609375 l 1
 215.861328125 615.61328125 l 1
 247.861328125 676.61328125 l 1
 254.8125 689.864257812 l 1
 269.774414062 689.999023438 l 1
 712.774414062 693.999023438 l 1
 725.374023438 694.112304688 l 1
 732.9609375 684.052734375 l 1
 778.9609375 623.052734375 l 1
 794.012695312 603.091796875 l 1
 774.052734375 588.0390625 l 1
 754.091796875 572.987304688 l 1
 739.0390625 592.947265625 l 1
 700.625976562 643.887695312 l 1
 285.1875 640.135742188 l 1
 260.138671875 592.38671875 l 1
 248.525390625 570.248046875 l 1
 226.38671875 581.861328125 l 1
504.374023438 714.330078125 m 1
 531.73046875 760.407226562 l 1
 473.158203125 759.626953125 l 1
 504.374023438 714.330078125 l 1
485.35546875 653.813476562 m 1
 405.415039062 769.813476562 l 1
 378.841796875 808.373046875 l 1
 425.666992188 808.998046875 l 1
 575.666992188 810.998046875 l 1
 620.26953125 811.592773438 l 1
 597.497070312 773.237304688 l 1
 527.4375 655.237304688 l 1
 506 653 l 1
 485.35546875 653.813476562 l 1
EndSplineSet
EndChar

StartChar: lt-KZ
Encoding: 272 -1 41
Width: 950
VWidth: 0
Flags: HW
LayerCount: 2
Fore
SplineSet
822.30666115 309.343579461 m 1
 830.388129327 303.453629663 l 1
 836.448353943 299.036806139 l 1
 832.032357327 292.975978942 l 1
 826.143504046 284.893698729 l 2
 788.317025014 232.982433954 769.621808747 206.257003928 771.489922113 150.586476118 c 0
 773.269715528 97.5441805467 797.717082616 74.3443559979 836 23.2998046875 c 2
 842 15.2998046875 l 1
 846.5 9.2998046875 l 1
 840.5 4.7998046875 l 1
 832.5 -1.2001953125 l 1
 824.5 -7.2001953125 l 1
 818.5 -11.7001953125 l 1
 814 -5.7001953125 l 1
 807.99997124 2.29984303409 l 2
 771.907264385 50.4240929342 738.672265402 83.2504983127 736.509860846 149.420077737 c 0
 734.327797278 216.19284377 760.438423241 254.155547436 797.856663147 305.505944772 c 2
 803.746311585 313.587976022 l 1
 808.163040565 319.648803256 l 1
 814.22421637 315.232552639 l 1
 822.30666115 309.343579461 l 1
895.924656694 151.640336921 m 1
 610.112156694 -5.76200682932 l 1
 603.557313712 -9.37188270339 l 1
 599.932682626 -2.8251873667 l 2
 596.702880097 3.00838097476 593.474209324 8.84166913909 590.245693701 14.6746769473 c 2
 586.613786102 21.2364991148 l 1
 593.17555219 24.8685080312 l 1
 836.463598336 159.532059047 l 1
 601.383556077 295.455443207 l 1
 594.890892627 299.209504079 l 1
 598.644817969 305.70224589 l 1
 608.655560156 323.016699015 l 1
 612.42162768 329.530441791 l 1
 618.923253786 325.743494801 l 1
 618.923253786 325.743494801 806.578776362 216.440813223 896.060753725 164.702775029 c 2
 907.565161783 158.050983003 l 1
 895.924656694 151.640336921 l 1
808.014648438 536.193359375 m 5
 783.603515625 541.588867188 l 5
 759.193359375 546.985351562 l 5
 764.588867188 571.396484375 l 5
 790.688476562 689.46484375 l 5
 106.456054688 22.103515625 l 5
 88.55859375 4.6474609375 l 5
 71.103515625 22.5439453125 l 5
 53.6474609375 40.44140625 l 5
 71.5439453125 57.896484375 l 5
 735.037109375 705.029296875 l 5
 611.116210938 673.759765625 l 5
 598.78515625 722.21484375 l 5
 629.82421875 730.180664062 l 5
 873 792 l 5
 808.014648438 536.193359375 l 5
EndSplineSet
EndChar

StartChar: lt-TZ
Encoding: 273 -1 42
Width: 900
VWidth: 0
Flags: HW
LayerCount: 2
Fore
SplineSet
640.195158706 612.624956464 m 1
 656.359221206 600.846636152 l 1
 662.420875417 596.429670744 l 1
 658.0037357 590.368143552 l 1
 646.22550808 574.205184817 l 2
 570.673688259 470.522794863 531.667850597 414.646109561 535.484060615 300.92247688 c 0
 539.138564956 192.036524802 590.044899975 143.373076075 666 42.099609375 c 2
 678 26.099609375 l 1
 682.5 20.099609375 l 1
 676.5 15.599609375 l 1
 660.5 3.599609375 l 1
 644.5 -8.400390625 l 1
 638.5 -12.900390625 l 1
 634 -6.900390625 l 1
 621.99999281 9.09961896169 l 2
 549.23549382 106.119273899 484.747432175 169.56420535 480.515722017 299.084085292 c 0
 476.229151105 430.22689261 526.873112259 503.805124931 601.774584613 606.595723636 c 2
 613.552904925 622.758809573 l 1
 617.969790608 628.81998816 l 1
 624.031096206 624.403276777 l 1
 640.195158706 612.624956464 l 1
788.230312145 309.850293116 m 1
 216.605312145 -4.95341782193 l 1
 210.049865493 -8.56361494955 l 1
 206.425510029 -2.01598548624 l 1
 187.054416279 32.9801082638 l 1
 183.422163085 39.542005482 l 1
 189.984117073 43.1741561153 l 1
 688.157964765 318.921663574 l 1
 206.520285971 597.403678951 l 1
 200.027193257 601.157973153 l 1
 203.781774752 607.650899746 l 1
 223.803997656 642.279394328 l 1
 227.57006968 648.793144886 l 1
 234.07169903 645.006185603 l 1
 234.07169903 645.006185603 609.38451013 426.399757235 788.366433137 322.912727092 c 2
 799.870811316 316.260916052 l 1
 788.230312145 309.850293116 l 1
226.38671875 581.861328125 m 1
 204.248046875 593.474609375 l 1
 215.861328125 615.61328125 l 1
 247.861328125 676.61328125 l 1
 254.8125 689.864257812 l 1
 269.774414062 689.999023438 l 1
 712.774414062 693.999023438 l 1
 725.374023438 694.112304688 l 1
 732.9609375 684.052734375 l 1
 778.9609375 623.052734375 l 1
 794.012695312 603.091796875 l 1
 774.052734375 588.0390625 l 1
 754.091796875 572.987304688 l 1
 739.0390625 592.947265625 l 1
 700.625976562 643.887695312 l 1
 285.1875 640.135742188 l 1
 260.138671875 592.38671875 l 1
 248.525390625 570.248046875 l 1
 226.38671875 581.861328125 l 1
504.374023438 714.330078125 m 1
 531.73046875 760.407226562 l 1
 473.158203125 759.626953125 l 1
 504.374023438 714.330078125 l 1
485.35546875 653.813476562 m 1
 405.415039062 769.813476562 l 1
 378.841796875 808.373046875 l 1
 425.666992188 808.998046875 l 1
 575.666992188 810.998046875 l 1
 620.26953125 811.592773438 l 1
 597.497070312 773.237304688 l 1
 527.4375 655.237304688 l 1
 506 653 l 1
 485.35546875 653.813476562 l 1
EndSplineSet
EndChar

StartChar: lt-KY
Encoding: 274 -1 43
Width: 950
VWidth: 0
Flags: HW
LayerCount: 2
Fore
SplineSet
670.299950295 249.157121978 m 1
 740.956770669 322.098163534 l 1
 741.076386535 322.221646389 l 1
 741.201534856 322.339518644 l 1
 747.500362981 328.272135832 l 1
 752.224805358 332.721901326 l 1
 757.307014789 328.685576758 l 1
 764.083381977 323.30374082 l 1
 764.346521222 323.09475388 l 1
 764.589916598 322.863071997 l 1
 839.934257164 251.144705806 l 1
 847.501993491 245.135060597 l 1
 853.375692071 240.470674445 l 1
 848.710949184 234.597259171 l 1
 842.492765696 226.767894434 l 1
 836.274015696 218.935863184 l 1
 831.610269505 213.062238114 l 1
 825.736644434 217.725984304 l 1
 817.904613184 223.944734304 l 1
 817.617291097 224.172872341 l 1
 817.353607325 224.427964115 l 1
 753.951945016 285.763716419 l 1
 694.688454695 224.060571926 l 1
 694.558178745 223.924933007 l 1
 694.421268293 223.795993998 l 1
 687.141971418 216.940525248 l 1
 681.682106041 211.79855383 l 1
 676.540134623 217.258419207 l 1
 669.684848651 224.537522004 l 1
 662.828586129 231.816624815 l 1
 657.686226569 237.276124624 l 1
 663.145726378 242.418484184 l 1
 670.299950295 249.157121978 l 1
752.903156548 245.702249199 m 0
 700.19955143 246.595695895 655.722426717 192.932483619 654.294619807 134.771168335 c 0
 652.954198874 80.124082583 697.752983937 27.2811002951 749.93052344 26.296517364 c 0
 810.892085465 25.1464887957 859.567500665 72.902431617 861.306701924 134.494018558 c 0
 863.023000862 195.247535552 814.337984938 244.660903237 752.903156548 245.702249199 c 0
753.496235914 280.69716523 m 0
 833.663824805 279.339106946 898.576731105 214.356846005 896.29290856 133.50602068 c 0
 894.032870612 53.490404425 829.912254651 -10.2189716883 749.269619013 -8.69690699162 c 0
 674.278876122 -7.28169171839 617.545913926 63.9186006119 619.304993218 135.629371044 c 0
 621.077723631 207.842665105 675.818274024 282.014327414 753.496235914 280.69716523 c 0
808.014648438 536.193359375 m 5
 783.603515625 541.588867188 l 5
 759.193359375 546.985351562 l 5
 764.588867188 571.396484375 l 5
 790.688476562 689.46484375 l 5
 106.456054688 22.103515625 l 5
 88.55859375 4.6474609375 l 5
 71.103515625 22.5439453125 l 5
 53.6474609375 40.44140625 l 5
 71.5439453125 57.896484375 l 5
 735.037109375 705.029296875 l 5
 611.116210938 673.759765625 l 5
 598.78515625 722.21484375 l 5
 629.82421875 730.180664062 l 5
 873 792 l 5
 808.014648438 536.193359375 l 5
EndSplineSet
EndChar

StartChar: lt-TY
Encoding: 275 -1 44
Width: 900
VWidth: 0
Flags: HW
LayerCount: 2
Fore
SplineSet
345.867425898 492.972647456 m 1
 487.300520669 638.978046346 l 1
 487.420344772 639.10174417 l 1
 487.54572038 639.219811627 l 1
 500.144353193 651.084069439 l 1
 504.868515305 655.532859882 l 1
 509.950256524 651.497348731 l 1
 523.502014336 640.735629981 l 1
 523.765321511 640.526532549 l 1
 524.00886191 640.294712622 l 1
 674.941175749 496.626072448 l 1
 690.339085905 484.397614274 l 1
 696.21210777 479.733474692 l 1
 691.548146535 473.860311196 l 1
 679.110646535 458.198201821 l 1
 666.673146535 442.536092446 l 1
 662.009043669 436.662750599 l 1
 656.135701821 441.326853465 l 1
 640.473592446 453.764353465 l 1
 640.186462974 453.992366993 l 1
 639.922943263 454.247300053 l 1
 507.709777175 582.152369276 l 1
 383.968747011 453.316450957 l 1
 383.838467488 453.180807331 l 1
 383.70155303 453.051864015 l 1
 369.141982718 439.339949952 l 1
 363.682127982 434.197967234 l 1
 358.540145265 439.65782197 l 1
 344.828231202 454.217392282 l 1
 331.11631714 468.776962595 l 1
 325.974506561 474.23663455 l 1
 331.434006377 479.378627903 l 1
 345.867425898 492.972647456 l 1
505.93443819 498.9043971 m 0
 395.16138312 500.781290797 304.019994941 389.055698118 301.09149323 269.725205628 c 0
 298.319464753 156.752986734 390.460788147 47.1561260933 499.718663418 45.0953444693 c 0
 625.85591335 42.7148792797 726.519711463 141.649599297 730.111387836 268.776188898 c 0
 733.664635052 394.587390749 632.815478095 496.753678468 505.93443819 498.9043971 c 0
506.866350144 553.89638403 m 0
 663.186198392 551.246283499 789.534740651 424.616673012 785.088806997 267.223794118 c 0
 780.68033056 111.143689707 655.744274496 -12.8585929364 498.680752811 -9.89514919771 c 0
 353.571888179 -7.15669317616 242.678641517 131.284340644 246.108701593 271.074579124 c 0
 249.57865994 412.505811239 356.855972221 556.438023179 506.866350144 553.89638403 c 0
226.38671875 581.861328125 m 1
 204.248046875 593.474609375 l 1
 215.861328125 615.61328125 l 1
 247.861328125 676.61328125 l 1
 254.8125 689.864257812 l 1
 269.774414062 689.999023438 l 1
 712.774414062 693.999023438 l 1
 725.374023438 694.112304688 l 1
 732.9609375 684.052734375 l 1
 778.9609375 623.052734375 l 1
 794.012695312 603.091796875 l 1
 774.052734375 588.0390625 l 1
 754.091796875 572.987304688 l 1
 739.0390625 592.947265625 l 1
 700.625976562 643.887695312 l 1
 285.1875 640.135742188 l 1
 260.138671875 592.38671875 l 1
 248.525390625 570.248046875 l 1
 226.38671875 581.861328125 l 1
504.374023438 714.330078125 m 1
 531.73046875 760.407226562 l 1
 473.158203125 759.626953125 l 1
 504.374023438 714.330078125 l 1
485.35546875 653.813476562 m 1
 405.415039062 769.813476562 l 1
 378.841796875 808.373046875 l 1
 425.666992188 808.998046875 l 1
 575.666992188 810.998046875 l 1
 620.26953125 811.592773438 l 1
 597.497070312 773.237304688 l 1
 527.4375 655.237304688 l 1
 506 653 l 1
 485.35546875 653.813476562 l 1
EndSplineSet
EndChar

StartChar: lt-KC
Encoding: 276 -1 45
Width: 950
VWidth: 0
Flags: HW
LayerCount: 2
Fore
SplineSet
749.721498057 288.906350403 m 0
 750.246036304 285.233026181 751.477172556 283.494899392 751.999771655 282.855398659 c 0
 753.380076908 283.442986663 754.563225762 284.974218803 754.241398753 287.389979969 c 0
 753.692576255 291.778056199 751.178448919 293.540722186 749.732461718 294.008014163 c 1
 749.428311063 292.328940311 749.384618617 291.263566137 749.721498057 288.906350403 c 0
715.072465106 283.95680595 m 0
 713.132659192 297.537551262 717.015275847 327.146677317 745.002047938 329.076214699 c 0
 768.918436983 331.250761912 786.42490929 312.100438247 788.95293052 291.872791068 c 0
 791.747675525 270.912203533 776.974426851 249.280989875 753.583747737 247.771124414 c 0
 728.369930695 245.971419324 717.159064082 269.356021615 715.072465106 283.95680595 c 0
734.407677326 260.149911523 m 1
 742.922233785 273.553705071 l 1
 749.292457841 283.581845527 l 1
 755.606153791 273.518019268 l 1
 764.045250881 260.06637263 l 1
 910.845058044 20.4667592149 l 1
 920.446979139 5.16156592821 l 1
 927.664225428 -6.34252250838 l 1
 914.083637831 -6.32421193293 l 1
 895.976180426 -6.29979782244 l 1
 600.775652896 -5.90038330309 l 1
 582.604754458 -5.87499267809 l 1
 568.976596457 -5.85594973145 l 1
 576.284837147 5.6469486494 l 1
 586.007433524 20.9499528684 l 1
 734.407677326 260.149911523 l 1
749.106559264 217.74258324 m 1
 632.429004182 29.0569978628 l 1
 864.52705082 28.7427319813 l 1
 749.106559264 217.74258324 l 1
808.014648438 536.193359375 m 5
 783.603515625 541.588867188 l 5
 759.193359375 546.985351562 l 5
 764.588867188 571.396484375 l 5
 790.688476562 689.46484375 l 5
 106.456054688 22.103515625 l 5
 88.55859375 4.6474609375 l 5
 71.103515625 22.5439453125 l 5
 53.6474609375 40.44140625 l 5
 71.5439453125 57.896484375 l 5
 735.037109375 705.029296875 l 5
 611.116210938 673.759765625 l 5
 598.78515625 722.21484375 l 5
 629.82421875 730.180664062 l 5
 873 792 l 5
 808.014648438 536.193359375 l 5
EndSplineSet
EndChar

StartChar: lt-TC
Encoding: 277 -1 46
Width: 900
VWidth: 0
Flags: HW
LayerCount: 2
Fore
SplineSet
492.01739487 576.75206481 m 0
 494.41621505 559.959434111 502.600610377 557.875385845 502.929113909 557.898807303 c 0
 510.52348754 558.389293646 517.239267103 565.848260072 515.920138976 575.740316201 c 0
 514.148718734 589.910869634 504.405325064 596.400530947 495.398987351 595.885096761 c 0
 494.227536487 595.028705965 490.084566807 590.281186619 492.01739487 576.75206481 c 0
437.569513294 568.973562401 m 0
 433.829370601 595.159631949 441.607187628 647.29784208 490.602644529 650.676799731 c 0
 533.819062041 654.605167382 565.810382551 620.040238114 570.467564966 582.78598108 c 0
 575.545443431 544.700806644 548.730960547 505.739619696 506.658943767 503.026005976 c 0
 462.236568607 499.852979179 441.538220253 541.19570058 437.569513294 568.973562401 c 0
475.166516705 516.312102044 m 1
 492.175268114 543.086096357 l 1
 498.545569496 553.113782039 l 1
 504.859083479 543.05024583 l 1
 521.716148175 516.180632266 l 1
 815.316781341 36.9803598697 l 1
 834.540820184 6.33622548907 l 1
 841.757838841 -5.16808384727 l 1
 828.177185588 -5.14940697002 l 1
 791.962496129 -5.09960249313 l 1
 201.563165344 -4.29979791798 l 1
 165.221368469 -4.25096979298 l 1
 151.59317329 -4.23265921742 l 1
 158.90084096 7.27064606133 l 1
 178.366705582 37.9126776074 l 1
 475.166516705 516.312102044 l 1
498.253996101 449.809966018 m 1
 251.413405665 50.6321931394 l 1
 742.433327305 49.9673413205 l 1
 498.253996101 449.809966018 l 1
226.38671875 581.861328125 m 1
 204.248046875 593.474609375 l 1
 215.861328125 615.61328125 l 1
 247.861328125 676.61328125 l 1
 254.8125 689.864257812 l 1
 269.774414062 689.999023438 l 1
 712.774414062 693.999023438 l 1
 725.374023438 694.112304688 l 1
 732.9609375 684.052734375 l 1
 778.9609375 623.052734375 l 1
 794.012695312 603.091796875 l 1
 774.052734375 588.0390625 l 1
 754.091796875 572.987304688 l 1
 739.0390625 592.947265625 l 1
 700.625976562 643.887695312 l 1
 285.1875 640.135742188 l 1
 260.138671875 592.38671875 l 1
 248.525390625 570.248046875 l 1
 226.38671875 581.861328125 l 1
504.374023438 714.330078125 m 1
 531.73046875 760.407226562 l 1
 473.158203125 759.626953125 l 1
 504.374023438 714.330078125 l 1
485.35546875 653.813476562 m 1
 405.415039062 769.813476562 l 1
 378.841796875 808.373046875 l 1
 425.666992188 808.998046875 l 1
 575.666992188 810.998046875 l 1
 620.26953125 811.592773438 l 1
 597.497070312 773.237304688 l 1
 527.4375 655.237304688 l 1
 506 653 l 1
 485.35546875 653.813476562 l 1
EndSplineSet
EndChar

StartChar: lt-KX
Encoding: 278 -1 47
Width: 950
VWidth: 0
Flags: HW
LayerCount: 2
Fore
SplineSet
884.55200223 315.898662116 m 1
 894.551025667 316.040263679 l 1
 902.050273721 316.146464574 l 1
 902.156474616 308.64721652 l 1
 902.298075887 298.64821368 l 1
 906.298076179 16.2478024579 l 1
 906.439677741 6.24877902038 l 1
 906.545878637 -1.25046903325 l 1
 899.046630583 -1.35666992863 l 1
 889.047607145 -1.49827149113 l 1
 879.048583708 -1.63987305363 l 1
 871.549335654 -1.746073949 l 1
 871.443134759 5.75317410462 l 1
 871.301533488 15.7521769447 l 1
 867.301533196 298.152588167 l 1
 867.159931634 308.151611605 l 1
 867.053730738 315.650859658 l 1
 874.552978792 315.757060554 l 1
 884.55200223 315.898662116 l 1
687.375855128 39.311419675 m 1
 677.38209331 39.6678514772 l 1
 669.886127362 39.9351983182 l 1
 670.154205725 47.4311381411 l 1
 670.511609206 57.4247639361 l 2
 671.464733454 84.1271354545 657.705165016 113.369196839 675.357894166 150.634543371 c 0
 706.946619542 218.582076956 765.806644786 203.257948924 757.406643399 237.419099759 c 0
 748.859023443 272.160353564 709.097011848 269.847916519 650.614168658 280.355867353 c 0
 649.946077521 280.467155262 648.305545197 280.487888285 647.003967428 280.25214184 c 0
 639.151945361 278.828556128 637.025771665 272.986709036 637.217868075 271.930636877 c 2
 639.006930575 262.09176969 l 1
 640.348700265 254.712768802 l 1
 632.969699377 253.370999112 l 1
 623.130123206 251.581807729 l 1
 613.291256018 249.793721791 l 1
 605.91296412 248.452813358 l 1
 604.57121787 255.830952945 l 1
 602.782097897 265.669159644 l 2
 597.802742271 293.056843846 621.153514221 311.135817586 640.758968066 314.690107427 c 0
 645.813476777 315.607019896 651.010910092 315.772729938 656.586460611 314.843273171 c 0
 700.496001662 306.954032456 775.190716647 311.637767732 791.393383551 245.780191943 c 0
 806.689317234 183.577583597 717.745101657 158.786085617 707.042507387 135.76489436 c 0
 696.107901866 112.681107298 706.921262476 96.2951826633 705.488398523 56.1760386228 c 2
 705.13195321 46.1818979978 l 1
 704.864605436 38.685905885 l 1
 697.368640385 38.9540113486 l 1
 687.375855128 39.311419675 l 1
695.045713578 33.6524667146 m 0
 695.570649222 29.9790845956 696.801677877 28.2416300173 697.324922113 27.6013888858 c 0
 698.705902048 28.1891915833 699.88794514 29.718122496 699.565619788 32.1350477401 c 0
 699.017059256 36.5255358725 696.503591311 38.2867993301 695.057387194 38.7541780523 c 1
 694.75279319 37.0734344004 694.709037964 36.0099013406 695.045713578 33.6524667146 c 0
660.397616173 28.7022329088 m 0
 658.457898805 42.2834102055 662.339399291 71.8927873759 690.327255198 73.8223095353 c 0
 714.244057746 75.996894345 731.748944962 56.8453614752 734.278094372 36.6191207716 c 0
 737.072892556 15.6581343942 722.298561942 -5.97413064687 698.908950051 -7.48278263791 c 0
 673.69571142 -9.28372825443 662.483240104 14.1007018752 660.397616173 28.7022329088 c 0
808.014648438 536.193359375 m 5
 783.603515625 541.588867188 l 5
 759.193359375 546.985351562 l 5
 764.588867188 571.396484375 l 5
 790.688476562 689.46484375 l 5
 106.456054688 22.103515625 l 5
 88.55859375 4.6474609375 l 5
 71.103515625 22.5439453125 l 5
 53.6474609375 40.44140625 l 5
 71.5439453125 57.896484375 l 5
 735.037109375 705.029296875 l 5
 611.116210938 673.759765625 l 5
 598.78515625 722.21484375 l 5
 629.82421875 730.180664062 l 5
 873 792 l 5
 808.014648438 536.193359375 l 5
EndSplineSet
EndChar

StartChar: lt-TX
Encoding: 279 -1 48
Width: 900
VWidth: 0
Flags: HW
LayerCount: 2
Fore
SplineSet
769.210205355 624.297099616 m 1
 789.20825223 624.580302741 l 1
 796.707500283 624.686503637 l 1
 796.813701179 617.187255583 l 1
 797.096904009 597.189229489 l 1
 805.096904304 32.3894040204 l 1
 805.380107429 12.3913571454 l 1
 805.486308324 4.89210909175 l 1
 797.98706027 4.78590819637 l 1
 777.989018581 4.50270514481 l 1
 757.991948268 4.21950201981 l 1
 750.49306123 4.11330105087 l 1
 750.386499328 11.6121829684 l 1
 750.102314741 31.6105751986 l 1
 742.102314446 596.410400667 l 1
 741.819111321 616.408447542 l 1
 741.712910426 623.907695596 l 1
 749.21215848 624.013896491 l 1
 769.210205355 624.297099616 l 1
375.018433271 86.1170837464 m 1
 355.031128584 86.8309509339 l 1
 347.535907643 87.098650475 l 1
 347.803607184 94.5938714161 l 1
 348.517472652 114.581127959 l 2
 350.534047632 171.052637876 323.536881858 226.372354192 357.505352977 298.082780337 c 0
 416.236947997 424.411455769 540.531691969 401.660650307 522.096091635 476.630057129 c 0
 503.333652155 552.889687461 416.35282631 547.645900779 302.50750294 568.102976516 c 0
 300.051582954 568.512185074 296.142631403 568.513736695 292.670315707 567.884038096 c 0
 274.331099579 564.558251392 265.63652777 550.32979818 267.056799712 542.519149578 c 2
 270.63394815 522.841415203 l 1
 271.975351637 515.46241431 l 1
 264.59636246 514.120946378 l 1
 244.91989469 510.543850675 l 1
 225.242160315 506.965725675 l 1
 217.863159427 505.623955985 l 1
 216.521389737 513.002956873 l 1
 212.943241299 532.680820151 l 2
 204.004804456 581.842222788 246.068112402 615.330117388 282.857436395 622.001778134 c 0
 292.208349693 623.69701645 301.740359611 623.988797973 311.89187297 622.297420841 c 0
 402.840092561 605.955007741 544.716063434 614.908399568 575.503735113 489.769449756 c 0
 604.779664085 370.715642281 433.290879651 330.632192342 407.295439279 274.717047903 c 0
 383.877436788 225.278940877 406.252246721 190.169221639 403.482525629 112.618042646 c 2
 402.768658441 92.6307379589 l 1
 402.5009589 85.1355170178 l 1
 395.005737959 85.4032165589 l 1
 375.018433271 86.1170837464 l 1
382.667763284 66.2434312346 m 0
 385.066672283 49.4501787684 393.250365506 47.3674815888 393.579212386 47.3909778392 c 0
 401.173314558 47.8808808943 407.888944323 55.3395696066 406.570497147 65.2317867512 c 0
 404.79912743 79.4019360181 395.055179516 85.8923782246 386.048301331 85.3763411874 c 0
 384.877116908 84.520200859 380.734211797 79.7735690837 382.667763284 66.2434312346 c 0
328.21992405 58.4646324384 m 0
 324.478734493 84.6509310421 332.257586728 136.790185898 381.252053912 140.168012117 c 0
 424.469307261 144.097449694 456.460886488 109.531276451 461.116991273 72.2771010494 c 0
 466.19484282 34.1932144422 439.381460389 -4.76917035345 397.308358306 -7.48278309961 c 0
 352.886876142 -10.6558267683 332.188615788 30.6868771487 328.21992405 58.4646324384 c 0
226.38671875 581.861328125 m 1
 204.248046875 593.474609375 l 1
 215.861328125 615.61328125 l 1
 247.861328125 676.61328125 l 1
 254.8125 689.864257812 l 1
 269.774414062 689.999023438 l 1
 712.774414062 693.999023438 l 1
 725.374023438 694.112304688 l 1
 732.9609375 684.052734375 l 1
 778.9609375 623.052734375 l 1
 794.012695312 603.091796875 l 1
 774.052734375 588.0390625 l 1
 754.091796875 572.987304688 l 1
 739.0390625 592.947265625 l 1
 700.625976562 643.887695312 l 1
 285.1875 640.135742188 l 1
 260.138671875 592.38671875 l 1
 248.525390625 570.248046875 l 1
 226.38671875 581.861328125 l 1
504.374023438 714.330078125 m 1
 531.73046875 760.407226562 l 1
 473.158203125 759.626953125 l 1
 504.374023438 714.330078125 l 1
485.35546875 653.813476562 m 1
 405.415039062 769.813476562 l 1
 378.841796875 808.373046875 l 1
 425.666992188 808.998046875 l 1
 575.666992188 810.998046875 l 1
 620.26953125 811.592773438 l 1
 597.497070312 773.237304688 l 1
 527.4375 655.237304688 l 1
 506 653 l 1
 485.35546875 653.813476562 l 1
EndSplineSet
EndChar

StartChar: lt-KL
Encoding: 280 -1 49
Width: 950
VWidth: 0
Flags: HW
LayerCount: 2
Fore
SplineSet
744.284997013 158.552985599 m 2
 743.798354317 124.854925481 744.782151265 92.2686640393 750.493252587 55.4845487153 c 0
 753.984069874 32.9988704667 784.615472609 26.3729105281 832.321183524 25.4967847057 c 0
 869.224744041 24.8196637471 875.200513853 30.6509556675 907.847144287 56.8486022139 c 2
 915.646948974 63.1073912764 l 1
 921.496170236 67.8009757343 l 1
 926.190112189 61.9520413551 l 1
 932.449188151 54.1528557131 l 1
 938.707977214 46.3530510256 l 1
 943.401848552 40.5034722493 l 1
 937.552269776 35.8096009111 l 1
 929.752547071 29.5508776353 l 2
 897.333933457 3.53649672609 876.763728622 -10.3249477786 831.678843995 -9.49678521061 c 0
 792.11320871 -8.77096471036 724.851524362 -7.49562731795 715.907137309 50.1150653585 c 0
 710.362523486 85.8301754935 709.020288604 119.461973573 709.191606758 149.751692158 c 1
 595.353837444 210.564413616 l 1
 580.047196819 218.741171428 l 1
 568.56704016 224.873833908 l 1
 579.62964736 231.731112373 l 1
 594.380885294 240.874829067 l 1
 719.581053964 318.474421929 l 1
 734.281249276 327.585750054 l 1
 745.30658246 334.419361866 l 1
 745.728454202 321.454862398 l 1
 746.290958358 304.168601841 l 2
 748.027546856 250.773676866 745.269710651 207.458464961 744.414355125 165.866314293 c 2
 744.299287821 163.412813096 l 1
 744.284997013 158.552985599 l 2
710.017328437 188.991794836 m 1
 710.854092562 215.85346611 711.915928809 242.399946725 711.843083942 272.501056386 c 1
 638.633592535 227.125769341 l 1
 710.017328437 188.991794836 l 1
808.014648438 536.193359375 m 5
 783.603515625 541.588867188 l 5
 759.193359375 546.985351562 l 5
 764.588867188 571.396484375 l 5
 790.688476562 689.46484375 l 5
 106.456054688 22.103515625 l 5
 88.55859375 4.6474609375 l 5
 71.103515625 22.5439453125 l 5
 53.6474609375 40.44140625 l 5
 71.5439453125 57.896484375 l 5
 735.037109375 705.029296875 l 5
 611.116210938 673.759765625 l 5
 598.78515625 722.21484375 l 5
 629.82421875 730.180664062 l 5
 873 792 l 5
 808.014648438 536.193359375 l 5
EndSplineSet
EndChar

StartChar: lt-TL
Encoding: 281 -1 50
Width: 900
VWidth: 0
Flags: HW
LayerCount: 2
Fore
SplineSet
481.071135151 317.171519034 m 2
 480.096200204 249.660198787 482.073177341 183.90233564 493.574307274 109.81853309 c 0
 501.736302192 57.2440278967 571.018726297 45.210692237 664.504872394 43.4958063973 c 0
 739.889147628 42.111669682 755.280242864 55.6008697162 820.389180488 107.848637532 c 2
 835.987813301 120.365239094 l 1
 841.837427395 125.059066418 l 1
 846.531254719 119.209452324 l 1
 859.047677522 103.611042279 l 1
 871.565255647 88.012409467 l 1
 876.259484506 82.1627513636 l 1
 870.409647637 77.4687452807 l 1
 854.811237656 64.9523225292 l 2
 790.056147279 12.9877093049 751.743242611 -13.1148364005 663.495163266 -11.495807052 c 0
 582.620540671 -10.0112463521 455.952995797 -6.36671682997 439.225498983 101.38165211 c 0
 427.937799612 174.089350858 425.406442071 240.959091364 425.91602455 303.983878506 c 1
 194.242520547 427.744095118 l 1
 163.627286172 444.098587305 l 1
 152.146779264 450.231411841 l 1
 163.209877928 457.088628739 l 1
 192.711939981 475.374829067 l 1
 443.112245806 630.573995257 l 1
 472.513612993 648.797628069 l 1
 483.539011575 655.631419644 l 1
 483.960876301 642.666769578 l 1
 485.085882479 608.093337459 l 2
 488.543005333 501.766949611 483.04300903 415.167520444 481.332322476 331.984410314 c 2
 481.099109592 327.013699347 l 1
 481.071135151 317.171519034 l 2
427.166043773 365.671690019 m 1
 428.946448 426.564359834 431.731510639 489.202843582 431.102630469 558.422534825 c 1
 262.252788054 453.768437995 l 1
 427.166043773 365.671690019 l 1
226.38671875 581.861328125 m 1
 204.248046875 593.474609375 l 1
 215.861328125 615.61328125 l 1
 247.861328125 676.61328125 l 1
 254.8125 689.864257812 l 1
 269.774414062 689.999023438 l 1
 712.774414062 693.999023438 l 1
 725.374023438 694.112304688 l 1
 732.9609375 684.052734375 l 1
 778.9609375 623.052734375 l 1
 794.012695312 603.091796875 l 1
 774.052734375 588.0390625 l 1
 754.091796875 572.987304688 l 1
 739.0390625 592.947265625 l 1
 700.625976562 643.887695312 l 1
 285.1875 640.135742188 l 1
 260.138671875 592.38671875 l 1
 248.525390625 570.248046875 l 1
 226.38671875 581.861328125 l 1
504.374023438 714.330078125 m 1
 531.73046875 760.407226562 l 1
 473.158203125 759.626953125 l 1
 504.374023438 714.330078125 l 1
485.35546875 653.813476562 m 1
 405.415039062 769.813476562 l 1
 378.841796875 808.373046875 l 1
 425.666992188 808.998046875 l 1
 575.666992188 810.998046875 l 1
 620.26953125 811.592773438 l 1
 597.497070312 773.237304688 l 1
 527.4375 655.237304688 l 1
 506 653 l 1
 485.35546875 653.813476562 l 1
EndSplineSet
EndChar

StartChar: lt-KW
Encoding: 282 -1 51
Width: 950
VWidth: 0
Flags: HW
LayerCount: 2
Fore
SplineSet
773.836527681 -4.55418063935 m 1
 765.572753234 -18.430329436 l 1
 759.375133788 -28.8370860784 l 1
 752.821541587 -18.6507471939 l 1
 744.083446821 -5.0690057839 l 1
 585.283829233 241.730508136 l 1
 575.382462046 257.117226886 l 1
 567.956308975 268.657464363 l 1
 581.679446196 268.675774574 l 1
 599.977515135 268.700188923 l 1
 905.977328528 269.09960274 l 1
 923.597445716 269.12304024 l 1
 936.813221093 269.14061928 l 1
 930.051383288 257.785683025 l 1
 921.035848996 242.646186915 l 1
 773.836527681 -4.55418063935 l 1
758.223780265 37.636951527 m 1
 875.187285891 234.059857349 l 1
 632.043156531 233.741601268 l 1
 758.223780265 37.636951527 l 1
732.163472319 318.55418064 m 1
 740.427246766 332.430329436 l 1
 746.624866212 342.837086078 l 1
 753.178458413 332.650747194 l 1
 761.916553179 319.069005784 l 1
 920.716170767 72.2694918637 l 1
 930.617537954 56.8827731137 l 1
 938.043691025 45.3425356373 l 1
 924.320553804 45.3242254259 l 1
 906.022484865 45.2998110765 l 1
 600.022671472 44.9003972599 l 1
 582.402554284 44.8769597599 l 1
 569.186778907 44.8593807205 l 1
 575.948616712 56.2143169746 l 1
 584.964151004 71.3538130847 l 1
 732.163472319 318.55418064 l 1
747.776219735 276.363048473 m 1
 630.812714109 79.9401426512 l 1
 873.956843469 80.2583987323 l 1
 747.776219735 276.363048473 l 1
808.014648438 536.193359375 m 5
 783.603515625 541.588867188 l 5
 759.193359375 546.985351562 l 5
 764.588867188 571.396484375 l 5
 790.688476562 689.46484375 l 5
 106.456054688 22.103515625 l 5
 88.55859375 4.6474609375 l 5
 71.103515625 22.5439453125 l 5
 53.6474609375 40.44140625 l 5
 71.5439453125 57.896484375 l 5
 735.037109375 705.029296875 l 5
 611.116210938 673.759765625 l 5
 598.78515625 722.21484375 l 5
 629.82421875 730.180664062 l 5
 873 792 l 5
 808.014648438 536.193359375 l 5
EndSplineSet
EndChar

StartChar: lt-TW
Encoding: 283 -1 52
Width: 900
VWidth: 0
Flags: HW
LayerCount: 2
Fore
SplineSet
541.228251339 -5.26979591015 m 1
 524.702894769 -33.0226684054 l 1
 518.505686251 -43.4303311445 l 1
 511.951527578 -33.2436809988 l 1
 494.474071821 -6.0797479714 l 1
 176.874499863 487.519803252 l 1
 157.07274205 518.294217315 l 1
 149.647104881 529.834588382 l 1
 163.37007576 529.852532651 l 1
 199.964807855 529.90038422 l 1
 811.964840781 530.700188951 l 1
 847.204098594 530.746087388 l 1
 860.418715463 530.763299166 l 1
 853.658011324 519.409036759 l 1
 835.62860791 489.129560964 l 1
 541.228251339 -5.26979591015 l 1
516.694484511 61.029492423 m 1
 763.580815185 475.637005816 l 1
 250.352752732 474.965234049 l 1
 516.694484511 61.029492423 l 1
470.771748661 633.269795912 m 1
 487.297105231 661.022668405 l 1
 493.494313749 671.430331145 l 1
 500.048472422 661.243680999 l 1
 517.525928179 634.079747971 l 1
 835.125500137 140.480196748 l 1
 854.92725795 109.705782685 l 1
 862.352895119 98.1654116179 l 1
 848.62992424 98.1474673494 l 1
 812.035192145 98.0996157797 l 1
 200.035159219 97.2998110492 l 1
 164.795901406 97.2539126117 l 1
 151.581284537 97.2367008341 l 1
 158.341988676 108.590963241 l 1
 176.37139209 138.870439036 l 1
 470.771748661 633.269795912 l 1
495.305515489 566.970507577 m 1
 248.419184815 152.362994184 l 1
 761.647247268 153.034765951 l 1
 495.305515489 566.970507577 l 1
226.38671875 581.861328125 m 1
 204.248046875 593.474609375 l 1
 215.861328125 615.61328125 l 1
 247.861328125 676.61328125 l 1
 254.8125 689.864257812 l 1
 269.774414062 689.999023438 l 1
 712.774414062 693.999023438 l 1
 725.374023438 694.112304688 l 1
 732.9609375 684.052734375 l 1
 778.9609375 623.052734375 l 1
 794.012695312 603.091796875 l 1
 774.052734375 588.0390625 l 1
 754.091796875 572.987304688 l 1
 739.0390625 592.947265625 l 1
 700.625976562 643.887695312 l 1
 285.1875 640.135742188 l 1
 260.138671875 592.38671875 l 1
 248.525390625 570.248046875 l 1
 226.38671875 581.861328125 l 1
504.374023438 714.330078125 m 1
 531.73046875 760.407226562 l 1
 473.158203125 759.626953125 l 1
 504.374023438 714.330078125 l 1
485.35546875 653.813476562 m 1
 405.415039062 769.813476562 l 1
 378.841796875 808.373046875 l 1
 425.666992188 808.998046875 l 1
 575.666992188 810.998046875 l 1
 620.26953125 811.592773438 l 1
 597.497070312 773.237304688 l 1
 527.4375 655.237304688 l 1
 506 653 l 1
 485.35546875 653.813476562 l 1
EndSplineSet
EndChar

StartChar: lt-KG
Encoding: 284 -1 53
Width: 950
VWidth: 0
Flags: HW
LayerCount: 2
Fore
SplineSet
587.016145353 122.685888419 m 2
 632.954634532 132.857692207 678.340314857 147.910324752 721.479007496 159.00287063 c 1
 642.289229184 155.61915702 625.496142863 257.952311581 605.708272262 308.410896637 c 2
 602.056905075 317.72046695 l 1
 599.31804103 324.70350812 l 1
 606.301428786 327.441488342 l 1
 615.61109195 331.091532425 l 1
 624.920662262 334.742899613 l 1
 631.90345451 337.481666026 l 1
 634.64158606 330.498624808 l 1
 638.291882281 321.189295242 l 2
 665.94715257 250.667372421 677.686956241 184.96697948 724.436166399 191.339469836 c 0
 747.303854579 194.456861012 780.283593841 218.073648075 801.816565853 249.444620144 c 0
 819.880107915 275.760252352 828.112189831 307.0519662 832.993870405 317.510947195 c 2
 834.210169565 320.116863253 l 1
 836.85692151 321.241534891 l 2
 837.047676641 321.322591556 844.858655663 324.974688848 852.811045357 325.456602257 c 0
 857.288375042 325.727927644 867.744620735 323.849228968 867.786073394 313.36481516 c 0
 867.804029078 308.854010633 866.791388573 304.644506407 864.269172999 301.68022992 c 0
 863.312552514 299.460132508 863.224760388 299.252200718 862.514575841 297.575155786 c 0
 845.652068283 257.759199745 828.776381295 229.438799588 812.855158336 207.571804793 c 0
 802.298475163 193.07263484 791.264047554 180.403799198 782.921909894 171.130969065 c 1
 821.318543593 175.515244992 855.969968103 172.745682762 888.064833855 153.888405142 c 0
 924.447474445 132.512915152 914.301898705 86.6088999849 896.865506865 57.0078608228 c 0
 884.911037991 36.7135918617 867.011831543 17.9103120139 845.05225526 6.16745786496 c 0
 802.806701787 -16.4227445035 724.050458596 -16.4848852675 699.276461915 30.2506093543 c 0
 694.426631759 39.4016204849 692.313326064 50.0595938471 693.378453049 61.2573395109 c 0
 695.551196796 84.0907095668 699.744828884 103.206921668 705.018189452 118.31266771 c 1
 668.602408142 108.081361536 633.492965677 97.1296279159 594.583463619 88.5143068058 c 2
 584.819791744 86.3521974308 l 1
 577.497184487 84.7306478743 l 1
 575.875634931 92.053255131 l 1
 573.713405193 101.817470638 l 1
 571.55227238 111.580165951 l 1
 569.93142102 118.902195344 l 1
 577.253295823 120.52374489 l 1
 587.016145353 122.685888419 l 2
748.928077927 129.631365575 m 2
 748.406957486 128.777882426 748.662256703 129.20477144 748.149618999 128.346166417 c 0
 738.611168403 112.378514296 731.512787017 92.5322211387 728.221203738 57.9423776689 c 0
 727.749578263 52.9825531777 728.569012472 49.7206678861 730.200739638 46.642605535 c 0
 739.724415715 28.6768156228 794.947232585 19.0646254389 828.547211032 37.0316843712 c 0
 843.681177453 45.1247763765 857.704773875 59.486888993 866.708750867 74.7715022293 c 0
 882.596315127 101.742081634 878.247091288 119.062370736 870.334444016 123.71128425 c 0
 839.868761385 141.611312573 801.318604053 140.916941549 753.91054576 130.728888681 c 0
 752.437394121 130.412348251 748.928077927 129.631365575 748.928077927 129.631365575 c 2
808.014648438 536.193359375 m 5
 783.603515625 541.588867188 l 5
 759.193359375 546.985351562 l 5
 764.588867188 571.396484375 l 5
 790.688476562 689.46484375 l 5
 106.456054688 22.103515625 l 5
 88.55859375 4.6474609375 l 5
 71.103515625 22.5439453125 l 5
 53.6474609375 40.44140625 l 5
 71.5439453125 57.896484375 l 5
 735.037109375 705.029296875 l 5
 611.116210938 673.759765625 l 5
 598.78515625 722.21484375 l 5
 629.82421875 730.180664062 l 5
 873 792 l 5
 808.014648438 536.193359375 l 5
EndSplineSet
EndChar

StartChar: lt-TG
Encoding: 285 -1 54
Width: 900
VWidth: 0
Flags: HW
LayerCount: 2
Fore
SplineSet
175.655025237 238.049215728 m 2
 270.091787687 258.960802859 362.664015311 290.018196094 450.487655054 312.180355767 c 0
 452.926161507 312.79553946 465.589273832 318.135472735 466.941882601 319.118782604 c 0
 470.809473554 323.692824897 476.383717264 327.379856819 480.058167616 330.022805217 c 1
 471.055489893 328.593079222 463.591107857 327.647564889 458.612662311 326.969123993 c 0
 295.160749608 304.686860657 260.745433608 511.57474379 218.39852866 619.559776 c 2
 211.096770848 638.179893187 l 1
 208.358744094 645.162099434 l 1
 215.340901531 647.900250654 l 1
 233.960042156 655.202008467 l 1
 252.579182781 662.503766279 l 1
 259.561589155 665.242015123 l 1
 262.299713527 658.259559938 l 1
 269.601428341 639.639552398 l 2
 323.343527563 502.598859238 347.830538648 361.336346481 449.885385149 375.247672961 c 0
 498.947637093 381.935984874 565.932419298 430.712244332 609.816565853 494.644815457 c 0
 646.792200959 548.512280139 663.605439228 612.181574428 672.78265351 631.84823915 c 2
 673.991816025 634.439460521 l 1
 676.619166734 635.567968578 l 2
 676.867806301 635.674765038 693.061252789 643.037073492 707.332084443 643.485123488 c 0
 715.492779045 643.741338352 728.018457036 640.294956921 728.072206206 626.699776098 c 0
 728.109871429 617.237565889 727.026253553 611.867933338 722.720477556 608.79249592 c 0
 721.031819673 604.910765083 720.008336662 602.528613327 718.123031126 598.076266582 c 0
 684.599361574 518.915489458 651.157282849 462.83336788 619.647999506 419.55893426 c 0
 593.197997058 383.233150502 567.254661461 354.949905433 546.533224921 332.114210826 c 1
 627.541032776 344.168393722 704.402993107 341.220934065 772.330581789 301.310207914 c 0
 839.023423029 262.125195775 821.865309604 176.553654125 787.268827178 117.822313948 c 0
 763.980910951 78.2880409981 729.044275846 41.6638803534 686.56790912 18.9496998603 c 0
 603.837031208 -25.2899119495 451.517932264 -23.4033939151 405.181101289 64.0116819276 c 0
 396.185226596 80.981750917 392.223514289 100.781541502 394.223179611 121.805191073 c 0
 399.184340389 173.942043423 409.066325185 215.045779084 422.292642426 247.817792686 c 1
 348.026418154 227.350070983 269.784122431 202.560626551 187.545028591 184.35016701 c 2
 168.017684841 180.026924823 l 1
 160.69507758 178.405741469 l 1
 159.073816935 185.728331618 l 1
 154.750634931 205.254427006 l 1
 150.426416181 224.781770756 l 1
 148.804789319 232.10472711 l 1
 156.127822972 233.726004865 l 1
 175.655025237 238.049215728 l 2
493.148950506 265.886615801 m 0
 491.924003414 263.944326706 490.909430496 262.294202936 489.860556499 260.53854923 c 0
 470.154970297 227.550807442 455.627829832 186.494095129 448.976036748 116.595174426 c 0
 447.909889456 105.39142939 449.84889524 97.1802481986 453.775990124 89.7714077012 c 0
 476.162935699 47.538301036 591.476664169 30.4699279908 660.632242283 67.4506672846 c 0
 692.383344457 84.4295619406 721.227062441 114.071259072 739.879628753 145.737287653 c 0
 772.021377446 200.301491045 766.509514343 240.940217409 744.469251352 253.889970681 c 0
 680.939983924 291.215866378 601.586711717 289.278388821 506.245225347 268.79035167 c 0
 502.323124127 267.947755667 495.694337481 266.466775561 493.148950506 265.886615801 c 0
226.38671875 581.861328125 m 1
 204.248046875 593.474609375 l 1
 215.861328125 615.61328125 l 1
 247.861328125 676.61328125 l 1
 254.8125 689.864257812 l 1
 269.774414062 689.999023438 l 1
 712.774414062 693.999023438 l 1
 725.374023438 694.112304688 l 1
 732.9609375 684.052734375 l 1
 778.9609375 623.052734375 l 1
 794.012695312 603.091796875 l 1
 774.052734375 588.0390625 l 1
 754.091796875 572.987304688 l 1
 739.0390625 592.947265625 l 1
 700.625976562 643.887695312 l 1
 285.1875 640.135742188 l 1
 260.138671875 592.38671875 l 1
 248.525390625 570.248046875 l 1
 226.38671875 581.861328125 l 1
504.374023438 714.330078125 m 1
 531.73046875 760.407226562 l 1
 473.158203125 759.626953125 l 1
 504.374023438 714.330078125 l 1
485.35546875 653.813476562 m 1
 405.415039062 769.813476562 l 1
 378.841796875 808.373046875 l 1
 425.666992188 808.998046875 l 1
 575.666992188 810.998046875 l 1
 620.26953125 811.592773438 l 1
 597.497070312 773.237304688 l 1
 527.4375 655.237304688 l 1
 506 653 l 1
 485.35546875 653.813476562 l 1
EndSplineSet
EndChar

StartChar: lt-KQ
Encoding: 286 -1 55
Width: 950
VWidth: 0
Flags: HW
LayerCount: 2
Fore
SplineSet
640.87579037 1.82103742598 m 1
 643.97350629 247.36535412 l 1
 770.085800022 219.277167416 l 1
 762.477362728 185.114395291 l 1
 678.426898394 203.834008089 l 1
 675.678358291 -14.1192703766 l 1
 640.680534311 -13.6783582912 l 1
 640.87579037 1.82103742598 l 1
848.587888415 330.298278189 m 1
 858.586911852 330.419371939 l 1
 866.086361917 330.510194462 l 1
 866.177184439 323.010744398 l 1
 866.298341716 313.0063145 l 1
 868.298272858 137.412550737 l 1
 868.432061921 126.418410112 l 1
 868.53240995 118.172292476 l 1
 860.313800406 118.852720982 l 1
 849.355802126 119.759946755 l 1
 665.75682639 134.960089636 l 1
 655.791006077 135.784308386 l 1
 648.315797914 136.402542162 l 1
 648.93475921 143.877690121 l 1
 649.759949535 153.843450206 l 1
 650.585144848 163.810247081 l 1
 651.203990665 171.284732774 l 1
 658.678471371 170.665826728 l 1
 668.644193792 169.84063952 l 1
 833.074988927 156.227519038 l 1
 831.301331186 312.587888415 l 1
 831.180237436 322.586911852 l 1
 831.089414913 330.086361917 l 1
 838.588864977 330.177184439 l 1
 848.587888415 330.298278189 l 1
808.014648438 536.193359375 m 5
 783.603515625 541.588867188 l 5
 759.193359375 546.985351562 l 5
 764.588867188 571.396484375 l 5
 790.688476562 689.46484375 l 5
 106.456054688 22.103515625 l 5
 88.55859375 4.6474609375 l 5
 71.103515625 22.5439453125 l 5
 53.6474609375 40.44140625 l 5
 71.5439453125 57.896484375 l 5
 735.037109375 705.029296875 l 5
 611.116210938 673.759765625 l 5
 598.78515625 722.21484375 l 5
 629.82421875 730.180664062 l 5
 873 792 l 5
 808.014648438 536.193359375 l 5
EndSplineSet
EndChar

StartChar: lt-TQ
Encoding: 287 -1 56
Width: 900
VWidth: 0
Flags: HW
LayerCount: 2
Fore
SplineSet
289.275831605 5.4415750222 m 1
 295.328964802 485.40336077 l 1
 531.220565647 432.864081478 l 1
 519.263146641 379.178559913 l 1
 349.470842816 416.997023401 l 1
 343.950457593 -20.6446656724 l 1
 288.955920323 -19.9504529622 l 1
 289.275831605 5.4415750222 l 1
697.266601694 653.098082905 m 1
 717.265627224 653.340270431 l 1
 724.765077342 653.431088519 l 1
 724.855895431 645.931638401 l 1
 725.098146403 625.927212937 l 1
 729.098085621 274.733173753 l 1
 729.363710621 252.744892503 l 1
 729.463313709 244.499807491 l 1
 721.245717072 245.179846571 l 1
 699.331389698 246.993345057 l 1
 332.131098941 277.393743585 l 1
 312.199458316 279.04413421 l 1
 304.725401551 279.663005152 l 1
 305.343908789 287.137092024 l 1
 306.99335296 307.069096371 l 1
 308.643743585 327.000736996 l 1
 309.262644643 334.475157474 l 1
 316.737065121 333.856256415 l 1
 336.668586859 332.205875634 l 1
 673.742005842 304.300735953 l 1
 670.102112382 625.266603787 l 1
 669.859924882 645.265627224 l 1
 669.769106847 652.765072908 l 1
 677.268552477 652.855895377 l 1
 697.266601694 653.098082905 l 1
226.38671875 581.861328125 m 1
 204.248046875 593.474609375 l 1
 215.861328125 615.61328125 l 1
 247.861328125 676.61328125 l 1
 254.8125 689.864257812 l 1
 269.774414062 689.999023438 l 1
 712.774414062 693.999023438 l 1
 725.374023438 694.112304688 l 1
 732.9609375 684.052734375 l 1
 778.9609375 623.052734375 l 1
 794.012695312 603.091796875 l 1
 774.052734375 588.0390625 l 1
 754.091796875 572.987304688 l 1
 739.0390625 592.947265625 l 1
 700.625976562 643.887695312 l 1
 285.1875 640.135742188 l 1
 260.138671875 592.38671875 l 1
 248.525390625 570.248046875 l 1
 226.38671875 581.861328125 l 1
504.374023438 714.330078125 m 1
 531.73046875 760.407226562 l 1
 473.158203125 759.626953125 l 1
 504.374023438 714.330078125 l 1
485.35546875 653.813476562 m 1
 405.415039062 769.813476562 l 1
 378.841796875 808.373046875 l 1
 425.666992188 808.998046875 l 1
 575.666992188 810.998046875 l 1
 620.26953125 811.592773438 l 1
 597.497070312 773.237304688 l 1
 527.4375 655.237304688 l 1
 506 653 l 1
 485.35546875 653.813476562 l 1
EndSplineSet
EndChar

StartChar: lt-KD
Encoding: 288 -1 57
Width: 950
VWidth: 0
Flags: HW
LayerCount: 2
Fore
SplineSet
881.030207275 317.185737797 m 1
 888.793479211 310.883328102 l 1
 894.616260438 306.156255141 l 1
 889.889187477 300.333473914 l 1
 883.58621047 292.569503182 l 1
 643.586094711 -3.03024876592 l 1
 637.282383774 -10.7939206409 l 1
 632.554936786 -16.616260463 l 1
 626.732529562 -11.8888964894 l 1
 618.969751234 -5.58609471122 l 1
 611.206079359 0.717616226284 l 1
 605.383739537 5.44506321387 l 1
 610.111103511 11.2674704382 l 1
 616.413781888 19.0300967805 l 1
 856.413905289 314.630834703 l 1
 862.717616226 322.394506578 l 1
 867.445421639 328.217287839 l 1
 873.267911857 323.489123999 l 1
 881.030207275 317.185737797 l 1
618.969792725 317.185737797 m 1
 626.732088143 323.489123999 l 1
 632.554578361 328.217287839 l 1
 637.282383774 322.394506578 l 1
 643.586218112 314.630682718 l 1
 883.586162114 19.0301657507 l 1
 889.888896489 11.2674704382 l 1
 894.616260463 5.44506321388 l 1
 888.793920641 0.717616226284 l 1
 881.030165751 -5.58616211443 l 1
 873.267470438 -11.8888964894 l 1
 867.445063214 -16.616260463 l 1
 862.717616226 -10.7939206409 l 1
 856.41378953 -3.03010619323 l 1
 616.413546898 292.569802039 l 1
 610.110812523 300.333473914 l 1
 605.383739562 306.156255141 l 1
 611.206520789 310.883328102 l 1
 618.969792725 317.185737797 l 1
808.014648438 536.193359375 m 5
 783.603515625 541.588867188 l 5
 759.193359375 546.985351562 l 5
 764.588867188 571.396484375 l 5
 790.688476562 689.46484375 l 5
 106.456054688 22.103515625 l 5
 88.55859375 4.6474609375 l 5
 71.103515625 22.5439453125 l 5
 53.6474609375 40.44140625 l 5
 71.5439453125 57.896484375 l 5
 735.037109375 705.029296875 l 5
 611.116210938 673.759765625 l 5
 598.78515625 722.21484375 l 5
 629.82421875 730.180664062 l 5
 873 792 l 5
 808.014648438 536.193359375 l 5
EndSplineSet
EndChar

StartChar: lt-TD
Encoding: 289 -1 58
Width: 900
VWidth: 0
Flags: HW
LayerCount: 2
Fore
SplineSet
757.333828601 628.549091784 m 1
 772.860285386 615.942573723 l 1
 778.682741922 611.215100837 l 1
 773.955269036 605.392644301 l 1
 761.348909604 589.866382888 l 1
 281.349002929 -1.33369747633 l 1
 268.743534179 -16.8600646638 l 1
 264.016248304 -22.6827419281 l 1
 258.193604751 -17.9554145304 l 1
 242.666302524 -5.34900292912 l 1
 227.139935336 7.25646582088 l 1
 221.317258072 11.9837516959 l 1
 226.04458547 17.8063952487 l 1
 238.651090396 33.3338124243 l 1
 718.650997071 624.533892789 l 1
 731.256465821 640.060259976 l 1
 735.983751696 645.882937241 l 1
 741.806395249 641.155609843 l 1
 757.333828601 628.549091784 l 1
242.666171399 628.549091784 m 1
 258.193604751 641.155609843 l 1
 264.016248304 645.882937241 l 1
 268.743534179 640.060259976 l 1
 281.348909604 624.534007737 l 1
 761.348969218 33.3337389987 l 1
 773.95541453 17.8063952487 l 1
 778.682741928 11.9837516959 l 1
 772.860064664 7.25646582088 l 1
 757.333738999 -5.3489692179 l 1
 741.806395249 -17.9554145304 l 1
 735.983751696 -22.6827419281 l 1
 731.256465821 -16.8600646638 l 1
 718.651090396 -1.33381242434 l 1
 238.651176277 589.866277114 l 1
 226.044730964 605.392644301 l 1
 221.317258078 611.215100837 l 1
 227.139714614 615.942573723 l 1
 242.666171399 628.549091784 l 1
226.38671875 581.861328125 m 1
 204.248046875 593.474609375 l 1
 215.861328125 615.61328125 l 1
 247.861328125 676.61328125 l 1
 254.8125 689.864257812 l 1
 269.774414062 689.999023438 l 1
 712.774414062 693.999023438 l 1
 725.374023438 694.112304688 l 1
 732.9609375 684.052734375 l 1
 778.9609375 623.052734375 l 1
 794.012695312 603.091796875 l 1
 774.052734375 588.0390625 l 1
 754.091796875 572.987304688 l 1
 739.0390625 592.947265625 l 1
 700.625976562 643.887695312 l 1
 285.1875 640.135742188 l 1
 260.138671875 592.38671875 l 1
 248.525390625 570.248046875 l 1
 226.38671875 581.861328125 l 1
504.374023438 714.330078125 m 1
 531.73046875 760.407226562 l 1
 473.158203125 759.626953125 l 1
 504.374023438 714.330078125 l 1
485.35546875 653.813476562 m 1
 405.415039062 769.813476562 l 1
 378.841796875 808.373046875 l 1
 425.666992188 808.998046875 l 1
 575.666992188 810.998046875 l 1
 620.26953125 811.592773438 l 1
 597.497070312 773.237304688 l 1
 527.4375 655.237304688 l 1
 506 653 l 1
 485.35546875 653.813476562 l 1
EndSplineSet
EndChar

StartChar: lt-KB
Encoding: 290 -1 59
Width: 950
VWidth: 0
Flags: HW
LayerCount: 2
Fore
SplineSet
702.835316463 242.139238539 m 1
 712.74316006 243.490751996 l 1
 720.174341744 244.504427873 l 1
 721.188017621 237.07324619 l 1
 722.539619177 227.164756708 l 2
 727.500413256 190.787080518 730.858797925 183.047587823 734.16621604 183.403760091 c 0
 735.372680457 183.529768767 736.230637052 183.891389824 737.561634324 185.99208554 c 0
 742.025590432 193.037489516 742.897759406 213.527298611 742.193074455 231.832958311 c 2
 742.10518383 234.111278624 l 1
 741.777754774 242.598967367 l 1
 750.240671449 241.872943028 l 1
 770.057950077 240.172840353 l 2
 784.250003639 238.957387294 782.634603571 203.208070035 782.634603571 203.208070035 c 2
 792.055619154 163.169753914 791.267912868 132.824881755 765.391667168 96.9602278809 c 0
 758.711324852 87.7016271759 748.216615849 84.912345967 739.878579264 85.5021219043 c 0
 721.008558401 86.8379919599 694.370947127 104.636739751 696.568088625 129.538109827 c 2
 697.446994875 139.499047327 l 1
 698.106198452 146.970021202 l 1
 705.577172327 146.310817625 l 1
 715.538109827 145.431911375 l 1
 725.499047327 144.553005125 l 1
 732.969892543 143.8938129 l 1
 732.310828977 136.422956334 l 1
 731.621341774 128.607230721 l 2
 733.52399107 126.318224216 737.695061402 122.926067494 739.828733861 121.605504055 c 0
 747.467716053 133.940551666 751.070647522 145.571939957 753.06255642 157.194926024 c 1
 748.657934037 152.695158641 744.378894563 149.301351339 737.842068557 148.596822761 c 0
 689.801937656 143.423550051 690.128957526 205.801944193 687.860810504 222.435542873 c 2
 686.509248004 232.343745998 l 1
 685.495474037 239.775646771 l 1
 692.92747287 240.788701609 l 1
 702.835316463 242.139238539 l 1
864.835171857 258.863590303 m 1
 856.643937659 253.129335748 l 1
 850.499983335 248.828274734 l 1
 846.198774895 254.972125849 l 1
 840.463205643 263.164819627 l 2
 832.977832556 273.858087121 820.646358257 288.146775467 817.583715083 289.685397613 c 0
 736.339323749 284.861856126 696.896407689 290.924835305 655.769114421 248.762939298 c 0
 624.250786059 216.452219769 631.535687542 206.693749156 631.89919624 158.933136733 c 0
 632.272137487 110.000845524 627.55059464 79.1453398754 659.241246637 47.1064091325 c 0
 697.623939902 8.30390109399 749.89428764 31.7206463465 845.68903385 37.5018189544 c 1
 847.269911592 43.6149951373 848.539133272 53.1330362535 849.559100274 58.9986168819 c 2
 851.271990899 68.8501793819 l 1
 852.556719102 76.2391976914 l 1
 859.945758901 74.9545930916 l 1
 869.799132527 73.241557327 l 1
 879.650695027 71.5276901395 l 1
 887.038878784 70.2423746663 l 1
 885.754397779 62.8540457861 l 1
 884.076830171 53.2046845556 l 2
 883.899683452 50.4824655957 885.579287554 4.37126982948 854.414680551 2.91926897001 c 0
 767.255414152 -1.14386534286 692.796857538 -36.5849032349 634.358347564 22.4932155828 c 0
 590.861218267 66.4663523741 597.234077564 114.931521613 596.900608387 158.666480481 c 0
 596.566736906 202.478575912 588.953182838 230.389482013 630.714223137 273.201842042 c 0
 687.426225941 331.340973388 745.135415893 321.555772599 818.078308563 324.693276331 c 0
 844.731571049 325.838938273 861.928621323 293.532767159 869.13653013 283.235390425 c 2
 874.87090513 275.043007613 l 1
 879.171725243 268.898664982 l 1
 873.027382613 264.59784487 l 1
 864.835171857 258.863590303 l 1
808.014648438 536.193359375 m 5
 783.603515625 541.588867188 l 5
 759.193359375 546.985351562 l 5
 764.588867188 571.396484375 l 5
 790.688476562 689.46484375 l 5
 106.456054688 22.103515625 l 5
 88.55859375 4.6474609375 l 5
 71.103515625 22.5439453125 l 5
 53.6474609375 40.44140625 l 5
 71.5439453125 57.896484375 l 5
 735.037109375 705.029296875 l 5
 611.116210938 673.759765625 l 5
 598.78515625 722.21484375 l 5
 629.82421875 730.180664062 l 5
 873 792 l 5
 808.014648438 536.193359375 l 5
EndSplineSet
EndChar

StartChar: lt-TB
Encoding: 291 -1 60
Width: 900
VWidth: 0
Flags: HW
LayerCount: 2
Fore
SplineSet
406.683794021 476.848201736 m 1
 426.501381109 479.550378027 l 1
 433.932569488 480.563638671 l 1
 434.945879155 473.132456976 l 1
 437.648032796 453.316012561 l 2
 446.971115165 384.941872497 452.506630234 357.559867497 469.111319651 359.348074209 c 0
 490.0714801 361.537842828 493.894961835 411.655482342 491.880512757 463.955655872 c 2
 491.705708069 468.512296497 l 1
 491.380172931 476.998033664 l 1
 499.841090299 476.272371423 l 1
 539.477236892 472.872922665 l 2
 556.284679172 471.430492917 556.656062662 410.276536865 557.968583162 404.69832474 c 0
 576.587095769 325.572610895 575.078340513 268.129476171 524.70123748 198.308860693 c 0
 513.226434954 182.405392019 495.044359553 177.44161375 480.285999159 178.48648322 c 0
 445.278122866 180.963895257 396.75764593 214.799599617 400.606171733 258.416984015 c 2
 402.363984233 278.339835577 l 1
 403.023155748 285.810812281 l 1
 410.494132452 285.151640767 l 1
 430.416984015 283.393828267 l 1
 450.339835577 281.636015767 l 1
 457.811015877 280.976826289 l 1
 457.151622801 273.505663955 l 1
 455.530808584 255.141251957 l 2
 458.731145744 249.610089417 474.733778888 236.175682292 482.366006697 233.711367914 c 1
 504.923184228 266.591231518 514.872622405 306.20897536 516.270815151 339.803460984 c 1
 506.158691247 324.372764927 493.247826553 306.62935841 474.881224095 304.651520281 c 0
 388.154282719 295.311106413 388.258330276 408.435794954 383.151777095 445.884144586 c 2
 380.449628658 465.700550836 l 1
 379.43636133 473.131422035 l 1
 386.867183498 474.145048871 l 1
 406.683794021 476.848201736 l 1
725.370278939 523.871368388 m 1
 708.985636204 512.401727851 l 1
 702.841219837 508.100489907 l 1
 698.540227682 514.245078325 l 1
 687.071638837 530.629613727 l 2
 669.099383693 556.303527889 641.88705086 587.291761935 635.978147875 586.933659415 c 0
 475.856883105 577.22889254 391.163196494 589.895742578 306.168605188 502.763017931 c 0
 241.327688955 436.290011358 255.582642133 411.877612691 256.298610303 317.809113296 c 0
 257.03580881 221.08392575 247.248904263 155.564252984 313.150485594 88.9393570262 c 0
 394.77918704 6.41597822723 503.520809039 57.0136868831 697.078127317 67.8192943939 c 1
 701.36066701 80.8575473946 704.182158698 103.347316139 706.506416964 116.711801168 c 2
 709.933174776 136.415902731 l 1
 711.218218132 143.80499358 l 1
 718.607308981 142.519950224 l 1
 738.311348727 139.093203162 l 1
 758.016426852 135.666445349 l 1
 765.405590268 134.381453059 l 1
 764.120536161 126.992300394 l 1
 760.708481682 107.372744043 l 2
 760.226214949 102.272039065 762.687367425 15.8562144879 708.480029513 13.3294214572 c 0
 530.88912845 5.05252140878 387.088546933 -64.0172057997 274.048745815 50.2608254879 c 0
 189.59196047 135.642875013 201.975316779 228.824889864 201.300999008 317.390113912 c 0
 200.623381316 406.31107297 185.196753971 457.513946915 266.797253964 541.167685948 c 0
 377.684592739 654.84444845 489.134667801 635.555740836 636.477543223 641.89346393 c 0
 683.490356291 643.915387025 716.632222803 584.307680011 732.128545586 562.170206517 c 2
 743.598272149 545.785440892 l 1
 747.899510093 539.641024525 l 1
 741.754921675 535.34003237 l 1
 725.370278939 523.871368388 l 1
226.38671875 581.861328125 m 1
 204.248046875 593.474609375 l 1
 215.861328125 615.61328125 l 1
 247.861328125 676.61328125 l 1
 254.8125 689.864257812 l 1
 269.774414062 689.999023438 l 1
 712.774414062 693.999023438 l 1
 725.374023438 694.112304688 l 1
 732.9609375 684.052734375 l 1
 778.9609375 623.052734375 l 1
 794.012695312 603.091796875 l 1
 774.052734375 588.0390625 l 1
 754.091796875 572.987304688 l 1
 739.0390625 592.947265625 l 1
 700.625976562 643.887695312 l 1
 285.1875 640.135742188 l 1
 260.138671875 592.38671875 l 1
 248.525390625 570.248046875 l 1
 226.38671875 581.861328125 l 1
504.374023438 714.330078125 m 1
 531.73046875 760.407226562 l 1
 473.158203125 759.626953125 l 1
 504.374023438 714.330078125 l 1
485.35546875 653.813476562 m 1
 405.415039062 769.813476562 l 1
 378.841796875 808.373046875 l 1
 425.666992188 808.998046875 l 1
 575.666992188 810.998046875 l 1
 620.26953125 811.592773438 l 1
 597.497070312 773.237304688 l 1
 527.4375 655.237304688 l 1
 506 653 l 1
 485.35546875 653.813476562 l 1
EndSplineSet
EndChar

StartChar: lt-KA
Encoding: 292 -1 61
Width: 950
VWidth: 0
Flags: HW
LayerCount: 2
Fore
SplineSet
736.711675565 202.903237847 m 1
 744.45783011 212.627923545 l 1
 750.267407896 219.921389959 l 1
 756.145974663 212.683413782 l 1
 763.983747415 203.033168285 l 1
 912.783461055 19.8330850662 l 1
 926.050062618 3.50007725365 l 1
 936.000071192 -8.74974927597 l 1
 920.218421421 -8.72850883213 l 1
 899.176323292 -8.7001883763 l 1
 604.775878225 -8.29979767706 l 1
 584.0629876 -8.27147736456 l 1
 568.528641002 -8.25023756959 l 1
 578.20659744 3.90103950491 l 1
 591.111028836 20.1033568364 l 1
 736.711675565 202.903237847 l 1
750.533690169 164.078581718 m 1
 641.072549959 26.6507310207 l 1
 862.400532119 26.3495905469 l 1
 750.533690169 164.078581718 l 1
613.426891282 225.375385314 m 1
 604.84149922 230.503572518 l 1
 598.40322876 234.349250847 l 1
 602.248367264 240.787843723 l 1
 607.375387323 249.372916736 l 2
 622.134270512 274.0853381 639.116117828 318.121031645 686.776524161 317.095921756 c 0
 735.475931836 316.048383894 744.825863194 256.390488494 748.425170198 253.683057252 c 1
 755.863895991 259.887898612 775.424985062 316.987699891 814.845843611 315.079127739 c 0
 857.78248029 313.001743658 877.11978923 275.378081124 895.647281549 250.43565774 c 2
 901.611148737 242.40831399 l 1
 906.084266494 236.387513602 l 1
 900.063115469 231.914867841 l 1
 892.035771719 225.951977216 l 1
 884.008427969 219.989086591 l 1
 877.988220888 215.517142012 l 1
 873.515804388 221.53699851 l 1
 867.551673235 229.564697578 l 2
 844.745891921 260.264981825 832.990412498 278.376080319 814.38251442 280.039330007 c 1
 807.407697537 273.136327513 788.759134785 217.498405487 747.968093552 218.5052173 c 0
 694.590170663 219.823888813 698.991533337 281.825213078 686.023387742 282.104271251 c 0
 664.997915045 282.556234266 657.062366803 264.308076406 637.424484298 231.427000027 c 2
 632.297531173 222.84203909 l 1
 628.452262801 216.403228754 l 1
 622.01325994 220.24817473 l 1
 613.426891282 225.375385314 l 1
808.014648438 536.193359375 m 5
 783.603515625 541.588867188 l 5
 759.193359375 546.985351562 l 5
 764.588867188 571.396484375 l 5
 790.688476562 689.46484375 l 5
 106.456054688 22.103515625 l 5
 88.55859375 4.6474609375 l 5
 71.103515625 22.5439453125 l 5
 53.6474609375 40.44140625 l 5
 71.5439453125 57.896484375 l 5
 735.037109375 705.029296875 l 5
 611.116210938 673.759765625 l 5
 598.78515625 722.21484375 l 5
 629.82421875 730.180664062 l 5
 873 792 l 5
 808.014648438 536.193359375 l 5
EndSplineSet
EndChar

StartChar: lt-TA
Encoding: 293 -1 62
Width: 900
VWidth: 0
Flags: HW
LayerCount: 2
Fore
SplineSet
479.289721965 401.133607915 m 1
 494.780928748 420.58282145 l 1
 500.590283868 427.876468084 l 1
 506.4690727 420.638669387 l 1
 522.145849197 401.337865134 l 1
 819.746436851 34.9374723946 l 1
 846.278663414 2.27145676956 l 1
 856.228220205 -9.97826440755 l 1
 840.446937046 -9.95702445713 l 1
 798.362846712 -9.90038368878 l 1
 209.563164641 -9.09960260453 l 1
 168.136406828 -9.04393854203 l 1
 152.601225621 -9.02306432104 l 1
 162.279925787 3.12868674436 l 1
 188.089530742 35.5330271122 l 1
 479.289721965 401.133607915 l 1
501.009285146 340.123514943 m 1
 266.598941035 45.8226360125 l 1
 740.571424422 45.178661617 l 1
 501.009285146 340.123514943 l 1
230.699352235 457.189838449 m 1
 213.528453798 467.444721262 l 1
 207.089385997 471.290290901 l 1
 210.934955637 477.729358702 l 1
 221.189809217 494.900208193 l 2
 251.751244115 546.07352398 283.756868278 628.621478986 373.39168584 626.69357957 c 0
 477.865817733 624.44732515 473.577056607 500.0820133 497.479054988 499.491855904 c 0
 513.037256607 499.107742406 548.20610024 626.593427699 629.329342392 622.667990071 c 0
 710.396667647 618.744657521 747.217126173 547.631269672 785.275386541 496.399288958 c 2
 797.202144354 480.344601458 l 1
 801.6746755 474.32409773 l 1
 795.654171771 469.851566584 l 1
 779.599308971 457.924678548 l 1
 763.543644908 445.997920735 l 1
 757.522950266 441.525519807 l 1
 753.050610028 447.546259531 l 1
 741.1249276 463.600813999 l 2
 695.86015282 524.534203171 671.810840729 565.09680427 626.721481336 567.733375696 c 0
 615.518971721 564.918007362 576.527740274 442.522547298 496.121495205 444.508144978 c 0
 396.659782227 446.96421088 410.305506782 570.887004103 372.208937552 571.70681025 c 0
 324.379157092 572.734939241 306.640163997 530.71284687 268.409770926 466.699352235 c 2
 258.154888113 449.528453798 l 1
 254.309318474 443.089385997 l 1
 247.870250673 446.934955637 l 1
 230.699352235 457.189838449 l 1
226.38671875 581.861328125 m 1
 204.248046875 593.474609375 l 1
 215.861328125 615.61328125 l 1
 247.861328125 676.61328125 l 1
 254.8125 689.864257812 l 1
 269.774414062 689.999023438 l 1
 712.774414062 693.999023438 l 1
 725.374023438 694.112304688 l 1
 732.9609375 684.052734375 l 1
 778.9609375 623.052734375 l 1
 794.012695312 603.091796875 l 1
 774.052734375 588.0390625 l 1
 754.091796875 572.987304688 l 1
 739.0390625 592.947265625 l 1
 700.625976562 643.887695312 l 1
 285.1875 640.135742188 l 1
 260.138671875 592.38671875 l 1
 248.525390625 570.248046875 l 1
 226.38671875 581.861328125 l 1
504.374023438 714.330078125 m 1
 531.73046875 760.407226562 l 1
 473.158203125 759.626953125 l 1
 504.374023438 714.330078125 l 1
485.35546875 653.813476562 m 1
 405.415039062 769.813476562 l 1
 378.841796875 808.373046875 l 1
 425.666992188 808.998046875 l 1
 575.666992188 810.998046875 l 1
 620.26953125 811.592773438 l 1
 597.497070312 773.237304688 l 1
 527.4375 655.237304688 l 1
 506 653 l 1
 485.35546875 653.813476562 l 1
EndSplineSet
EndChar

StartChar: lt-KI
Encoding: 294 -1 63
Width: 950
VWidth: 0
Flags: HW
LayerCount: 2
Fore
SplineSet
899.154265959 241.738873773 m 1
 890.776593325 236.279080359 l 1
 884.493173684 232.184127659 l 1
 880.398220984 238.4675473 l 1
 874.937867739 246.846079019 l 2
 874.291156516 247.838620215 873.623002516 248.831168915 872.942025899 249.810932042 c 0
 850.326632651 282.333428536 819.329809351 295.783708456 800.82260342 282.85372213 c 0
 750.857127774 247.946983492 725.024544224 150.078666524 740.221570469 86.4659612262 c 0
 744.021715249 70.5554451513 751.836679504 57.034907204 762.200662446 46.6744937414 c 0
 790.589459682 18.2972118216 839.016886958 11.9091128776 881.589178051 54.7377251954 c 2
 888.638982738 61.8295220704 l 1
 893.926512621 67.1485471444 l 1
 899.245537695 61.8610172615 l 1
 906.33733457 54.811212574 l 1
 913.429131445 47.7614078865 l 1
 918.748156519 42.4738780037 l 1
 913.460626637 37.1548529296 l 1
 906.411021683 30.0632569862 l 2
 851.247283292 -25.4332571272 779.532323754 -20.1366952773 737.456416376 21.9213570683 c 0
 722.522794767 36.8497527463 711.470482368 56.1828684945 706.178906781 78.3334808169 c 0
 688.23125058 153.460528888 714.013866844 264.901802293 780.777912272 311.545642857 c 0
 826.474702849 343.470981787 877.112330967 305.119157678 901.677537607 269.791975387 c 0
 902.559209098 268.52380372 903.422660116 267.241495213 904.260958704 265.9543277 c 2
 909.720919641 257.576398012 l 1
 913.816207401 251.292464245 l 1
 907.531938581 247.197690646 l 1
 899.154265959 241.738873773 l 1
595.120469779 224.486298333 m 1
 586.027022632 228.645339506 l 1
 579.205936092 231.765078292 l 1
 582.326280625 238.58588775 l 1
 586.486217459 247.679158081 l 2
 592.731158317 261.33260926 602.502781228 275.897098589 614.489751529 289.081442292 c 0
 638.702201561 315.712596467 684.512277838 347.698707657 722.612958742 312.911129441 c 0
 797.633980595 244.212417936 825.582443906 163.374536211 796.386846221 64.2561096606 c 0
 788.136621821 36.2433633441 773.872512389 15.2523105002 754.922486682 2.48760935975 c 0
 703.435044895 -32.1943679265 635.637495315 0.362538863979 596.682688931 58.2277469384 c 2
 591.098704556 66.5226688134 l 1
 586.910435869 72.7442767574 l 1
 593.132043813 76.932545444 l 1
 601.426800979 82.5164189368 l 1
 609.722699417 88.1013798743 l 1
 615.94470049 92.2901525801 l 1
 620.13296915 86.0678122038 l 1
 625.716674263 77.7723286249 l 2
 659.988557388 26.8633144114 708.175154372 13.1982553896 735.369467949 31.5162715924 c 0
 746.145369584 38.7750211528 756.261053647 51.8988677522 762.813394409 74.1444348258 c 0
 788.307155848 160.698919367 766.410747274 225.34682033 698.989974889 287.086249124 c 0
 686.272035481 298.697775016 664.441714168 291.995128886 640.386245095 265.536743835 c 0
 630.747544578 254.935100066 622.698710977 242.705552083 618.314344375 233.120166938 c 2
 614.154188125 224.026416938 l 1
 611.034120688 217.206213188 l 1
 604.213916938 220.326280625 l 1
 595.120469779 224.486298333 l 1
808.014648438 536.193359375 m 5
 783.603515625 541.588867188 l 5
 759.193359375 546.985351562 l 5
 764.588867188 571.396484375 l 5
 790.688476562 689.46484375 l 5
 106.456054688 22.103515625 l 5
 88.55859375 4.6474609375 l 5
 71.103515625 22.5439453125 l 5
 53.6474609375 40.44140625 l 5
 71.5439453125 57.896484375 l 5
 735.037109375 705.029296875 l 5
 611.116210938 673.759765625 l 5
 598.78515625 722.21484375 l 5
 629.82421875 730.180664062 l 5
 873 792 l 5
 808.014648438 536.193359375 l 5
EndSplineSet
EndChar

StartChar: lt-TI
Encoding: 295 -1 64
Width: 900
VWidth: 0
Flags: HW
LayerCount: 2
Fore
SplineSet
794.214009571 489.760471088 m 1
 777.45823395 478.840603796 l 1
 771.174389747 474.745374407 l 1
 767.079584943 481.029495294 l 1
 756.160986552 497.785798875 l 2
 754.824517972 499.836439893 753.450298489 501.876946085 752.041648218 503.902710302 c 0
 706.363487446 569.590634712 640.25600776 601.832624477 597.349045883 571.856704407 c 0
 493.785467964 499.503524986 442.160411788 300.899803749 473.1472939 171.189836099 c 0
 481.067596674 138.033835901 497.392229911 109.744047271 519.099141355 88.0455460984 c 0
 578.786786551 28.3811803786 680.67256358 15.8343233572 768.496222599 104.18676084 c 2
 782.595831974 118.371331153 l 1
 787.883178752 123.690538241 l 1
 793.20238584 118.403191464 l 1
 807.386956153 104.303582089 l 1
 821.571526465 90.2039727137 l 1
 826.890733554 84.916625936 l 1
 821.603386776 79.5974188473 l 1
 807.503770658 65.4128417506 l 2
 699.88984306 -42.8492659582 561.411921195 -32.0173799632 480.216367616 49.1467574622 c 0
 451.327455891 78.0235386345 429.915753552 115.447658465 419.65252852 158.410675605 c 0
 384.338679209 306.234982996 435.886526362 526.146676404 565.850197985 616.943117829 c 0
 651.445353889 676.742401574 748.445973627 605.41115072 797.197589533 535.302396671 c 0
 798.918490892 532.827662431 800.601177065 530.329205197 802.239474329 527.814679262 c 2
 813.159396204 511.058819887 l 1
 817.254458071 504.775232737 l 1
 810.970761754 500.680338383 l 1
 794.214009571 489.760471088 l 1
193.36055273 455.792031669 m 1
 175.172901313 464.112413438 l 1
 168.353000391 467.232342339 l 1
 171.472626468 474.052381787 l 1
 179.792078361 492.240135273 l 2
 191.893400648 518.693109125 211.044649142 547.286589525 234.528860106 573.117625784 c 0
 282.936582498 626.360063588 369.402742027 684.897096623 440.1618052 620.290995465 c 0
 588.55687622 484.400844119 643.167434419 326.146195401 585.579182991 130.629976773 c 0
 569.444990645 75.8524602945 541.79026738 35.5346915202 505.655854716 11.1946201296 c 0
 407.879413983 -54.6669649022 276.528014132 6.35259904291 199.588017813 120.64270364 c 2
 188.4190725 137.233523953 l 1
 184.230721453 143.455076453 l 1
 190.452273953 147.6434275 l 1
 207.043094265 158.812372812 l 1
 223.633914578 169.981318125 l 1
 229.855467078 174.169669172 l 1
 234.043818125 167.948116672 l 1
 245.212768013 151.357289562 l 2
 314.778120618 48.0217502924 415.328098863 16.6644547161 474.929150681 56.8112691928 c 0
 498.224656494 72.502730848 519.353473884 100.449426429 532.820241018 146.169861683 c 0
 584.592333865 321.939277078 539.493114566 454.753728294 403.035717879 579.711391052 c 0
 372.167535835 607.895744394 323.389099053 589.094965938 275.224025949 536.117677788 c 0
 255.429507361 514.34656232 238.984289239 489.420292524 229.80764697 469.360704151 c 2
 221.488311032 451.173204151 l 1
 218.368546433 444.352861869 l 1
 211.548204151 447.472626468 l 1
 193.36055273 455.792031669 l 1
226.38671875 581.861328125 m 1
 204.248046875 593.474609375 l 1
 215.861328125 615.61328125 l 1
 247.861328125 676.61328125 l 1
 254.8125 689.864257812 l 1
 269.774414062 689.999023438 l 1
 712.774414062 693.999023438 l 1
 725.374023438 694.112304688 l 1
 732.9609375 684.052734375 l 1
 778.9609375 623.052734375 l 1
 794.012695312 603.091796875 l 1
 774.052734375 588.0390625 l 1
 754.091796875 572.987304688 l 1
 739.0390625 592.947265625 l 1
 700.625976562 643.887695312 l 1
 285.1875 640.135742188 l 1
 260.138671875 592.38671875 l 1
 248.525390625 570.248046875 l 1
 226.38671875 581.861328125 l 1
504.374023438 714.330078125 m 1
 531.73046875 760.407226562 l 1
 473.158203125 759.626953125 l 1
 504.374023438 714.330078125 l 1
485.35546875 653.813476562 m 1
 405.415039062 769.813476562 l 1
 378.841796875 808.373046875 l 1
 425.666992188 808.998046875 l 1
 575.666992188 810.998046875 l 1
 620.26953125 811.592773438 l 1
 597.497070312 773.237304688 l 1
 527.4375 655.237304688 l 1
 506 653 l 1
 485.35546875 653.813476562 l 1
EndSplineSet
EndChar

StartChar: lt-KE
Encoding: 296 -1 65
Width: 950
VWidth: 0
Flags: HW
LayerCount: 2
Fore
SplineSet
815.594397998 77.5779671477 m 2
 818.800267387 70.585706075 l 1
 813.351269518 68.0862998634 l 2
 813.008144295 66.916368354 812.858718742 66.433754813 812.579744516 65.5592870506 c 0
 807.611976318 49.9881875285 800.945579273 38.6313299713 797.333246968 24.7824083075 c 2
 794.808832905 15.1066270575 l 1
 792.915638875 7.85023771592 l 1
 785.659070662 9.74274601863 l 1
 775.98278252 12.2663157345 l 1
 766.306024708 14.790729797 l 1
 759.048902942 16.6839238392 l 1
 760.942096985 23.9410456047 l 1
 763.466489519 33.6177208917 l 2
 764.570878183 37.8513366723 766.055132735 42.4229557717 767.180842688 45.6446396747 c 1
 756.196653708 42.8493399445 742.706945748 43.9521791775 732.351701745 56.646431683 c 0
 706.775003408 89.0429108445 747.387118446 117.835530109 760.327670557 126.042394364 c 0
 765.009676221 128.923918365 769.750871572 130.418763239 774.455214463 131.07794758 c 0
 789.763217593 133.221160249 813.063401935 125.832496966 816.154227384 102.65652709 c 0
 817.312382814 93.5152687527 816.746012234 84.3171033221 815.594397998 77.5779671477 c 2
781.847793288 91.8779757552 m 0
 781.847793288 94.026070186 781.765976159 94.6826238566 781.665711533 96.1688742061 c 0
 781.085323726 96.409794947 780.419234056 96.571767288 779.307962928 96.4162605546 c 0
 779.145290927 96.3934747292 778.736022508 96.2797581475 778.736022508 96.2797581475 c 1
 767.96056747 89.2352116808 763.993144962 84.6398914879 761.574777722 80.916227213 c 1
 767.294027254 83.7446991641 772.317274729 86.7155221263 781.847793288 91.8779757552 c 0
673.491150763 6.96947252085 m 1
 673.743366485 -0.774414062501 l 1
 673.74310134 -0.774413892723 l 1
 674.060232657 -10.5216782402 l 1
 639.079663929 -11.6598412561 l 1
 638.508852063 5.83024538856 l 2
 636.439839425 69.4002280557 620.096437376 115.652289275 623.150310234 175.67692955 c 0
 624.040526053 193.176804166 626.669028987 211.596989804 631.867368466 231.621374457 c 0
 643.672778917 276.734051746 678.47425973 329.853564447 736.248962464 319.632383415 c 0
 742.808785903 318.471846048 749.701122505 316.924071759 756.782998325 315.004261913 c 0
 805.301169397 301.849032859 887.540467936 264.101330766 869.285796155 197.005778824 c 0
 845.5887541 109.900905498 719.524216134 148.316230809 657.853259768 156.152300188 c 1
 658.984612311 109.990342802 671.49342472 68.3065055776 673.491142415 6.96972889797 c 2
 673.491150763 6.96947252085 l 1
659.637749199 191.24245122 m 1
 744.606899219 181.857884226 822.981696176 160.131611066 835.51403616 206.194518037 c 0
 843.394068354 235.158098535 800.320722284 266.935934869 747.624022555 281.223332922 c 0
 741.499082976 282.884237407 735.590505873 284.205108521 730.151374008 285.167430854 c 0
 701.508726327 290.23498855 676.314743396 263.218610907 665.733949464 222.783298625 c 0
 662.936239729 212.007128213 660.673752554 199.439754047 659.637749199 191.24245122 c 1
611.301602103 4.25939810532 m 1
 611.450045038 14.258787669 l 1
 611.56137177 21.7579613808 l 1
 619.060545482 21.6466346492 l 1
 629.05931399 21.4982009294 l 1
 683.059568919 20.6983924617 l 1
 693.058592357 20.5499549617 l 1
 700.557766068 20.4386282302 l 1
 700.446439337 12.9394545185 l 1
 700.298001837 2.94043108097 l 1
 700.149564337 -7.05859235653 l 1
 700.038237444 -14.5577769398 l 1
 692.539053022 -14.4464391753 l 1
 682.541271948 -14.2980056169 l 1
 628.541017018 -13.4981971492 l 1
 618.541993581 -13.3497596492 l 1
 611.043552086 -13.2384437876 l 1
 611.154135766 -5.73999145889 l 1
 611.301602103 4.25939810532 l 1
808.014648438 536.193359375 m 5
 783.603515625 541.588867188 l 5
 759.193359375 546.985351562 l 5
 764.588867188 571.396484375 l 5
 790.688476562 689.46484375 l 5
 106.456054688 22.103515625 l 5
 88.55859375 4.6474609375 l 5
 71.103515625 22.5439453125 l 5
 53.6474609375 40.44140625 l 5
 71.5439453125 57.896484375 l 5
 735.037109375 705.029296875 l 5
 611.116210938 673.759765625 l 5
 598.78515625 722.21484375 l 5
 629.82421875 730.180664062 l 5
 873 792 l 5
 808.014648438 536.193359375 l 5
EndSplineSet
EndChar

StartChar: lt-TE
Encoding: 297 -1 66
Width: 900
VWidth: 0
Flags: HW
LayerCount: 2
Fore
SplineSet
623.379716345 154.192741196 m 1
 624.532918773 151.676474276 l 1
 627.65763295 144.858404244 l 1
 620.839565205 141.733685077 l 2
 619.295299617 141.025948448 618.448641052 134.760192363 618.014406259 133.399417404 c 0
 608.39807943 103.253581159 594.947501546 80.3530792769 587.409442181 51.4582790117 c 2
 582.360614056 32.1057399492 l 1
 580.46730723 24.8485520636 l 1
 573.210142682 26.7419483448 l 1
 553.859012512 31.7906636886 l 1
 534.50647345 36.8385152511 l 1
 527.249285576 38.7314558637 l 1
 529.142226189 45.9886437376 l 1
 534.190180772 65.34157772 l 2
 537.86652033 79.432850852 543.008726749 93.4853622996 547.032233522 103.528113142 c 1
 524.049866312 93.9949321936 493.943625097 89.313955732 470.551957274 117.987174806 c 0
 425.153390977 175.491950892 497.220661485 228.341999647 524.629743533 245.723255937 c 0
 532.953583686 250.845447424 541.417638087 253.533941377 549.949355088 254.728338205 c 0
 578.223716483 258.686919154 619.469038566 244.860384544 624.870024013 204.346148335 c 0
 627.207693229 185.909381548 626.069072382 168.346898016 623.379716345 154.192741196 c 1
571.099365512 179.174560118 m 1
 571.324600226 185.066261537 570.944328538 192.043499214 570.440425198 196.344391175 c 0
 568.693930745 198.325496387 564.374162807 201.211909125 557.576149382 200.259958985 c 0
 555.954359671 200.032873309 554.019960023 199.229869805 553.769910192 199.076080987 c 0
 516.483367324 175.43071214 511.301499465 155.819923563 513.45988006 152.40362984 c 0
 515.867780421 149.719291849 519.567652685 151.324943045 566.371175354 176.675182639 c 0
 567.718720303 177.405376917 571.099365512 179.174560118 571.099365512 179.174560118 c 1
339.737388751 5.95117187529 m 1
 340.380910974 -13.7911975882 l 1
 285.408998112 -15.5797754218 l 1
 284.514715227 11.9053243037 l 2
 280.332436264 140.343633318 247.771251832 232.655140506 253.789958672 350.972827987 c 0
 255.545325743 385.479857655 260.72930397 421.8175412 270.991367102 461.342959367 c 0
 294.346166225 550.594723724 361.942426035 651.208387508 471.191443161 631.879436409 c 0
 484.070232499 629.600797177 497.644283265 626.553754243 511.603177665 622.768946454 c 0
 609.572751701 596.207386322 765.638141613 522.066953911 731.335586848 395.980336759 c 0
 685.496207238 227.490054073 435.963771774 306.27270052 308.093677035 320.775551004 c 1
 308.582372038 226.755737136 335.409070833 138.907750766 339.485286767 13.6952003895 c 2
 339.737388751 5.95117187529 l 1
310.935275312 375.818905677 m 1
 476.256151202 358.867499345 650.162181526 307.123634418 678.264029621 410.419103375 c 0
 696.276021591 476.624241475 601.669744107 541.364111286 497.209819027 569.685285229 c 0
 484.754852101 573.062968507 472.728310035 575.752940825 461.609299308 577.720179828 c 0
 398.088001111 588.959322632 345.642611888 529.363198147 324.20759811 447.452304926 c 0
 317.68340472 422.321660592 313.471293179 398.437133095 310.935275312 375.818905677 c 1
230.103362673 8.40704482338 m 1
 230.399258362 28.404905918 l 1
 230.510218967 35.904085056 l 1
 238.009398105 35.7931244505 l 1
 258.007623972 35.4972233625 l 1
 366.00744498 33.8966400755 l 1
 386.005491855 33.600741638 l 1
 393.505037129 33.4897756151 l 1
 393.393704962 25.9902357685 l 1
 393.096835388 5.99255501953 l 1
 392.800936951 -14.0054918555 l 1
 392.689970928 -21.5050371286 l 1
 385.190431081 -21.3937049617 l 1
 365.192639135 -21.0968337419 l 1
 257.192384206 -19.4972205867 l 1
 237.194337331 -19.2003455867 l 1
 229.695158184 -19.0890187745 l 1
 229.806490431 -11.589839708 l 1
 230.103362673 8.40704482338 l 1
226.38671875 581.861328125 m 1
 204.248046875 593.474609375 l 1
 215.861328125 615.61328125 l 1
 247.861328125 676.61328125 l 1
 254.8125 689.864257812 l 1
 269.774414062 689.999023438 l 1
 712.774414062 693.999023438 l 1
 725.374023438 694.112304688 l 1
 732.9609375 684.052734375 l 1
 778.9609375 623.052734375 l 1
 794.012695312 603.091796875 l 1
 774.052734375 588.0390625 l 1
 754.091796875 572.987304688 l 1
 739.0390625 592.947265625 l 1
 700.625976562 643.887695312 l 1
 285.1875 640.135742188 l 1
 260.138671875 592.38671875 l 1
 248.525390625 570.248046875 l 1
 226.38671875 581.861328125 l 1
504.374023438 714.330078125 m 1
 531.73046875 760.407226562 l 1
 473.158203125 759.626953125 l 1
 504.374023438 714.330078125 l 1
485.35546875 653.813476562 m 1
 405.415039062 769.813476562 l 1
 378.841796875 808.373046875 l 1
 425.666992188 808.998046875 l 1
 575.666992188 810.998046875 l 1
 620.26953125 811.592773438 l 1
 597.497070312 773.237304688 l 1
 527.4375 655.237304688 l 1
 506 653 l 1
 485.35546875 653.813476562 l 1
EndSplineSet
EndChar

StartChar: lt-KU
Encoding: 298 -1 67
Width: 950
VWidth: 0
Flags: HW
LayerCount: 2
Fore
SplineSet
601.395705305 312.232439648 m 1
 602.442584318 322.176813704 l 1
 603.227788432 329.635520316 l 1
 610.686503071 328.850392459 l 1
 620.631738373 327.803525585 l 2
 675.274047413 322.052275395 703.358049419 314.27020536 755.088224247 313.497926592 c 0
 799.702035798 312.734839643 824.861014554 319.695339416 873.309540204 323.836035747 c 2
 898.171844892 325.961035747 l 1
 916.818832805 327.554807918 l 1
 904.433088542 313.524711446 l 1
 887.919512951 294.818765827 l 2
 842.194266777 243.020934003 801.472757402 220.676740749 773.847191975 177.375052114 c 1
 793.475821668 175.053128549 812.033190142 173.514220763 834.683587237 172.686683287 c 0
 858.784437551 171.682932112 868.916199657 178.974891135 899.100438391 191.048586628 c 2
 908.385594641 194.762453816 l 1
 915.349220331 197.547757613 l 1
 918.134524128 190.584131922 l 1
 921.848290291 181.299228234 l 1
 925.562157478 172.015048546 l 1
 928.347814868 165.051271316 l 1
 921.383936609 162.265866497 l 1
 912.099081726 158.552119857 l 2
 886.169219575 148.179418693 866.924269641 136.312467497 833.316320755 137.71371029 c 0
 804.774932293 138.755870403 779.55712426 141.206816319 757.037573322 144.231549869 c 1
 741.185728811 101.674286493 758.083127793 75.6962338566 762.256859229 16.4292474707 c 2
 764.627952979 -17.2377447168 l 1
 766.083557724 -37.9057733757 l 1
 751.73575893 -22.9583032354 l 1
 727.389079243 2.40595457707 l 1
 727.072389488 2.73588049295 l 1
 726.798132247 3.10184015894 l 1
 597.630239247 175.459212546 l 1
 583.122426747 194.686751608 l 1
 572.242095302 209.106706227 l 1
 590.13622362 206.633474478 l 1
 613.99693523 203.335573142 l 2
 662.554561196 196.621796755 700.901671715 188.517308353 736.419684115 182.712791943 c 1
 761.850920232 229.470508979 795.176428834 254.215093433 827.148301441 283.302540909 c 1
 805.125311676 280.474694459 783.249532048 278.011004803 754.516872432 278.501813381 c 0
 699.057598317 279.330347721 668.708641489 287.549425151 616.967793804 292.996287228 c 2
 607.022481304 294.043162228 l 1
 599.563690407 294.828298112 l 1
 600.348826291 302.287089009 l 1
 601.395705305 312.232439648 l 1
721.967561256 149.638442451 m 1
 697.423412511 153.823639365 675.425769957 158.089912439 651.270504519 162.171323253 c 1
 720.887513249 67.9635133646 l 1
 716.480008826 93.7119276066 713.696453973 121.214548244 721.967561256 149.638442451 c 1
808.014648438 536.193359375 m 5
 783.603515625 541.588867188 l 5
 759.193359375 546.985351562 l 5
 764.588867188 571.396484375 l 5
 790.688476562 689.46484375 l 5
 106.456054688 22.103515625 l 5
 88.55859375 4.6474609375 l 5
 71.103515625 22.5439453125 l 5
 53.6474609375 40.44140625 l 5
 71.5439453125 57.896484375 l 5
 735.037109375 705.029296875 l 5
 611.116210938 673.759765625 l 5
 598.78515625 722.21484375 l 5
 629.82421875 730.180664062 l 5
 873 792 l 5
 808.014648438 536.193359375 l 5
EndSplineSet
EndChar

StartChar: lt-TU
Encoding: 299 -1 68
Width: 900
VWidth: 0
Flags: HW
LayerCount: 2
Fore
SplineSet
210.251172047 623.678709635 m 1
 212.344920041 643.569315571 l 1
 213.130059938 651.028144595 l 1
 220.588884948 650.242966571 l 1
 240.478484732 648.149221693 l 2
 349.146807325 636.710605963 405.792625149 621.052402858 510.048104843 619.495974841 c 0
 600.210075765 617.954785862 651.089770896 631.980225317 747.257769939 640.200292495 c 2
 796.981402751 644.450292495 l 1
 815.627687227 646.044035843 l 1
 803.24279595 632.014124559 l 1
 770.216413054 594.601020827 l 2
 676.326737541 488.241151707 593.071818199 445.807679441 535.198765895 348.729198703 c 1
 577.278488931 343.417321478 619.023695907 339.707640573 669.074279788 337.879063644 c 0
 719.241443349 335.788765162 741.634204572 351.392168141 800.987030865 375.133497057 c 2
 819.556366802 382.561231432 l 1
 826.52006826 385.346712015 l 1
 829.305422566 378.382960047 l 1
 836.733106432 359.812773823 l 1
 844.160840807 341.243437885 l 1
 846.946270879 334.279862704 l 1
 839.982695698 331.494432631 l 1
 821.413272214 324.066663238 l 2
 768.724613594 302.991968168 731.981747499 280.210283376 666.925751975 282.920739782 c 0
 607.703283838 285.084096111 556.147399303 290.210665863 509.239893725 296.695264088 c 1
 472.728419992 205.583120959 508.663255944 151.170327055 517.032257457 32.3314832503 c 2
 521.773468395 -35.0025011247 l 1
 523.228786699 -55.6707188508 l 1
 508.881164758 -40.7228454238 l 1
 460.188781946 10.0066467637 l 1
 459.872148666 10.3365268099 l 1
 459.59793489 10.7024288244 l 1
 201.248421252 355.435751265 l 1
 172.23181969 393.891805953 l 1
 161.350710321 408.312672437 l 1
 179.245917615 405.838508506 l 1
 226.96553527 399.240867312 l 2
 326.281520572 385.511075122 402.268264438 369.181292832 476.92832426 357.163915201 c 1
 531.075603971 459.645102869 604.570078559 508.965210586 676.610071891 577.057593076 c 1
 623.181257128 570.158471031 576.320475016 563.355429612 509.145911664 564.50376452 c 0
 399.041185408 566.146722184 338.826107684 582.492954949 234.720685364 593.451369367 c 2
 214.831036927 595.545119367 l 1
 207.372250043 596.330293377 l 1
 208.157424054 603.789080261 l 1
 210.251172047 623.678709635 l 1
453.731881741 305.231590255 m 1
 398.388993164 314.481666709 346.034441566 324.888146636 285.507005243 334.776097266 c 1
 454.926710282 105.511183304 l 1
 443.459433661 166.87960964 430.433972515 236.410482052 453.731881741 305.231590255 c 1
226.38671875 581.861328125 m 1
 204.248046875 593.474609375 l 1
 215.861328125 615.61328125 l 1
 247.861328125 676.61328125 l 1
 254.8125 689.864257812 l 1
 269.774414062 689.999023438 l 1
 712.774414062 693.999023438 l 1
 725.374023438 694.112304688 l 1
 732.9609375 684.052734375 l 1
 778.9609375 623.052734375 l 1
 794.012695312 603.091796875 l 1
 774.052734375 588.0390625 l 1
 754.091796875 572.987304688 l 1
 739.0390625 592.947265625 l 1
 700.625976562 643.887695312 l 1
 285.1875 640.135742188 l 1
 260.138671875 592.38671875 l 1
 248.525390625 570.248046875 l 1
 226.38671875 581.861328125 l 1
504.374023438 714.330078125 m 1
 531.73046875 760.407226562 l 1
 473.158203125 759.626953125 l 1
 504.374023438 714.330078125 l 1
485.35546875 653.813476562 m 1
 405.415039062 769.813476562 l 1
 378.841796875 808.373046875 l 1
 425.666992188 808.998046875 l 1
 575.666992188 810.998046875 l 1
 620.26953125 811.592773438 l 1
 597.497070312 773.237304688 l 1
 527.4375 655.237304688 l 1
 506 653 l 1
 485.35546875 653.813476562 l 1
EndSplineSet
EndChar

StartChar: lt-KR
Encoding: 300 -1 69
Width: 950
VWidth: 0
Flags: HW
LayerCount: 2
Fore
SplineSet
776.302934621 315.03981046 m 1
 779.639848684 324.466568272 l 1
 782.142549769 331.536680526 l 1
 789.212662022 329.033979441 l 1
 798.63945669 325.697052332 l 2
 838.299833055 311.657712043 911.239858203 297.182996489 912.297752408 231.096748597 c 0
 913.068128326 185.616523876 851.383186215 169.025803417 824.579788442 161.663868395 c 1
 851.624209934 150.412117934 911.900390625 127.457043108 911.900390625 80.7998046875 c 0
 911.900390625 19.5537274415 833.938030071 5.84724828767 799.18617658 -4.03235362884 c 2
 789.567035955 -6.76770519134 l 1
 782.352364059 -8.81930884429 l 1
 780.301438089 -1.60444427263 l 1
 777.567117855 8.01450370443 l 1
 774.832742855 17.6326677669 l 1
 772.782009523 24.8461222621 l 1
 779.995271344 26.8975332035 l 1
 789.972451365 29.7349868779 l 2
 837.57525783 43.2581031071 876.900390625 56.1736336978 876.900390625 80.7998046875 c 0
 876.900390625 108.542369537 777.299804688 112.079970884 777.299804688 163.200195312 c 0
 777.299804688 217.29140815 877.71815961 205.999796377 877.302718042 230.510848868 c 0
 876.763070523 264.231548124 837.669905016 274.752403448 786.96018954 292.703325246 c 2
 777.533431728 296.040239309 l 1
 770.463319474 298.542940394 l 1
 772.966020559 305.613052647 l 1
 776.302934621 315.03981046 l 1
722.770783869 317.587418717 m 1
 727.335236994 308.689957779 l 1
 730.75859321 302.01683016 l 1
 724.085465592 298.593473944 l 1
 715.187817435 294.028924777 l 2
 653.811416293 262.5446221 607.685050978 227.493144499 608.698285056 167.07634856 c 0
 609.74745076 100.592374515 652.566254187 61.7495272776 719.74570094 30.6842884794 c 2
 728.821872815 26.4870228544 l 1
 735.628929158 23.3391071926 l 1
 732.481292505 16.5319218297 l 1
 728.283897854 7.45449437204 l 1
 724.086632229 -1.62167750296 l 1
 720.938587539 -8.42901285733 l 1
 714.131252185 -5.28096816687 l 1
 705.055216894 -1.08376570366 l 2
 633.796620006 31.8679579565 575.05324126 80.9535577189 573.70222449 166.516927347 c 0
 572.315054301 249.304446869 637.385084852 293.45398125 699.212965838 325.171471937 c 2
 708.110426776 329.7349485 l 1
 714.783271983 333.157427443 l 1
 718.206330744 326.484879654 l 1
 722.770783869 317.587418717 l 1
808.014648438 536.193359375 m 5
 783.603515625 541.588867188 l 5
 759.193359375 546.985351562 l 5
 764.588867188 571.396484375 l 5
 790.688476562 689.46484375 l 5
 106.456054688 22.103515625 l 5
 88.55859375 4.6474609375 l 5
 71.103515625 22.5439453125 l 5
 53.6474609375 40.44140625 l 5
 71.5439453125 57.896484375 l 5
 735.037109375 705.029296875 l 5
 611.116210938 673.759765625 l 5
 598.78515625 722.21484375 l 5
 629.82421875 730.180664062 l 5
 873 792 l 5
 808.014648438 536.193359375 l 5
EndSplineSet
EndChar

StartChar: lt-TR
Encoding: 301 -1 70
Width: 900
VWidth: 0
Flags: HW
LayerCount: 2
Fore
SplineSet
583.369663079 52.6461073269 m 2
 673.598917872 78.2779583112 761.299804688 104.494865766 761.299804688 161.599609375 c 0
 761.299804688 227.56168744 562.099609375 233.996345969 562.099609375 326.400390625 c 0
 562.099609375 424.173909736 763.124395304 400.908695415 762.103497832 461.140822922 c 0
 760.91235053 535.628126479 675.498231716 557.405449601 576.422754738 592.475901388 c 2
 550.49956748 601.653617378 l 1
 568.852510706 653.500547713 l 1
 594.776149613 644.3240146 l 2
 676.483336024 615.400898434 815.090510747 587.389498021 817.095601501 462.065644288 c 0
 818.693177738 367.8585706 669.487162583 337.030117014 626.418534709 324.896359435 c 1
 669.201301969 305.333180879 816.299804688 259.406685109 816.299804688 161.599609375 c 0
 816.299804688 46.7394089788 668.556021856 19.685901391 596.320699735 -0.85175851206 c 2
 569.869235514 -8.37268094969 l 1
 554.827541753 44.5310587773 l 1
 579.253930199 51.4761931338 l 1
 583.369663079 52.6461073269 l 2
438.868478267 631.752383418 m 1
 447.997422662 613.956410619 l 1
 451.42077888 607.282916786 l 1
 444.747136326 603.859850499 l 1
 426.951616287 594.732114915 l 2
 304.099175769 531.709445263 207.791147696 459.685442799 209.896526425 334.034408263 c 0
 212.059922782 197.003498247 301.129859742 117.086376012 436.342241112 54.560329559 c 2
 454.495561425 46.165798309 l 1
 461.302961296 43.0178931341 l 1
 458.155056121 36.2104932627 l 1
 449.760460354 18.0570334345 l 1
 441.365929104 -0.0953103154556 l 1
 438.217948932 -6.90250615631 l 1
 431.410688575 -3.75466549648 l 1
 413.25732934 4.63988375239 l 2
 271.636631708 70.1296781442 157.540421802 166.15092532 154.903397139 333.158482754 c 0
 152.208580055 493.928431202 278.294670906 580.287198722 401.848128158 643.668244806 c 2
 419.643050033 652.797151056 l 1
 426.316177652 656.220507273 l 1
 429.739533869 649.547379654 l 1
 438.868478267 631.752383418 l 1
226.38671875 581.861328125 m 1
 204.248046875 593.474609375 l 1
 215.861328125 615.61328125 l 1
 247.861328125 676.61328125 l 1
 254.8125 689.864257812 l 1
 269.774414062 689.999023438 l 1
 712.774414062 693.999023438 l 1
 725.374023438 694.112304688 l 1
 732.9609375 684.052734375 l 1
 778.9609375 623.052734375 l 1
 794.012695312 603.091796875 l 1
 774.052734375 588.0390625 l 1
 754.091796875 572.987304688 l 1
 739.0390625 592.947265625 l 1
 700.625976562 643.887695312 l 1
 285.1875 640.135742188 l 1
 260.138671875 592.38671875 l 1
 248.525390625 570.248046875 l 1
 226.38671875 581.861328125 l 1
504.374023438 714.330078125 m 1
 531.73046875 760.407226562 l 1
 473.158203125 759.626953125 l 1
 504.374023438 714.330078125 l 1
485.35546875 653.813476562 m 1
 405.415039062 769.813476562 l 1
 378.841796875 808.373046875 l 1
 425.666992188 808.998046875 l 1
 575.666992188 810.998046875 l 1
 620.26953125 811.592773438 l 1
 597.497070312 773.237304688 l 1
 527.4375 655.237304688 l 1
 506 653 l 1
 485.35546875 653.813476562 l 1
EndSplineSet
EndChar

StartChar: lt-KO
Encoding: 302 -1 71
Width: 950
VWidth: 0
Flags: HW
LayerCount: 2
Fore
SplineSet
745.006661711 99.1934079297 m 0
 745.531182054 95.5202090864 746.762559743 93.7818080085 747.284571379 93.1430585435 c 0
 748.667913772 93.7317976447 749.84883709 95.2604562362 749.526612982 97.6766223139 c 0
 748.977514114 102.067409244 746.463925191 103.82892451 745.017962599 104.296246857 c 1
 744.713334376 102.615072773 744.669720085 101.551293919 745.006661711 99.1934079297 c 0
710.358599672 94.2439030502 m 0
 708.417671752 107.825138528 712.300415489 137.434784989 740.288175625 139.364300546 c 0
 764.203942644 141.538901231 781.710064574 122.387371046 784.238083275 102.160903219 c 0
 787.032799821 81.2005291262 772.259551654 59.5678488902 748.868911942 58.0592095239 c 0
 723.656482817 56.2582301696 712.444201202 79.6425288551 710.358599672 94.2439030502 c 0
622.588147224 -7.4030456428 m 1
 613.329358161 -3.6247253303 l 1
 606.385296894 -0.790997554211 l 1
 609.21902467 6.15306371359 l 1
 612.99727955 15.4116924299 l 1
 734.596857996 313.411616632 l 1
 744.004084559 336.466304132 l 1
 751.059262175 353.756725927 l 1
 757.923239903 336.389514672 l 1
 767.075668017 313.232074643 l 1
 885.474932506 13.6318671589 l 1
 889.150713756 4.33206247137 l 1
 891.907679872 -2.6431203967 l 1
 884.93239805 -5.39983614396 l 1
 875.631233658 -9.07576880403 l 1
 866.331428971 -12.7505734915 l 1
 859.356879587 -15.5065568297 l 1
 856.600262806 -8.53225778387 l 1
 852.924333338 0.76792192741 l 1
 750.539934962 259.843373108 l 1
 645.403045643 2.18775659891 l 1
 641.62472533 -7.07103246359 l 1
 638.790997554 -14.0150937314 l 1
 631.846936286 -11.1813659553 l 1
 622.588147224 -7.4030456428 l 1
808.014648438 536.193359375 m 5
 783.603515625 541.588867188 l 5
 759.193359375 546.985351562 l 5
 764.588867188 571.396484375 l 5
 790.688476562 689.46484375 l 5
 106.456054688 22.103515625 l 5
 88.55859375 4.6474609375 l 5
 71.103515625 22.5439453125 l 5
 53.6474609375 40.44140625 l 5
 71.5439453125 57.896484375 l 5
 735.037109375 705.029296875 l 5
 611.116210938 673.759765625 l 5
 598.78515625 722.21484375 l 5
 629.82421875 730.180664062 l 5
 873 792 l 5
 808.014648438 536.193359375 l 5
EndSplineSet
EndChar

StartChar: lt-TO
Encoding: 303 -1 72
Width: 900
VWidth: 0
Flags: HW
LayerCount: 2
Fore
SplineSet
482.588658018 197.327441535 m 0
 484.987496918 180.534679789 493.17189944 178.450581158 493.500402971 178.474002615 c 0
 501.09492579 178.964498594 507.810496326 186.423627761 506.491428885 196.314526432 c 0
 504.719956683 210.48630405 494.976613225 216.975725958 485.970151913 216.460284948 c 0
 484.798207566 215.603580056 480.655181617 210.856379343 482.588658018 197.327441535 c 0
428.140822487 189.548616822 m 0
 424.399601133 215.735137983 432.178577071 267.873044315 481.173933592 271.251995044 c 0
 524.390431636 275.180370014 556.381764899 240.614352753 561.0378897 203.361084632 c 0
 566.115730487 165.276192794 539.302283879 126.314809188 497.229256744 123.601201275 c 0
 452.80777458 120.428157607 432.109514225 161.77086153 428.140822487 189.548616822 c 0
248.010179192 -7.86209407328 m 1
 229.492444099 -0.305389392803 l 1
 222.548382831 2.52833838329 l 1
 225.382110607 9.47239965109 l 1
 232.9386858 27.9898174299 l 1
 476.137946062 623.989919159 l 1
 494.953375749 670.098317596 l 1
 502.009106677 687.388831726 l 1
 508.872559197 670.0210962 l 1
 527.175270435 623.706701621 l 1
 763.975107159 24.5074018047 l 1
 771.325693097 5.9068158672 l 1
 774.082068873 -1.06816611796 l 1
 767.107136355 -3.82466706639 l 1
 748.507401805 -11.1753024718 l 1
 729.906815867 -18.5258884093 l 1
 722.931708708 -21.2823136515 l 1
 720.175283466 -14.3072064922 l 1
 712.824729839 4.29329768542 l 1
 501.191317727 539.811215429 l 1
 283.862030018 7.21021753641 l 1
 276.305389393 -11.3073605886 l 1
 273.471789725 -18.2511079269 l 1
 266.527914288 -15.4178221842 l 1
 248.010179192 -7.86209407328 l 1
226.38671875 581.861328125 m 1
 204.248046875 593.474609375 l 1
 215.861328125 615.61328125 l 1
 247.861328125 676.61328125 l 1
 254.8125 689.864257812 l 1
 269.774414062 689.999023438 l 1
 712.774414062 693.999023438 l 1
 725.374023438 694.112304688 l 1
 732.9609375 684.052734375 l 1
 778.9609375 623.052734375 l 1
 794.012695312 603.091796875 l 1
 774.052734375 588.0390625 l 1
 754.091796875 572.987304688 l 1
 739.0390625 592.947265625 l 1
 700.625976562 643.887695312 l 1
 285.1875 640.135742188 l 1
 260.138671875 592.38671875 l 1
 248.525390625 570.248046875 l 1
 226.38671875 581.861328125 l 1
504.374023438 714.330078125 m 1
 531.73046875 760.407226562 l 1
 473.158203125 759.626953125 l 1
 504.374023438 714.330078125 l 1
485.35546875 653.813476562 m 1
 405.415039062 769.813476562 l 1
 378.841796875 808.373046875 l 1
 425.666992188 808.998046875 l 1
 575.666992188 810.998046875 l 1
 620.26953125 811.592773438 l 1
 597.497070312 773.237304688 l 1
 527.4375 655.237304688 l 1
 506 653 l 1
 485.35546875 653.813476562 l 1
EndSplineSet
EndChar

StartChar: lt-KV
Encoding: 304 -1 73
Width: 950
VWidth: 0
Flags: HW
LayerCount: 2
Fore
SplineSet
829.271265388 308.568835096 m 1
 825.364911213 303.593116468 l 2
 787.863331168 255.827690921 751.496387304 190.951839434 752.287702162 169.856213254 c 0
 753.297044655 142.937103121 774.644167549 68.0095075407 829.489282049 17.241331555 c 2
 832.695336736 14.272581555 l 1
 836.797367386 10.474173643 l 1
 834.328954884 5.45804985676 l 1
 826.729345509 -9.98530951824 l 1
 823.969568782 -15.5935219518 l 1
 817.955756434 -13.8898566896 l 1
 812.829450496 -12.4376149344 l 2
 711.036475846 16.404545433 656.683359214 85.6363928327 653.31472546 168.892099606 c 0
 650.014155932 250.465257714 719.770796019 304.01233338 806.376501005 331.102718749 c 2
 810.962438505 332.536312499 l 1
 815.744441035 334.031197446 l 1
 818.95632705 330.185938363 l 1
 829.12820205 318.008203988 l 1
 833.02209265 313.34645132 l 1
 829.271265388 308.568835096 l 1
761.682800075 274.852474898 m 1
 712.464451237 248.14025618 686.55265224 213.134934641 688.285861399 170.307096368 c 0
 690.282174815 120.964750525 713.280179667 78.6644554728 758.7893361 49.1280452882 c 1
 730.129569563 95.5246949923 718.29833186 142.251221491 717.311906679 168.544191615 c 0
 716.192242793 198.40708311 737.785634314 238.350237338 761.682800075 274.852474898 c 1
808.014648438 536.193359375 m 5
 783.603515625 541.588867188 l 5
 759.193359375 546.985351562 l 5
 764.588867188 571.396484375 l 5
 790.688476562 689.46484375 l 5
 106.456054688 22.103515625 l 5
 88.55859375 4.6474609375 l 5
 71.103515625 22.5439453125 l 5
 53.6474609375 40.44140625 l 5
 71.5439453125 57.896484375 l 5
 735.037109375 705.029296875 l 5
 611.116210938 673.759765625 l 5
 598.78515625 722.21484375 l 5
 629.82421875 730.180664062 l 5
 873 792 l 5
 808.014648438 536.193359375 l 5
EndSplineSet
EndChar

StartChar: lt-TV
Encoding: 305 -1 74
Width: 900
VWidth: 0
Flags: HW
LayerCount: 2
Fore
SplineSet
652.642359138 621.769030408 m 1
 644.829732129 611.81769676 l 2
 569.560533713 515.94896814 495.319603758 386.402267447 497.080670912 339.430432004 c 0
 499.181785789 283.393810996 542.313530472 132.256233984 653.880573288 28.9808041589 c 2
 660.294635788 23.0442807214 l 1
 664.398611001 19.2458542113 l 1
 661.929498012 14.2284706755 l 1
 646.729302699 -16.659224637 l 1
 643.969242329 -22.2678304476 l 1
 637.955120153 -20.5635045307 l 1
 627.703530319 -17.6583340354 l 2
 426.612286089 39.3174360948 320.718392193 175.067173846 314.122342805 338.088384793 c 0
 307.735840351 495.927963472 442.726881508 601.162373496 614.990129673 655.045575971 c 2
 624.16102811 657.914716596 l 1
 628.944080768 659.411107684 l 1
 632.156730763 655.564595106 l 1
 652.4995042 631.208149793 l 1
 656.393020193 626.546434927 l 1
 652.642359138 621.769030408 l 1
545.571724529 569.34699695 m 1
 429.439760981 514.172653775 365.159502017 437.134988977 369.077853586 340.31197918 c 0
 373.537346804 230.087875695 429.603334065 135.663605836 541.457948383 75.5007160768 c 1
 471.456469268 176.518430942 444.219587059 281.366767203 442.119528007 337.369276509 c 0
 439.78915628 399.498872391 490.135772663 488.326670489 545.571724529 569.34699695 c 1
226.38671875 581.861328125 m 1
 204.248046875 593.474609375 l 1
 215.861328125 615.61328125 l 1
 247.861328125 676.61328125 l 1
 254.8125 689.864257812 l 1
 269.774414062 689.999023438 l 1
 712.774414062 693.999023438 l 1
 725.374023438 694.112304688 l 1
 732.9609375 684.052734375 l 1
 778.9609375 623.052734375 l 1
 794.012695312 603.091796875 l 1
 774.052734375 588.0390625 l 1
 754.091796875 572.987304688 l 1
 739.0390625 592.947265625 l 1
 700.625976562 643.887695312 l 1
 285.1875 640.135742188 l 1
 260.138671875 592.38671875 l 1
 248.525390625 570.248046875 l 1
 226.38671875 581.861328125 l 1
504.374023438 714.330078125 m 1
 531.73046875 760.407226562 l 1
 473.158203125 759.626953125 l 1
 504.374023438 714.330078125 l 1
485.35546875 653.813476562 m 1
 405.415039062 769.813476562 l 1
 378.841796875 808.373046875 l 1
 425.666992188 808.998046875 l 1
 575.666992188 810.998046875 l 1
 620.26953125 811.592773438 l 1
 597.497070312 773.237304688 l 1
 527.4375 655.237304688 l 1
 506 653 l 1
 485.35546875 653.813476562 l 1
EndSplineSet
EndChar
